%TF.GenerationSoftware,KiCad,Pcbnew,(6.0.7)*%
%TF.CreationDate,2023-08-26T21:57:55+08:00*%
%TF.ProjectId,ESP32_C3_motor_driver_V4,45535033-325f-4433-935f-6d6f746f725f,rev?*%
%TF.SameCoordinates,PX5ae29a0PY2d4cae0*%
%TF.FileFunction,Copper,L2,Inr*%
%TF.FilePolarity,Positive*%
%FSLAX46Y46*%
G04 Gerber Fmt 4.6, Leading zero omitted, Abs format (unit mm)*
G04 Created by KiCad (PCBNEW (6.0.7)) date 2023-08-26 21:57:55*
%MOMM*%
%LPD*%
G01*
G04 APERTURE LIST*
G04 Aperture macros list*
%AMRoundRect*
0 Rectangle with rounded corners*
0 $1 Rounding radius*
0 $2 $3 $4 $5 $6 $7 $8 $9 X,Y pos of 4 corners*
0 Add a 4 corners polygon primitive as box body*
4,1,4,$2,$3,$4,$5,$6,$7,$8,$9,$2,$3,0*
0 Add four circle primitives for the rounded corners*
1,1,$1+$1,$2,$3*
1,1,$1+$1,$4,$5*
1,1,$1+$1,$6,$7*
1,1,$1+$1,$8,$9*
0 Add four rect primitives between the rounded corners*
20,1,$1+$1,$2,$3,$4,$5,0*
20,1,$1+$1,$4,$5,$6,$7,0*
20,1,$1+$1,$6,$7,$8,$9,0*
20,1,$1+$1,$8,$9,$2,$3,0*%
G04 Aperture macros list end*
%TA.AperFunction,ComponentPad*%
%ADD10C,4.700000*%
%TD*%
%TA.AperFunction,ComponentPad*%
%ADD11C,0.500000*%
%TD*%
%TA.AperFunction,ComponentPad*%
%ADD12RoundRect,0.250000X0.725000X-0.600000X0.725000X0.600000X-0.725000X0.600000X-0.725000X-0.600000X0*%
%TD*%
%TA.AperFunction,ComponentPad*%
%ADD13O,1.950000X1.700000*%
%TD*%
%TA.AperFunction,ComponentPad*%
%ADD14RoundRect,0.250000X-0.625000X0.350000X-0.625000X-0.350000X0.625000X-0.350000X0.625000X0.350000X0*%
%TD*%
%TA.AperFunction,ComponentPad*%
%ADD15O,1.750000X1.200000*%
%TD*%
%TA.AperFunction,ComponentPad*%
%ADD16RoundRect,0.250000X0.625000X-0.350000X0.625000X0.350000X-0.625000X0.350000X-0.625000X-0.350000X0*%
%TD*%
%TA.AperFunction,ComponentPad*%
%ADD17RoundRect,0.250000X-0.750000X0.600000X-0.750000X-0.600000X0.750000X-0.600000X0.750000X0.600000X0*%
%TD*%
%TA.AperFunction,ComponentPad*%
%ADD18O,2.000000X1.700000*%
%TD*%
%TA.AperFunction,ComponentPad*%
%ADD19O,1.000000X1.600000*%
%TD*%
%TA.AperFunction,ComponentPad*%
%ADD20O,1.000000X2.100000*%
%TD*%
%TA.AperFunction,ComponentPad*%
%ADD21R,0.850000X0.850000*%
%TD*%
%TA.AperFunction,ComponentPad*%
%ADD22O,0.850000X0.850000*%
%TD*%
%TA.AperFunction,ViaPad*%
%ADD23C,0.800000*%
%TD*%
G04 APERTURE END LIST*
D10*
%TO.N,N/C*%
%TO.C,REF\u002A\u002A*%
X39700000Y-37500000D03*
%TD*%
%TO.N,N/C*%
%TO.C,REF\u002A\u002A*%
X39700000Y-3500000D03*
%TD*%
D11*
%TO.N,GND*%
%TO.C,U6*%
X23380000Y-27140000D03*
X23380000Y-26440000D03*
X23380000Y-25740000D03*
X22680000Y-26440000D03*
X23380000Y-27840000D03*
X22680000Y-27840000D03*
X23380000Y-28540000D03*
X24780000Y-28540000D03*
X24780000Y-27840000D03*
X24780000Y-27140000D03*
X24780000Y-26440000D03*
X24780000Y-25740000D03*
X24080000Y-26440000D03*
X24080000Y-27840000D03*
X25480000Y-27840000D03*
X25480000Y-26440000D03*
%TD*%
D12*
%TO.N,/M11*%
%TO.C,J10*%
X48050000Y-11050000D03*
D13*
%TO.N,/M12*%
X48050000Y-8550000D03*
%TO.N,/M13*%
X48050000Y-6050000D03*
%TO.N,/M14*%
X48050000Y-3550000D03*
%TD*%
D14*
%TO.N,GND*%
%TO.C,J5*%
X7050000Y-11600000D03*
D15*
%TO.N,/12V*%
X7050000Y-13600000D03*
%TD*%
D16*
%TO.N,/CAN_L*%
%TO.C,J4*%
X50950000Y-20500000D03*
D15*
%TO.N,/CAN_H*%
X50950000Y-18500000D03*
%TD*%
D11*
%TO.N,GND*%
%TO.C,U4*%
X30300000Y-10220000D03*
X30300000Y-11520000D03*
X30300000Y-12820000D03*
X30300000Y-14120000D03*
X30300000Y-8920000D03*
X30300000Y-7620000D03*
X30300000Y-6320000D03*
X31600000Y-14120000D03*
X29000000Y-14120000D03*
X31600000Y-12820000D03*
X29000000Y-12820000D03*
X29000000Y-11520000D03*
X31600000Y-11520000D03*
X31600000Y-10220000D03*
X29000000Y-10220000D03*
X31600000Y-8920000D03*
X29000000Y-8920000D03*
X31600000Y-7620000D03*
X29000000Y-7620000D03*
X31600000Y-6320000D03*
X29000000Y-6320000D03*
%TD*%
D16*
%TO.N,/CAN_L*%
%TO.C,J6*%
X50950000Y-29200000D03*
D15*
%TO.N,/CAN_H*%
X50950000Y-27200000D03*
%TD*%
D17*
%TO.N,/12V*%
%TO.C,J1*%
X9950000Y-3350000D03*
D18*
%TO.N,GND*%
X9950000Y-5850000D03*
%TD*%
D16*
%TO.N,Net-(J9-Pad1)*%
%TO.C,J9*%
X50950000Y-45400000D03*
D15*
%TO.N,GND*%
X50950000Y-43400000D03*
%TD*%
D19*
%TO.N,unconnected-(J2-PadS1)*%
%TO.C,J2*%
X14580000Y-3487500D03*
D20*
X23220000Y-7667500D03*
D19*
X23220000Y-3487500D03*
D20*
X14580000Y-7667500D03*
%TD*%
D21*
%TO.N,GND*%
%TO.C,J3*%
X4990000Y-27300000D03*
D22*
%TO.N,/UART0_TX*%
X4990000Y-28300000D03*
%TO.N,/UART0_RX*%
X4990000Y-29300000D03*
%TO.N,/3V3*%
X4990000Y-30300000D03*
%TD*%
D16*
%TO.N,Net-(J8-Pad1)*%
%TO.C,J8*%
X50950000Y-37300000D03*
D15*
%TO.N,GND*%
X50950000Y-35300000D03*
%TD*%
D23*
%TO.N,GND*%
X19000000Y-39800000D03*
X16900000Y-39800000D03*
X18000000Y-39800000D03*
X28300000Y-3800000D03*
X37700000Y-47700000D03*
X38600000Y-47700000D03*
X35900000Y-47700000D03*
X36800000Y-47700000D03*
X33200000Y-47700000D03*
X34100000Y-47700000D03*
X35000000Y-47700000D03*
X5500000Y-32700000D03*
X20400000Y-33600000D03*
X19500000Y-33600000D03*
X18600000Y-33600000D03*
X17700000Y-33600000D03*
X16800000Y-33600000D03*
X15900000Y-33600000D03*
X15000000Y-33600000D03*
X13200000Y-33600000D03*
X14100000Y-33600000D03*
X12300000Y-33600000D03*
X11400000Y-33600000D03*
X10500000Y-33600000D03*
X9600000Y-33600000D03*
X8700000Y-33600000D03*
X7800000Y-33600000D03*
X6800000Y-33600000D03*
X5900000Y-33600000D03*
X4600000Y-32100000D03*
X1900000Y-32100000D03*
X3700000Y-32100000D03*
X2800000Y-32100000D03*
X1000000Y-32100000D03*
X12190000Y-24970000D03*
X16487198Y-26287198D03*
X16270000Y-21790000D03*
X14290000Y-29480000D03*
X23960000Y-21920000D03*
X19100000Y-38200000D03*
X21567500Y-29702977D03*
X26000000Y-36300000D03*
X33250000Y-46700000D03*
X45800000Y-42700000D03*
X17700000Y-28600000D03*
X34775000Y-34625000D03*
X39450000Y-42800000D03*
X22700000Y-40200000D03*
X14500000Y-40200000D03*
X39250000Y-41800000D03*
X42000000Y-25900000D03*
X23600000Y-40200000D03*
X19194623Y-14992438D03*
X10000000Y-40200000D03*
X1000000Y-33000000D03*
X10900000Y-40200000D03*
X35400000Y-21000000D03*
X21332000Y-14858000D03*
X15700000Y-9700000D03*
X30000000Y-44100000D03*
X2800000Y-40200000D03*
X20900000Y-40200000D03*
X23300000Y-34900000D03*
X21200000Y-34200000D03*
X33900000Y-27400000D03*
X20400000Y-36300000D03*
X15100000Y-37400000D03*
X1000000Y-34800000D03*
X30000000Y-40400000D03*
X23300000Y-35800000D03*
X38200000Y-13342500D03*
X34000000Y-31300000D03*
X18500000Y-36400000D03*
X30000000Y-46800000D03*
X43900000Y-11000000D03*
X1000000Y-35700000D03*
X31100000Y-47700000D03*
X36602500Y-29900000D03*
X20900000Y-38100000D03*
X11800000Y-40200000D03*
X13030000Y-20760000D03*
X21000000Y-30500000D03*
X28990000Y-18980000D03*
X24500000Y-40200000D03*
X8200000Y-40200000D03*
X33200000Y-23400000D03*
X23400000Y-36700000D03*
X29000000Y-40200000D03*
X14800000Y-38300000D03*
X31500000Y-3300000D03*
X21800000Y-37700000D03*
X20000000Y-39800000D03*
X25400000Y-40200000D03*
X1900000Y-40200000D03*
X42000000Y-23500000D03*
X30000000Y-45900000D03*
X40575000Y-47300000D03*
X19400000Y-36400000D03*
X26192799Y-9816311D03*
X1000000Y-33900000D03*
X35800000Y-5000000D03*
X1000000Y-37500000D03*
X5500000Y-40200000D03*
X26900000Y-16500000D03*
X20700000Y-35300000D03*
X30000000Y-43200000D03*
X12600000Y-17400000D03*
X20000000Y-38200000D03*
X17600000Y-36400000D03*
X27400000Y-33800000D03*
X7300000Y-40200000D03*
X18200000Y-38200000D03*
X23300000Y-33100000D03*
X33700000Y-41300000D03*
X27100000Y-24600000D03*
X38757590Y-8007914D03*
X9100000Y-40200000D03*
X6400000Y-40200000D03*
X9500000Y-31800000D03*
X12700000Y-40200000D03*
X30100000Y-47700000D03*
X13600000Y-40200000D03*
X4600000Y-40200000D03*
X33400000Y-5300000D03*
X30000000Y-45000000D03*
X41802500Y-28800000D03*
X30000000Y-41400000D03*
X17300000Y-38200000D03*
X1000000Y-38400000D03*
X22100000Y-9700000D03*
X16500000Y-38800000D03*
X33254500Y-42400000D03*
X37602500Y-27300000D03*
X1000000Y-40200000D03*
X1000000Y-36600000D03*
X8900000Y-23700000D03*
X45800000Y-46600000D03*
X17200000Y-12337500D03*
X28100000Y-40200000D03*
X3700000Y-40200000D03*
X20400000Y-12355500D03*
X46400000Y-40100000D03*
X17700000Y-29600000D03*
X15800000Y-36700000D03*
X30000000Y-42300000D03*
X22500000Y-37000000D03*
X26000000Y-33100000D03*
X27040000Y-19070000D03*
X17500000Y-32500000D03*
X20400000Y-32100000D03*
X21100000Y-33000000D03*
X14800000Y-39300000D03*
X27200000Y-40200000D03*
X20300000Y-31100000D03*
X23300000Y-34000000D03*
X21800000Y-40200000D03*
X26300000Y-40200000D03*
X1000000Y-39300000D03*
X31800000Y-23400000D03*
X16700000Y-36400000D03*
%TO.N,/12V*%
X25100000Y-1700000D03*
X34900000Y-18600000D03*
%TO.N,/3V3*%
X11370000Y-19140000D03*
X48100000Y-40100000D03*
X32321181Y-36745500D03*
X30000000Y-28870500D03*
X44000000Y-38900000D03*
X26024500Y-22000000D03*
X19730000Y-18870000D03*
%TO.N,/INT_ACC*%
X35900000Y-37000000D03*
X31487198Y-37600000D03*
X36312802Y-40837198D03*
X29100000Y-25700000D03*
%TO.N,/5V_USB*%
X21375716Y-10314753D03*
X18900000Y-12600000D03*
%TO.N,Net-(J9-Pad1)*%
X28300000Y-26265500D03*
X28300000Y-32024500D03*
%TO.N,/M11*%
X35800000Y-12000000D03*
X44800000Y-11700000D03*
%TO.N,/M12*%
X38400000Y-10500000D03*
X42700000Y-8400000D03*
%TO.N,/M13*%
X41700000Y-6700000D03*
X35800000Y-7900000D03*
%TO.N,/M14*%
X42500000Y-5800000D03*
X37788580Y-9786677D03*
%TO.N,/SDA_ACC*%
X25500000Y-32000000D03*
X32200000Y-47600000D03*
%TO.N,/SCL_ACC*%
X32300000Y-44600000D03*
X24500000Y-32000000D03*
%TO.N,/DIR*%
X25600000Y-8600000D03*
X30500000Y-16700000D03*
%TO.N,/STP*%
X25900000Y-11000000D03*
X31500000Y-16100000D03*
%TO.N,Net-(J8-Pad1)*%
X46600000Y-36900000D03*
X44300000Y-36800000D03*
%TO.N,Net-(R19-Pad1)*%
X19866989Y-25733011D03*
X9500000Y-28800000D03*
%TO.N,Net-(R20-Pad1)*%
X9500000Y-27200000D03*
X18519873Y-25180127D03*
%TD*%
%TA.AperFunction,Conductor*%
%TO.N,GND*%
G36*
X57478273Y-402051D02*
G01*
X57491167Y-404093D01*
X57555320Y-434504D01*
X57592848Y-494772D01*
X57595907Y-508833D01*
X57597949Y-521727D01*
X57599500Y-541436D01*
X57599500Y-47958564D01*
X57597949Y-47978273D01*
X57595907Y-47991167D01*
X57565496Y-48055320D01*
X57505228Y-48092848D01*
X57491167Y-48095907D01*
X57478273Y-48097949D01*
X57458564Y-48099500D01*
X32740903Y-48099500D01*
X32672782Y-48079498D01*
X32626289Y-48025842D01*
X32616185Y-47955568D01*
X32640940Y-47896798D01*
X32663391Y-47867539D01*
X32716846Y-47738488D01*
X32735078Y-47600000D01*
X32716846Y-47461512D01*
X32663391Y-47332461D01*
X32578357Y-47221643D01*
X32467539Y-47136609D01*
X32338488Y-47083154D01*
X32200000Y-47064922D01*
X32061512Y-47083154D01*
X31932461Y-47136609D01*
X31821643Y-47221643D01*
X31736609Y-47332461D01*
X31683154Y-47461512D01*
X31664922Y-47600000D01*
X31683154Y-47738488D01*
X31736609Y-47867539D01*
X31759060Y-47896798D01*
X31784660Y-47963016D01*
X31770396Y-48032564D01*
X31720795Y-48083361D01*
X31659097Y-48099500D01*
X29626000Y-48099500D01*
X29557879Y-48079498D01*
X29511386Y-48025842D01*
X29500000Y-47973500D01*
X29500000Y-44600000D01*
X31764922Y-44600000D01*
X31783154Y-44738488D01*
X31836609Y-44867539D01*
X31921643Y-44978357D01*
X32032461Y-45063391D01*
X32161512Y-45116846D01*
X32300000Y-45135078D01*
X32308188Y-45134000D01*
X32430300Y-45117924D01*
X32438488Y-45116846D01*
X32567539Y-45063391D01*
X32678357Y-44978357D01*
X32763391Y-44867539D01*
X32816846Y-44738488D01*
X32835078Y-44600000D01*
X32816846Y-44461512D01*
X32763391Y-44332461D01*
X32678357Y-44221643D01*
X32567539Y-44136609D01*
X32438488Y-44083154D01*
X32300000Y-44064922D01*
X32161512Y-44083154D01*
X32032461Y-44136609D01*
X31921643Y-44221643D01*
X31836609Y-44332461D01*
X31783154Y-44461512D01*
X31764922Y-44600000D01*
X29500000Y-44600000D01*
X29500000Y-43667399D01*
X49599712Y-43667399D01*
X49621194Y-43756537D01*
X49625083Y-43767832D01*
X49707629Y-43949382D01*
X49713576Y-43959724D01*
X49828968Y-44122397D01*
X49836761Y-44131425D01*
X49980831Y-44269342D01*
X49990196Y-44276738D01*
X50157741Y-44384921D01*
X50168345Y-44390417D01*
X50276563Y-44434030D01*
X50332269Y-44478045D01*
X50355336Y-44545190D01*
X50338439Y-44614147D01*
X50286944Y-44663022D01*
X50247816Y-44675553D01*
X50242163Y-44676385D01*
X50214148Y-44680509D01*
X50205356Y-44684826D01*
X50205355Y-44684826D01*
X50109788Y-44731747D01*
X50109786Y-44731748D01*
X50100440Y-44736337D01*
X50010946Y-44825987D01*
X49955317Y-44939793D01*
X49944500Y-45013938D01*
X49944500Y-45786062D01*
X49955509Y-45860852D01*
X50011337Y-45974560D01*
X50100987Y-46064054D01*
X50110343Y-46068627D01*
X50110344Y-46068628D01*
X50151111Y-46088555D01*
X50214793Y-46119683D01*
X50265870Y-46127135D01*
X50284413Y-46129840D01*
X50284415Y-46129840D01*
X50288938Y-46130500D01*
X51611062Y-46130500D01*
X51685852Y-46119491D01*
X51789448Y-46068628D01*
X51790212Y-46068253D01*
X51790214Y-46068252D01*
X51799560Y-46063663D01*
X51889054Y-45974013D01*
X51944683Y-45860207D01*
X51955500Y-45786062D01*
X51955500Y-45013938D01*
X51944491Y-44939148D01*
X51909333Y-44867539D01*
X51893253Y-44834788D01*
X51893252Y-44834786D01*
X51888663Y-44825440D01*
X51799013Y-44735946D01*
X51789657Y-44731373D01*
X51789656Y-44731372D01*
X51748889Y-44711445D01*
X51685207Y-44680317D01*
X51664467Y-44677291D01*
X51661169Y-44676810D01*
X51596649Y-44647183D01*
X51558390Y-44587378D01*
X51558537Y-44516381D01*
X51597044Y-44456735D01*
X51632564Y-44435142D01*
X51643678Y-44430697D01*
X51820978Y-44339381D01*
X51831024Y-44332931D01*
X51987857Y-44209738D01*
X51996506Y-44201501D01*
X52127212Y-44050877D01*
X52134147Y-44041153D01*
X52234010Y-43868533D01*
X52238984Y-43857669D01*
X52304407Y-43669273D01*
X52304648Y-43668284D01*
X52303180Y-43657992D01*
X52289615Y-43654000D01*
X49614598Y-43654000D01*
X49601067Y-43657973D01*
X49599712Y-43667399D01*
X29500000Y-43667399D01*
X29500000Y-43131716D01*
X49595352Y-43131716D01*
X49596820Y-43142008D01*
X49610385Y-43146000D01*
X50677885Y-43146000D01*
X50693124Y-43141525D01*
X50694329Y-43140135D01*
X50696000Y-43132452D01*
X50696000Y-43127885D01*
X51204000Y-43127885D01*
X51208475Y-43143124D01*
X51209865Y-43144329D01*
X51217548Y-43146000D01*
X52285402Y-43146000D01*
X52298933Y-43142027D01*
X52300288Y-43132601D01*
X52278806Y-43043463D01*
X52274917Y-43032168D01*
X52192371Y-42850618D01*
X52186424Y-42840276D01*
X52071032Y-42677603D01*
X52063239Y-42668575D01*
X51919169Y-42530658D01*
X51909804Y-42523262D01*
X51742259Y-42415079D01*
X51731655Y-42409583D01*
X51546688Y-42335039D01*
X51535230Y-42331645D01*
X51338072Y-42293143D01*
X51329209Y-42292066D01*
X51326500Y-42292000D01*
X51222115Y-42292000D01*
X51206876Y-42296475D01*
X51205671Y-42297865D01*
X51204000Y-42305548D01*
X51204000Y-43127885D01*
X50696000Y-43127885D01*
X50696000Y-42310115D01*
X50691525Y-42294876D01*
X50690135Y-42293671D01*
X50682452Y-42292000D01*
X50625168Y-42292000D01*
X50619192Y-42292285D01*
X50470506Y-42306471D01*
X50458772Y-42308730D01*
X50267401Y-42364872D01*
X50256325Y-42369302D01*
X50079022Y-42460619D01*
X50068976Y-42467069D01*
X49912143Y-42590262D01*
X49903494Y-42598499D01*
X49772788Y-42749123D01*
X49765853Y-42758847D01*
X49665990Y-42931467D01*
X49661016Y-42942331D01*
X49595593Y-43130727D01*
X49595352Y-43131716D01*
X29500000Y-43131716D01*
X29500000Y-40837198D01*
X35777724Y-40837198D01*
X35795956Y-40975686D01*
X35849411Y-41104737D01*
X35934445Y-41215555D01*
X36045263Y-41300589D01*
X36174314Y-41354044D01*
X36312802Y-41372276D01*
X36320990Y-41371198D01*
X36443102Y-41355122D01*
X36451290Y-41354044D01*
X36580341Y-41300589D01*
X36691159Y-41215555D01*
X36776193Y-41104737D01*
X36829648Y-40975686D01*
X36847880Y-40837198D01*
X36829648Y-40698710D01*
X36776193Y-40569659D01*
X36691159Y-40458841D01*
X36580341Y-40373807D01*
X36451290Y-40320352D01*
X36312802Y-40302120D01*
X36174314Y-40320352D01*
X36045263Y-40373807D01*
X35934445Y-40458841D01*
X35849411Y-40569659D01*
X35795956Y-40698710D01*
X35777724Y-40837198D01*
X29500000Y-40837198D01*
X29500000Y-40800000D01*
X526500Y-40800000D01*
X458379Y-40779998D01*
X411886Y-40726342D01*
X400500Y-40674000D01*
X400500Y-40100000D01*
X47564922Y-40100000D01*
X47583154Y-40238488D01*
X47636609Y-40367539D01*
X47721643Y-40478357D01*
X47832461Y-40563391D01*
X47961512Y-40616846D01*
X48100000Y-40635078D01*
X48108188Y-40634000D01*
X48230300Y-40617924D01*
X48238488Y-40616846D01*
X48367539Y-40563391D01*
X48478357Y-40478357D01*
X48563391Y-40367539D01*
X48616846Y-40238488D01*
X48635078Y-40100000D01*
X48616846Y-39961512D01*
X48563391Y-39832461D01*
X48478357Y-39721643D01*
X48367539Y-39636609D01*
X48238488Y-39583154D01*
X48100000Y-39564922D01*
X47961512Y-39583154D01*
X47832461Y-39636609D01*
X47721643Y-39721643D01*
X47636609Y-39832461D01*
X47583154Y-39961512D01*
X47564922Y-40100000D01*
X400500Y-40100000D01*
X400500Y-37600000D01*
X30952120Y-37600000D01*
X30970352Y-37738488D01*
X31023807Y-37867539D01*
X31108841Y-37978357D01*
X31219659Y-38063391D01*
X31348710Y-38116846D01*
X31487198Y-38135078D01*
X31495386Y-38134000D01*
X31617498Y-38117924D01*
X31625686Y-38116846D01*
X31754737Y-38063391D01*
X31865555Y-37978357D01*
X31950589Y-37867539D01*
X32004044Y-37738488D01*
X32022276Y-37600000D01*
X32004044Y-37461512D01*
X32000884Y-37453883D01*
X32000883Y-37453879D01*
X31983871Y-37412810D01*
X31976281Y-37342221D01*
X32008059Y-37278733D01*
X32069117Y-37242505D01*
X32140069Y-37245039D01*
X32148496Y-37248182D01*
X32175060Y-37259185D01*
X32175065Y-37259186D01*
X32182693Y-37262346D01*
X32190881Y-37263424D01*
X32222138Y-37267539D01*
X32321181Y-37280578D01*
X32329369Y-37279500D01*
X32451481Y-37263424D01*
X32459669Y-37262346D01*
X32588720Y-37208891D01*
X32699538Y-37123857D01*
X32784572Y-37013039D01*
X32789973Y-37000000D01*
X35364922Y-37000000D01*
X35366000Y-37008188D01*
X35380366Y-37117307D01*
X35383154Y-37138488D01*
X35436609Y-37267539D01*
X35521643Y-37378357D01*
X35632461Y-37463391D01*
X35761512Y-37516846D01*
X35900000Y-37535078D01*
X35908188Y-37534000D01*
X36030300Y-37517924D01*
X36038488Y-37516846D01*
X36079158Y-37500000D01*
X37214596Y-37500000D01*
X37234194Y-37811504D01*
X37292680Y-38118095D01*
X37293907Y-38121871D01*
X37379830Y-38386314D01*
X37389130Y-38414938D01*
X37390817Y-38418524D01*
X37390819Y-38418528D01*
X37520336Y-38693767D01*
X37520340Y-38693774D01*
X37522024Y-38697353D01*
X37689266Y-38960884D01*
X37888218Y-39201376D01*
X38115744Y-39415037D01*
X38118946Y-39417364D01*
X38118948Y-39417365D01*
X38141844Y-39434000D01*
X38368254Y-39598496D01*
X38431833Y-39633449D01*
X38583115Y-39716617D01*
X38641766Y-39748861D01*
X38799836Y-39811445D01*
X38928285Y-39862302D01*
X38928288Y-39862303D01*
X38931968Y-39863760D01*
X38935802Y-39864744D01*
X38935810Y-39864747D01*
X39122687Y-39912728D01*
X39234282Y-39941381D01*
X39238210Y-39941877D01*
X39238214Y-39941878D01*
X39333245Y-39953883D01*
X39543940Y-39980500D01*
X39856060Y-39980500D01*
X40066755Y-39953883D01*
X40161786Y-39941878D01*
X40161790Y-39941877D01*
X40165718Y-39941381D01*
X40277313Y-39912728D01*
X40464190Y-39864747D01*
X40464198Y-39864744D01*
X40468032Y-39863760D01*
X40471712Y-39862303D01*
X40471715Y-39862302D01*
X40600164Y-39811445D01*
X40758234Y-39748861D01*
X40816886Y-39716617D01*
X40968167Y-39633449D01*
X41031746Y-39598496D01*
X41258156Y-39434000D01*
X41281052Y-39417365D01*
X41281054Y-39417364D01*
X41284256Y-39415037D01*
X41511782Y-39201376D01*
X41710734Y-38960884D01*
X41749372Y-38900000D01*
X43464922Y-38900000D01*
X43483154Y-39038488D01*
X43536609Y-39167539D01*
X43621643Y-39278357D01*
X43732461Y-39363391D01*
X43861512Y-39416846D01*
X44000000Y-39435078D01*
X44008188Y-39434000D01*
X44130300Y-39417924D01*
X44138488Y-39416846D01*
X44267539Y-39363391D01*
X44378357Y-39278357D01*
X44463391Y-39167539D01*
X44516846Y-39038488D01*
X44535078Y-38900000D01*
X44516846Y-38761512D01*
X44463391Y-38632461D01*
X44378357Y-38521643D01*
X44267539Y-38436609D01*
X44138488Y-38383154D01*
X44000000Y-38364922D01*
X43861512Y-38383154D01*
X43732461Y-38436609D01*
X43621643Y-38521643D01*
X43536609Y-38632461D01*
X43483154Y-38761512D01*
X43464922Y-38900000D01*
X41749372Y-38900000D01*
X41877976Y-38697353D01*
X41879660Y-38693774D01*
X41879664Y-38693767D01*
X42009181Y-38418528D01*
X42009183Y-38418524D01*
X42010870Y-38414938D01*
X42020171Y-38386314D01*
X42106093Y-38121871D01*
X42107320Y-38118095D01*
X42165806Y-37811504D01*
X42185404Y-37500000D01*
X42165806Y-37188496D01*
X42107320Y-36881905D01*
X42080707Y-36800000D01*
X43764922Y-36800000D01*
X43783154Y-36938488D01*
X43836609Y-37067539D01*
X43921643Y-37178357D01*
X44032461Y-37263391D01*
X44161512Y-37316846D01*
X44300000Y-37335078D01*
X44308188Y-37334000D01*
X44430300Y-37317924D01*
X44438488Y-37316846D01*
X44567539Y-37263391D01*
X44678357Y-37178357D01*
X44763391Y-37067539D01*
X44816846Y-36938488D01*
X44821913Y-36900000D01*
X46064922Y-36900000D01*
X46083154Y-37038488D01*
X46136609Y-37167539D01*
X46221643Y-37278357D01*
X46332461Y-37363391D01*
X46461512Y-37416846D01*
X46600000Y-37435078D01*
X46608188Y-37434000D01*
X46730300Y-37417924D01*
X46738488Y-37416846D01*
X46867539Y-37363391D01*
X46978357Y-37278357D01*
X47063391Y-37167539D01*
X47116846Y-37038488D01*
X47135078Y-36900000D01*
X47116846Y-36761512D01*
X47063391Y-36632461D01*
X46978357Y-36521643D01*
X46867539Y-36436609D01*
X46738488Y-36383154D01*
X46600000Y-36364922D01*
X46461512Y-36383154D01*
X46332461Y-36436609D01*
X46221643Y-36521643D01*
X46136609Y-36632461D01*
X46083154Y-36761512D01*
X46064922Y-36900000D01*
X44821913Y-36900000D01*
X44835078Y-36800000D01*
X44816846Y-36661512D01*
X44763391Y-36532461D01*
X44678357Y-36421643D01*
X44567539Y-36336609D01*
X44438488Y-36283154D01*
X44406548Y-36278949D01*
X44308188Y-36266000D01*
X44300000Y-36264922D01*
X44291812Y-36266000D01*
X44193453Y-36278949D01*
X44161512Y-36283154D01*
X44032461Y-36336609D01*
X43921643Y-36421643D01*
X43836609Y-36532461D01*
X43783154Y-36661512D01*
X43764922Y-36800000D01*
X42080707Y-36800000D01*
X42010870Y-36585062D01*
X42008728Y-36580509D01*
X41879664Y-36306233D01*
X41879660Y-36306226D01*
X41877976Y-36302647D01*
X41710734Y-36039116D01*
X41511782Y-35798624D01*
X41284256Y-35584963D01*
X41260082Y-35567399D01*
X49599712Y-35567399D01*
X49621194Y-35656537D01*
X49625083Y-35667832D01*
X49707629Y-35849382D01*
X49713576Y-35859724D01*
X49828968Y-36022397D01*
X49836761Y-36031425D01*
X49980831Y-36169342D01*
X49990196Y-36176738D01*
X50157741Y-36284921D01*
X50168345Y-36290417D01*
X50276563Y-36334030D01*
X50332269Y-36378045D01*
X50355336Y-36445190D01*
X50338439Y-36514147D01*
X50286944Y-36563022D01*
X50247816Y-36575553D01*
X50242163Y-36576385D01*
X50214148Y-36580509D01*
X50205356Y-36584826D01*
X50205355Y-36584826D01*
X50109788Y-36631747D01*
X50109786Y-36631748D01*
X50100440Y-36636337D01*
X50010946Y-36725987D01*
X50006373Y-36735343D01*
X50006372Y-36735344D01*
X49997310Y-36753883D01*
X49955317Y-36839793D01*
X49944500Y-36913938D01*
X49944500Y-37686062D01*
X49955509Y-37760852D01*
X49959826Y-37769644D01*
X49959826Y-37769645D01*
X50004144Y-37859909D01*
X50011337Y-37874560D01*
X50100987Y-37964054D01*
X50110343Y-37968627D01*
X50110344Y-37968628D01*
X50116848Y-37971807D01*
X50214793Y-38019683D01*
X50265870Y-38027135D01*
X50284413Y-38029840D01*
X50284415Y-38029840D01*
X50288938Y-38030500D01*
X51611062Y-38030500D01*
X51685852Y-38019491D01*
X51694645Y-38015174D01*
X51790212Y-37968253D01*
X51790214Y-37968252D01*
X51799560Y-37963663D01*
X51889054Y-37874013D01*
X51944683Y-37760207D01*
X51955500Y-37686062D01*
X51955500Y-36913938D01*
X51944491Y-36839148D01*
X51940174Y-36830355D01*
X51893253Y-36734788D01*
X51893252Y-36734786D01*
X51888663Y-36725440D01*
X51799013Y-36635946D01*
X51789657Y-36631373D01*
X51789656Y-36631372D01*
X51694914Y-36585062D01*
X51685207Y-36580317D01*
X51664467Y-36577291D01*
X51661169Y-36576810D01*
X51596649Y-36547183D01*
X51558390Y-36487378D01*
X51558537Y-36416381D01*
X51597044Y-36356735D01*
X51632564Y-36335142D01*
X51643678Y-36330697D01*
X51820978Y-36239381D01*
X51831024Y-36232931D01*
X51987857Y-36109738D01*
X51996506Y-36101501D01*
X52127212Y-35950877D01*
X52134147Y-35941153D01*
X52234010Y-35768533D01*
X52238984Y-35757669D01*
X52304407Y-35569273D01*
X52304648Y-35568284D01*
X52303180Y-35557992D01*
X52289615Y-35554000D01*
X49614598Y-35554000D01*
X49601067Y-35557973D01*
X49599712Y-35567399D01*
X41260082Y-35567399D01*
X41247108Y-35557973D01*
X41034954Y-35403835D01*
X41031746Y-35401504D01*
X40758234Y-35251139D01*
X40600164Y-35188555D01*
X40471715Y-35137698D01*
X40471712Y-35137697D01*
X40468032Y-35136240D01*
X40464198Y-35135256D01*
X40464190Y-35135253D01*
X40277313Y-35087272D01*
X40165718Y-35058619D01*
X40161790Y-35058123D01*
X40161786Y-35058122D01*
X40019402Y-35040135D01*
X39952759Y-35031716D01*
X49595352Y-35031716D01*
X49596820Y-35042008D01*
X49610385Y-35046000D01*
X50677885Y-35046000D01*
X50693124Y-35041525D01*
X50694329Y-35040135D01*
X50696000Y-35032452D01*
X50696000Y-35027885D01*
X51204000Y-35027885D01*
X51208475Y-35043124D01*
X51209865Y-35044329D01*
X51217548Y-35046000D01*
X52285402Y-35046000D01*
X52298933Y-35042027D01*
X52300288Y-35032601D01*
X52278806Y-34943463D01*
X52274917Y-34932168D01*
X52192371Y-34750618D01*
X52186424Y-34740276D01*
X52071032Y-34577603D01*
X52063239Y-34568575D01*
X51919169Y-34430658D01*
X51909804Y-34423262D01*
X51742259Y-34315079D01*
X51731655Y-34309583D01*
X51546688Y-34235039D01*
X51535230Y-34231645D01*
X51338072Y-34193143D01*
X51329209Y-34192066D01*
X51326500Y-34192000D01*
X51222115Y-34192000D01*
X51206876Y-34196475D01*
X51205671Y-34197865D01*
X51204000Y-34205548D01*
X51204000Y-35027885D01*
X50696000Y-35027885D01*
X50696000Y-34210115D01*
X50691525Y-34194876D01*
X50690135Y-34193671D01*
X50682452Y-34192000D01*
X50625168Y-34192000D01*
X50619192Y-34192285D01*
X50470506Y-34206471D01*
X50458772Y-34208730D01*
X50267401Y-34264872D01*
X50256325Y-34269302D01*
X50079022Y-34360619D01*
X50068976Y-34367069D01*
X49912143Y-34490262D01*
X49903494Y-34498499D01*
X49772788Y-34649123D01*
X49765853Y-34658847D01*
X49665990Y-34831467D01*
X49661016Y-34842331D01*
X49595593Y-35030727D01*
X49595352Y-35031716D01*
X39952759Y-35031716D01*
X39856060Y-35019500D01*
X39543940Y-35019500D01*
X39380598Y-35040135D01*
X39238214Y-35058122D01*
X39238210Y-35058123D01*
X39234282Y-35058619D01*
X39122687Y-35087272D01*
X38935810Y-35135253D01*
X38935802Y-35135256D01*
X38931968Y-35136240D01*
X38928288Y-35137697D01*
X38928285Y-35137698D01*
X38799836Y-35188555D01*
X38641766Y-35251139D01*
X38368254Y-35401504D01*
X38365046Y-35403835D01*
X38152893Y-35557973D01*
X38115744Y-35584963D01*
X37888218Y-35798624D01*
X37689266Y-36039116D01*
X37522024Y-36302647D01*
X37520340Y-36306226D01*
X37520336Y-36306233D01*
X37391272Y-36580509D01*
X37389130Y-36585062D01*
X37292680Y-36881905D01*
X37234194Y-37188496D01*
X37214596Y-37500000D01*
X36079158Y-37500000D01*
X36167539Y-37463391D01*
X36278357Y-37378357D01*
X36363391Y-37267539D01*
X36416846Y-37138488D01*
X36419635Y-37117307D01*
X36434000Y-37008188D01*
X36435078Y-37000000D01*
X36416846Y-36861512D01*
X36363391Y-36732461D01*
X36278357Y-36621643D01*
X36167539Y-36536609D01*
X36038488Y-36483154D01*
X35900000Y-36464922D01*
X35761512Y-36483154D01*
X35632461Y-36536609D01*
X35521643Y-36621643D01*
X35436609Y-36732461D01*
X35383154Y-36861512D01*
X35364922Y-37000000D01*
X32789973Y-37000000D01*
X32838027Y-36883988D01*
X32856259Y-36745500D01*
X32841234Y-36631372D01*
X32839105Y-36615200D01*
X32838027Y-36607012D01*
X32784572Y-36477961D01*
X32699538Y-36367143D01*
X32588720Y-36282109D01*
X32459669Y-36228654D01*
X32321181Y-36210422D01*
X32182693Y-36228654D01*
X32053642Y-36282109D01*
X31942824Y-36367143D01*
X31857790Y-36477961D01*
X31804335Y-36607012D01*
X31803257Y-36615200D01*
X31801128Y-36631372D01*
X31786103Y-36745500D01*
X31804335Y-36883988D01*
X31807495Y-36891616D01*
X31807496Y-36891621D01*
X31824508Y-36932690D01*
X31832098Y-37003279D01*
X31800320Y-37066767D01*
X31739262Y-37102995D01*
X31668310Y-37100461D01*
X31659883Y-37097318D01*
X31633319Y-37086315D01*
X31633314Y-37086314D01*
X31625686Y-37083154D01*
X31487198Y-37064922D01*
X31348710Y-37083154D01*
X31219659Y-37136609D01*
X31108841Y-37221643D01*
X31023807Y-37332461D01*
X30970352Y-37461512D01*
X30952120Y-37600000D01*
X400500Y-37600000D01*
X400500Y-32000000D01*
X23964922Y-32000000D01*
X23983154Y-32138488D01*
X24036609Y-32267539D01*
X24121643Y-32378357D01*
X24232461Y-32463391D01*
X24361512Y-32516846D01*
X24500000Y-32535078D01*
X24508188Y-32534000D01*
X24630300Y-32517924D01*
X24638488Y-32516846D01*
X24767539Y-32463391D01*
X24878357Y-32378357D01*
X24900038Y-32350102D01*
X24957376Y-32308235D01*
X25028247Y-32304013D01*
X25090150Y-32338777D01*
X25099962Y-32350102D01*
X25121643Y-32378357D01*
X25232461Y-32463391D01*
X25361512Y-32516846D01*
X25500000Y-32535078D01*
X25508188Y-32534000D01*
X25630300Y-32517924D01*
X25638488Y-32516846D01*
X25767539Y-32463391D01*
X25878357Y-32378357D01*
X25963391Y-32267539D01*
X26016846Y-32138488D01*
X26031853Y-32024500D01*
X27764922Y-32024500D01*
X27783154Y-32162988D01*
X27836609Y-32292039D01*
X27921643Y-32402857D01*
X28032461Y-32487891D01*
X28161512Y-32541346D01*
X28300000Y-32559578D01*
X28308188Y-32558500D01*
X28430300Y-32542424D01*
X28438488Y-32541346D01*
X28567539Y-32487891D01*
X28678357Y-32402857D01*
X28763391Y-32292039D01*
X28816846Y-32162988D01*
X28835078Y-32024500D01*
X28816846Y-31886012D01*
X28763391Y-31756961D01*
X28678357Y-31646143D01*
X28567539Y-31561109D01*
X28438488Y-31507654D01*
X28300000Y-31489422D01*
X28161512Y-31507654D01*
X28032461Y-31561109D01*
X27921643Y-31646143D01*
X27836609Y-31756961D01*
X27783154Y-31886012D01*
X27764922Y-32024500D01*
X26031853Y-32024500D01*
X26035078Y-32000000D01*
X26016846Y-31861512D01*
X25963391Y-31732461D01*
X25878357Y-31621643D01*
X25767539Y-31536609D01*
X25638488Y-31483154D01*
X25500000Y-31464922D01*
X25361512Y-31483154D01*
X25232461Y-31536609D01*
X25121643Y-31621643D01*
X25116617Y-31628193D01*
X25099962Y-31649898D01*
X25042624Y-31691765D01*
X24971753Y-31695987D01*
X24909850Y-31661223D01*
X24900038Y-31649898D01*
X24883383Y-31628193D01*
X24878357Y-31621643D01*
X24767539Y-31536609D01*
X24638488Y-31483154D01*
X24500000Y-31464922D01*
X24361512Y-31483154D01*
X24232461Y-31536609D01*
X24121643Y-31621643D01*
X24036609Y-31732461D01*
X23983154Y-31861512D01*
X23964922Y-32000000D01*
X400500Y-32000000D01*
X400500Y-27769669D01*
X4057001Y-27769669D01*
X4057371Y-27776490D01*
X4062895Y-27827352D01*
X4066521Y-27842604D01*
X4111676Y-27963054D01*
X4120214Y-27978649D01*
X4196715Y-28080724D01*
X4209276Y-28093285D01*
X4311351Y-28169786D01*
X4326950Y-28178326D01*
X4349013Y-28186597D01*
X4405778Y-28229238D01*
X4430317Y-28295364D01*
X4429707Y-28300000D01*
X4448799Y-28445014D01*
X4504772Y-28580146D01*
X4593813Y-28696187D01*
X4600366Y-28701215D01*
X4606203Y-28707052D01*
X4604904Y-28708351D01*
X4640701Y-28757384D01*
X4644918Y-28828255D01*
X4610150Y-28890155D01*
X4601497Y-28897652D01*
X4600359Y-28898790D01*
X4593813Y-28903813D01*
X4504772Y-29019854D01*
X4448799Y-29154986D01*
X4429707Y-29300000D01*
X4448799Y-29445014D01*
X4504772Y-29580146D01*
X4593813Y-29696187D01*
X4600366Y-29701215D01*
X4606203Y-29707052D01*
X4604904Y-29708351D01*
X4640701Y-29757384D01*
X4644918Y-29828255D01*
X4610150Y-29890155D01*
X4601497Y-29897652D01*
X4600359Y-29898790D01*
X4593813Y-29903813D01*
X4504772Y-30019854D01*
X4448799Y-30154986D01*
X4429707Y-30300000D01*
X4448799Y-30445014D01*
X4504772Y-30580146D01*
X4593813Y-30696187D01*
X4600363Y-30701213D01*
X4600366Y-30701216D01*
X4651833Y-30740708D01*
X4709853Y-30785228D01*
X4717483Y-30788388D01*
X4717484Y-30788389D01*
X4837358Y-30838042D01*
X4837362Y-30838043D01*
X4844986Y-30841201D01*
X4853166Y-30842278D01*
X4853170Y-30842279D01*
X4981812Y-30859215D01*
X4990000Y-30860293D01*
X4998188Y-30859215D01*
X5126830Y-30842279D01*
X5126834Y-30842278D01*
X5135014Y-30841201D01*
X5142638Y-30838043D01*
X5142642Y-30838042D01*
X5262516Y-30788389D01*
X5262517Y-30788388D01*
X5270147Y-30785228D01*
X5328167Y-30740707D01*
X5379634Y-30701216D01*
X5379637Y-30701213D01*
X5386187Y-30696187D01*
X5475228Y-30580146D01*
X5531201Y-30445014D01*
X5550293Y-30300000D01*
X5531201Y-30154986D01*
X5475228Y-30019854D01*
X5399447Y-29921094D01*
X5391214Y-29910364D01*
X5391213Y-29910363D01*
X5386187Y-29903813D01*
X5379634Y-29898785D01*
X5373797Y-29892948D01*
X5375097Y-29891648D01*
X5339302Y-29842628D01*
X5335078Y-29771757D01*
X5369841Y-29709853D01*
X5378497Y-29702352D01*
X5379633Y-29701216D01*
X5386187Y-29696187D01*
X5470689Y-29586062D01*
X49944500Y-29586062D01*
X49955509Y-29660852D01*
X49959826Y-29669644D01*
X49959826Y-29669645D01*
X49975885Y-29702352D01*
X50011337Y-29774560D01*
X50100987Y-29864054D01*
X50110343Y-29868627D01*
X50110344Y-29868628D01*
X50151111Y-29888555D01*
X50214793Y-29919683D01*
X50265870Y-29927135D01*
X50284413Y-29929840D01*
X50284415Y-29929840D01*
X50288938Y-29930500D01*
X51611062Y-29930500D01*
X51685852Y-29919491D01*
X51694645Y-29915174D01*
X51790212Y-29868253D01*
X51790214Y-29868252D01*
X51799560Y-29863663D01*
X51889054Y-29774013D01*
X51897183Y-29757384D01*
X51930298Y-29689636D01*
X51944683Y-29660207D01*
X51955500Y-29586062D01*
X51955500Y-28813938D01*
X51944491Y-28739148D01*
X51930108Y-28709853D01*
X51893253Y-28634788D01*
X51893252Y-28634786D01*
X51888663Y-28625440D01*
X51835647Y-28572516D01*
X51806384Y-28543304D01*
X51806383Y-28543304D01*
X51799013Y-28535946D01*
X51789657Y-28531373D01*
X51789656Y-28531372D01*
X51748889Y-28511445D01*
X51685207Y-28480317D01*
X51634130Y-28472865D01*
X51615587Y-28470160D01*
X51615585Y-28470160D01*
X51611062Y-28469500D01*
X50288938Y-28469500D01*
X50214148Y-28480509D01*
X50205356Y-28484826D01*
X50205355Y-28484826D01*
X50109788Y-28531747D01*
X50109786Y-28531748D01*
X50100440Y-28536337D01*
X50093082Y-28543707D01*
X50093083Y-28543707D01*
X50040474Y-28596408D01*
X50010946Y-28625987D01*
X49955317Y-28739793D01*
X49944500Y-28813938D01*
X49944500Y-29586062D01*
X5470689Y-29586062D01*
X5475228Y-29580146D01*
X5531201Y-29445014D01*
X5550293Y-29300000D01*
X5531201Y-29154986D01*
X5475228Y-29019854D01*
X5386187Y-28903813D01*
X5379634Y-28898785D01*
X5373797Y-28892948D01*
X5375097Y-28891648D01*
X5339302Y-28842628D01*
X5336761Y-28800000D01*
X8964922Y-28800000D01*
X8966000Y-28808188D01*
X8978500Y-28903133D01*
X8983154Y-28938488D01*
X9036609Y-29067539D01*
X9121643Y-29178357D01*
X9232461Y-29263391D01*
X9361512Y-29316846D01*
X9500000Y-29335078D01*
X9508188Y-29334000D01*
X9630300Y-29317924D01*
X9638488Y-29316846D01*
X9767539Y-29263391D01*
X9817657Y-29224934D01*
X23054239Y-29224934D01*
X23057022Y-29228652D01*
X23188857Y-29277681D01*
X23202448Y-29281070D01*
X23357044Y-29301697D01*
X23371040Y-29301991D01*
X23526360Y-29287855D01*
X23540085Y-29285038D01*
X23688415Y-29236843D01*
X23697055Y-29232924D01*
X23704463Y-29224934D01*
X24454239Y-29224934D01*
X24457022Y-29228652D01*
X24588857Y-29277681D01*
X24602448Y-29281070D01*
X24757044Y-29301697D01*
X24771040Y-29301991D01*
X24926360Y-29287855D01*
X24940085Y-29285038D01*
X25088415Y-29236843D01*
X25097055Y-29232924D01*
X25105430Y-29223891D01*
X25101925Y-29215478D01*
X24792812Y-28906365D01*
X24778868Y-28898751D01*
X24777035Y-28898882D01*
X24770420Y-28903133D01*
X24460999Y-29212554D01*
X24454239Y-29224934D01*
X23704463Y-29224934D01*
X23705430Y-29223891D01*
X23701925Y-29215478D01*
X23392812Y-28906365D01*
X23378868Y-28898751D01*
X23377035Y-28898882D01*
X23370420Y-28903133D01*
X23060999Y-29212554D01*
X23054239Y-29224934D01*
X9817657Y-29224934D01*
X9878357Y-29178357D01*
X9963391Y-29067539D01*
X10016846Y-28938488D01*
X10021501Y-28903133D01*
X10025797Y-28870500D01*
X29464922Y-28870500D01*
X29483154Y-29008988D01*
X29536609Y-29138039D01*
X29621643Y-29248857D01*
X29732461Y-29333891D01*
X29861512Y-29387346D01*
X30000000Y-29405578D01*
X30008188Y-29404500D01*
X30130300Y-29388424D01*
X30138488Y-29387346D01*
X30267539Y-29333891D01*
X30378357Y-29248857D01*
X30463391Y-29138039D01*
X30516846Y-29008988D01*
X30535078Y-28870500D01*
X30516846Y-28732012D01*
X30463391Y-28602961D01*
X30378357Y-28492143D01*
X30267539Y-28407109D01*
X30138488Y-28353654D01*
X30000000Y-28335422D01*
X29861512Y-28353654D01*
X29732461Y-28407109D01*
X29621643Y-28492143D01*
X29536609Y-28602961D01*
X29483154Y-28732012D01*
X29464922Y-28870500D01*
X10025797Y-28870500D01*
X10034000Y-28808188D01*
X10035078Y-28800000D01*
X10016846Y-28661512D01*
X9963391Y-28532461D01*
X9957615Y-28524934D01*
X22354239Y-28524934D01*
X22357022Y-28528652D01*
X22488857Y-28577681D01*
X22502448Y-28581070D01*
X22524948Y-28584072D01*
X22589825Y-28612907D01*
X22628814Y-28672240D01*
X22631314Y-28684776D01*
X22631720Y-28684690D01*
X22636097Y-28705280D01*
X22685327Y-28853270D01*
X22687729Y-28858468D01*
X22695717Y-28865772D01*
X22704338Y-28862109D01*
X23013635Y-28552812D01*
X23020013Y-28541132D01*
X23738751Y-28541132D01*
X23738882Y-28542965D01*
X23743133Y-28549580D01*
X24052178Y-28858625D01*
X24066123Y-28866240D01*
X24069686Y-28865985D01*
X24092573Y-28867108D01*
X24104338Y-28862109D01*
X24413635Y-28552812D01*
X24420013Y-28541132D01*
X25138751Y-28541132D01*
X25138882Y-28542965D01*
X25143133Y-28549580D01*
X25452178Y-28858625D01*
X25464558Y-28865385D01*
X25468374Y-28862528D01*
X25516330Y-28736284D01*
X25519811Y-28722726D01*
X25523794Y-28694388D01*
X25553082Y-28629714D01*
X25612687Y-28591141D01*
X25623232Y-28588498D01*
X25640078Y-28585040D01*
X25788415Y-28536843D01*
X25797055Y-28532924D01*
X25805430Y-28523891D01*
X25801925Y-28515478D01*
X25492812Y-28206365D01*
X25478868Y-28198751D01*
X25477035Y-28198882D01*
X25470420Y-28203133D01*
X25146365Y-28527188D01*
X25138751Y-28541132D01*
X24420013Y-28541132D01*
X24421249Y-28538868D01*
X24421118Y-28537035D01*
X24416867Y-28530420D01*
X24092812Y-28206365D01*
X24078868Y-28198751D01*
X24077035Y-28198882D01*
X24070420Y-28203133D01*
X23746365Y-28527188D01*
X23738751Y-28541132D01*
X23020013Y-28541132D01*
X23021249Y-28538868D01*
X23021118Y-28537035D01*
X23016867Y-28530420D01*
X22692812Y-28206365D01*
X22678868Y-28198751D01*
X22677035Y-28198882D01*
X22670420Y-28203133D01*
X22360999Y-28512554D01*
X22354239Y-28524934D01*
X9957615Y-28524934D01*
X9878357Y-28421643D01*
X9767539Y-28336609D01*
X9638488Y-28283154D01*
X9500000Y-28264922D01*
X9361512Y-28283154D01*
X9232461Y-28336609D01*
X9121643Y-28421643D01*
X9036609Y-28532461D01*
X8983154Y-28661512D01*
X8964922Y-28800000D01*
X5336761Y-28800000D01*
X5335078Y-28771757D01*
X5369841Y-28709853D01*
X5378497Y-28702352D01*
X5379633Y-28701216D01*
X5386187Y-28696187D01*
X5475228Y-28580146D01*
X5531201Y-28445014D01*
X5550293Y-28300000D01*
X5550550Y-28300034D01*
X5569217Y-28236458D01*
X5622873Y-28189965D01*
X5630987Y-28186597D01*
X5653050Y-28178326D01*
X5668649Y-28169786D01*
X5770724Y-28093285D01*
X5783285Y-28080724D01*
X5859786Y-27978649D01*
X5868324Y-27963054D01*
X5913478Y-27842606D01*
X5914963Y-27836362D01*
X21917966Y-27836362D01*
X21933186Y-27991585D01*
X21936097Y-28005280D01*
X21985327Y-28153270D01*
X21987729Y-28158468D01*
X21995717Y-28165772D01*
X22004338Y-28162109D01*
X22313635Y-27852812D01*
X22320013Y-27841132D01*
X23038751Y-27841132D01*
X23038882Y-27842965D01*
X23043133Y-27849580D01*
X23367188Y-28173635D01*
X23381132Y-28181249D01*
X23382965Y-28181118D01*
X23389580Y-28176867D01*
X23713635Y-27852812D01*
X23720013Y-27841132D01*
X24438751Y-27841132D01*
X24438882Y-27842965D01*
X24443133Y-27849580D01*
X24767188Y-28173635D01*
X24781132Y-28181249D01*
X24782965Y-28181118D01*
X24789580Y-28176867D01*
X25113635Y-27852812D01*
X25120013Y-27841132D01*
X25838751Y-27841132D01*
X25838882Y-27842965D01*
X25843133Y-27849580D01*
X26152178Y-28158625D01*
X26164558Y-28165385D01*
X26168374Y-28162528D01*
X26216331Y-28036283D01*
X26219811Y-28022727D01*
X26241948Y-27865221D01*
X26242554Y-27857338D01*
X26242741Y-27843962D01*
X26242354Y-27836062D01*
X26224625Y-27678003D01*
X26221523Y-27664350D01*
X26170700Y-27518407D01*
X26165141Y-27513467D01*
X26156088Y-27517465D01*
X25846365Y-27827188D01*
X25838751Y-27841132D01*
X25120013Y-27841132D01*
X25121249Y-27838868D01*
X25121118Y-27837035D01*
X25116867Y-27830420D01*
X24792812Y-27506365D01*
X24778868Y-27498751D01*
X24777035Y-27498882D01*
X24770420Y-27503133D01*
X24446365Y-27827188D01*
X24438751Y-27841132D01*
X23720013Y-27841132D01*
X23721249Y-27838868D01*
X23721118Y-27837035D01*
X23716867Y-27830420D01*
X23392812Y-27506365D01*
X23378868Y-27498751D01*
X23377035Y-27498882D01*
X23370420Y-27503133D01*
X23046365Y-27827188D01*
X23038751Y-27841132D01*
X22320013Y-27841132D01*
X22321249Y-27838868D01*
X22321118Y-27837035D01*
X22316867Y-27830420D01*
X22007039Y-27520592D01*
X21994659Y-27513832D01*
X21991037Y-27516543D01*
X21941001Y-27654016D01*
X21937709Y-27667625D01*
X21918162Y-27822356D01*
X21917966Y-27836362D01*
X5914963Y-27836362D01*
X5917105Y-27827351D01*
X5922631Y-27776486D01*
X5923000Y-27769672D01*
X5923000Y-27572115D01*
X5918525Y-27556876D01*
X5917135Y-27555671D01*
X5909452Y-27554000D01*
X4075116Y-27554000D01*
X4059877Y-27558475D01*
X4058672Y-27559865D01*
X4057001Y-27567548D01*
X4057001Y-27769669D01*
X400500Y-27769669D01*
X400500Y-27200000D01*
X8964922Y-27200000D01*
X8983154Y-27338488D01*
X9036609Y-27467539D01*
X9121643Y-27578357D01*
X9232461Y-27663391D01*
X9361512Y-27716846D01*
X9500000Y-27735078D01*
X9508188Y-27734000D01*
X9630300Y-27717924D01*
X9638488Y-27716846D01*
X9767539Y-27663391D01*
X9878357Y-27578357D01*
X9963391Y-27467539D01*
X10016846Y-27338488D01*
X10035078Y-27200000D01*
X10028803Y-27152339D01*
X22352577Y-27152339D01*
X22357684Y-27164131D01*
X22667188Y-27473635D01*
X22681132Y-27481249D01*
X22682965Y-27481118D01*
X22689580Y-27476867D01*
X23013635Y-27152812D01*
X23020013Y-27141132D01*
X23738751Y-27141132D01*
X23738882Y-27142965D01*
X23743133Y-27149580D01*
X24067188Y-27473635D01*
X24081132Y-27481249D01*
X24082965Y-27481118D01*
X24089580Y-27476867D01*
X24413635Y-27152812D01*
X24420013Y-27141132D01*
X25138751Y-27141132D01*
X25138882Y-27142965D01*
X25143133Y-27149580D01*
X25467188Y-27473635D01*
X25481132Y-27481249D01*
X25482965Y-27481118D01*
X25489580Y-27476867D01*
X25726673Y-27239774D01*
X49940603Y-27239774D01*
X49969450Y-27407655D01*
X49972315Y-27414389D01*
X49972316Y-27414391D01*
X50008573Y-27499598D01*
X50036145Y-27564396D01*
X50040484Y-27570292D01*
X50132771Y-27695697D01*
X50132773Y-27695700D01*
X50137109Y-27701591D01*
X50266927Y-27811880D01*
X50418635Y-27889346D01*
X50425740Y-27891085D01*
X50425744Y-27891086D01*
X50504724Y-27910412D01*
X50584094Y-27929833D01*
X50589696Y-27930181D01*
X50589699Y-27930181D01*
X50592906Y-27930380D01*
X50592916Y-27930380D01*
X50594845Y-27930500D01*
X51267655Y-27930500D01*
X51357180Y-27920062D01*
X51386923Y-27916595D01*
X51386924Y-27916595D01*
X51394195Y-27915747D01*
X51401072Y-27913251D01*
X51401075Y-27913250D01*
X51547436Y-27860123D01*
X51554315Y-27857626D01*
X51696769Y-27764229D01*
X51813916Y-27640566D01*
X51899473Y-27493269D01*
X51903114Y-27481249D01*
X51946727Y-27337247D01*
X51948849Y-27330241D01*
X51959397Y-27160226D01*
X51958097Y-27152656D01*
X51941124Y-27053883D01*
X51930550Y-26992345D01*
X51927684Y-26985609D01*
X51866722Y-26842341D01*
X51866721Y-26842339D01*
X51863855Y-26835604D01*
X51838079Y-26800578D01*
X51767229Y-26704303D01*
X51767227Y-26704300D01*
X51762891Y-26698409D01*
X51633073Y-26588120D01*
X51481365Y-26510654D01*
X51474260Y-26508915D01*
X51474256Y-26508914D01*
X51383676Y-26486750D01*
X51315906Y-26470167D01*
X51310304Y-26469819D01*
X51310301Y-26469819D01*
X51307094Y-26469620D01*
X51307084Y-26469620D01*
X51305155Y-26469500D01*
X50632345Y-26469500D01*
X50542820Y-26479938D01*
X50513077Y-26483405D01*
X50513076Y-26483405D01*
X50505805Y-26484253D01*
X50498928Y-26486749D01*
X50498925Y-26486750D01*
X50371402Y-26533039D01*
X50345685Y-26542374D01*
X50203231Y-26635771D01*
X50086084Y-26759434D01*
X50000527Y-26906731D01*
X49998406Y-26913735D01*
X49998404Y-26913739D01*
X49992734Y-26932461D01*
X49951151Y-27069759D01*
X49940603Y-27239774D01*
X25726673Y-27239774D01*
X25799847Y-27166600D01*
X25807461Y-27152656D01*
X25806811Y-27143567D01*
X25807575Y-27129039D01*
X25801925Y-27115478D01*
X25492812Y-26806365D01*
X25478868Y-26798751D01*
X25477035Y-26798882D01*
X25470420Y-26803133D01*
X25146365Y-27127188D01*
X25138751Y-27141132D01*
X24420013Y-27141132D01*
X24421249Y-27138868D01*
X24421118Y-27137035D01*
X24416867Y-27130420D01*
X24092812Y-26806365D01*
X24078868Y-26798751D01*
X24077035Y-26798882D01*
X24070420Y-26803133D01*
X23746365Y-27127188D01*
X23738751Y-27141132D01*
X23020013Y-27141132D01*
X23021249Y-27138868D01*
X23021118Y-27137035D01*
X23016867Y-27130420D01*
X22692812Y-26806365D01*
X22678868Y-26798751D01*
X22677035Y-26798882D01*
X22670420Y-26803133D01*
X22360999Y-27112554D01*
X22353385Y-27126498D01*
X22353611Y-27129663D01*
X22352577Y-27152339D01*
X10028803Y-27152339D01*
X10016846Y-27061512D01*
X9963391Y-26932461D01*
X9878357Y-26821643D01*
X9767539Y-26736609D01*
X9638488Y-26683154D01*
X9500000Y-26664922D01*
X9361512Y-26683154D01*
X9232461Y-26736609D01*
X9121643Y-26821643D01*
X9036609Y-26932461D01*
X8983154Y-27061512D01*
X8964922Y-27200000D01*
X400500Y-27200000D01*
X400500Y-27027885D01*
X4057000Y-27027885D01*
X4061475Y-27043124D01*
X4062865Y-27044329D01*
X4070548Y-27046000D01*
X4717885Y-27046000D01*
X4733124Y-27041525D01*
X4734329Y-27040135D01*
X4736000Y-27032452D01*
X4736000Y-27027885D01*
X5244000Y-27027885D01*
X5248475Y-27043124D01*
X5249865Y-27044329D01*
X5257548Y-27046000D01*
X5904884Y-27046000D01*
X5920123Y-27041525D01*
X5921328Y-27040135D01*
X5922999Y-27032452D01*
X5922999Y-26830331D01*
X5922629Y-26823510D01*
X5917105Y-26772648D01*
X5913479Y-26757396D01*
X5868324Y-26636946D01*
X5859786Y-26621351D01*
X5783285Y-26519276D01*
X5770724Y-26506715D01*
X5676852Y-26436362D01*
X21917966Y-26436362D01*
X21933186Y-26591585D01*
X21936097Y-26605280D01*
X21985327Y-26753270D01*
X21987729Y-26758468D01*
X21995717Y-26765772D01*
X22004338Y-26762109D01*
X22313635Y-26452812D01*
X22320013Y-26441132D01*
X23038751Y-26441132D01*
X23038882Y-26442965D01*
X23043133Y-26449580D01*
X23367188Y-26773635D01*
X23381132Y-26781249D01*
X23382965Y-26781118D01*
X23389580Y-26776867D01*
X23713635Y-26452812D01*
X23720013Y-26441132D01*
X24438751Y-26441132D01*
X24438882Y-26442965D01*
X24443133Y-26449580D01*
X24767188Y-26773635D01*
X24781132Y-26781249D01*
X24782965Y-26781118D01*
X24789580Y-26776867D01*
X25113635Y-26452812D01*
X25120013Y-26441132D01*
X25838751Y-26441132D01*
X25838882Y-26442965D01*
X25843133Y-26449580D01*
X26152178Y-26758625D01*
X26164558Y-26765385D01*
X26168374Y-26762528D01*
X26216331Y-26636283D01*
X26219811Y-26622727D01*
X26241948Y-26465221D01*
X26242554Y-26457338D01*
X26242741Y-26443962D01*
X26242354Y-26436062D01*
X26224625Y-26278003D01*
X26221784Y-26265500D01*
X27764922Y-26265500D01*
X27766000Y-26273688D01*
X27778285Y-26367000D01*
X27783154Y-26403988D01*
X27836609Y-26533039D01*
X27921643Y-26643857D01*
X28032461Y-26728891D01*
X28161512Y-26782346D01*
X28300000Y-26800578D01*
X28308188Y-26799500D01*
X28312883Y-26798882D01*
X28438488Y-26782346D01*
X28567539Y-26728891D01*
X28678357Y-26643857D01*
X28763391Y-26533039D01*
X28816846Y-26403988D01*
X28827082Y-26326234D01*
X28855804Y-26261308D01*
X28915069Y-26222216D01*
X28968448Y-26217759D01*
X29100000Y-26235078D01*
X29108188Y-26234000D01*
X29230300Y-26217924D01*
X29238488Y-26216846D01*
X29367539Y-26163391D01*
X29478357Y-26078357D01*
X29563391Y-25967539D01*
X29616846Y-25838488D01*
X29635078Y-25700000D01*
X29616846Y-25561512D01*
X29563391Y-25432461D01*
X29478357Y-25321643D01*
X29367539Y-25236609D01*
X29238488Y-25183154D01*
X29215496Y-25180127D01*
X29108188Y-25166000D01*
X29100000Y-25164922D01*
X29091812Y-25166000D01*
X28984505Y-25180127D01*
X28961512Y-25183154D01*
X28832461Y-25236609D01*
X28721643Y-25321643D01*
X28636609Y-25432461D01*
X28583154Y-25561512D01*
X28582076Y-25569700D01*
X28572918Y-25639265D01*
X28544196Y-25704192D01*
X28484931Y-25743284D01*
X28431552Y-25747741D01*
X28300000Y-25730422D01*
X28235845Y-25738868D01*
X28170035Y-25747532D01*
X28161512Y-25748654D01*
X28032461Y-25802109D01*
X27921643Y-25887143D01*
X27836609Y-25997961D01*
X27806021Y-26071807D01*
X27787109Y-26117465D01*
X27783154Y-26127012D01*
X27764922Y-26265500D01*
X26221784Y-26265500D01*
X26221523Y-26264350D01*
X26170700Y-26118407D01*
X26165141Y-26113467D01*
X26156088Y-26117465D01*
X25846365Y-26427188D01*
X25838751Y-26441132D01*
X25120013Y-26441132D01*
X25121249Y-26438868D01*
X25121118Y-26437035D01*
X25116867Y-26430420D01*
X24792812Y-26106365D01*
X24778868Y-26098751D01*
X24777035Y-26098882D01*
X24770420Y-26103133D01*
X24446365Y-26427188D01*
X24438751Y-26441132D01*
X23720013Y-26441132D01*
X23721249Y-26438868D01*
X23721118Y-26437035D01*
X23716867Y-26430420D01*
X23392812Y-26106365D01*
X23378868Y-26098751D01*
X23377035Y-26098882D01*
X23370420Y-26103133D01*
X23046365Y-26427188D01*
X23038751Y-26441132D01*
X22320013Y-26441132D01*
X22321249Y-26438868D01*
X22321118Y-26437035D01*
X22316867Y-26430420D01*
X22007039Y-26120592D01*
X21994659Y-26113832D01*
X21991037Y-26116543D01*
X21941001Y-26254016D01*
X21937709Y-26267625D01*
X21918162Y-26422356D01*
X21917966Y-26436362D01*
X5676852Y-26436362D01*
X5668649Y-26430214D01*
X5653054Y-26421676D01*
X5532606Y-26376522D01*
X5517351Y-26372895D01*
X5466486Y-26367369D01*
X5459672Y-26367000D01*
X5262115Y-26367000D01*
X5246876Y-26371475D01*
X5245671Y-26372865D01*
X5244000Y-26380548D01*
X5244000Y-27027885D01*
X4736000Y-27027885D01*
X4736000Y-26385116D01*
X4731525Y-26369877D01*
X4730135Y-26368672D01*
X4722452Y-26367001D01*
X4520331Y-26367001D01*
X4513510Y-26367371D01*
X4462648Y-26372895D01*
X4447396Y-26376521D01*
X4326946Y-26421676D01*
X4311351Y-26430214D01*
X4209276Y-26506715D01*
X4196715Y-26519276D01*
X4120214Y-26621351D01*
X4111676Y-26636946D01*
X4066522Y-26757394D01*
X4062895Y-26772649D01*
X4057369Y-26823514D01*
X4057000Y-26830328D01*
X4057000Y-27027885D01*
X400500Y-27027885D01*
X400500Y-25733011D01*
X19331911Y-25733011D01*
X19350143Y-25871499D01*
X19403598Y-26000550D01*
X19488632Y-26111368D01*
X19599450Y-26196402D01*
X19728501Y-26249857D01*
X19866989Y-26268089D01*
X19875177Y-26267011D01*
X19886655Y-26265500D01*
X20005477Y-26249857D01*
X20134528Y-26196402D01*
X20245346Y-26111368D01*
X20330380Y-26000550D01*
X20383835Y-25871499D01*
X20399132Y-25755302D01*
X22353860Y-25755302D01*
X22357684Y-25764131D01*
X22667188Y-26073635D01*
X22681132Y-26081249D01*
X22682965Y-26081118D01*
X22689580Y-26076867D01*
X23013635Y-25752812D01*
X23020013Y-25741132D01*
X23738751Y-25741132D01*
X23738882Y-25742965D01*
X23743133Y-25749580D01*
X24067188Y-26073635D01*
X24081132Y-26081249D01*
X24082965Y-26081118D01*
X24089580Y-26076867D01*
X24413635Y-25752812D01*
X24420013Y-25741132D01*
X25138751Y-25741132D01*
X25138882Y-25742965D01*
X25143133Y-25749580D01*
X25467188Y-26073635D01*
X25481132Y-26081249D01*
X25482965Y-26081118D01*
X25489580Y-26076867D01*
X25799847Y-25766600D01*
X25806607Y-25754220D01*
X25804022Y-25750766D01*
X25803722Y-25750606D01*
X25660826Y-25699723D01*
X25647179Y-25696522D01*
X25635601Y-25695141D01*
X25570328Y-25667214D01*
X25530516Y-25608430D01*
X25525306Y-25584074D01*
X25524625Y-25578002D01*
X25521523Y-25564350D01*
X25470700Y-25418407D01*
X25465141Y-25413467D01*
X25456088Y-25417465D01*
X25146365Y-25727188D01*
X25138751Y-25741132D01*
X24420013Y-25741132D01*
X24421249Y-25738868D01*
X24421118Y-25737035D01*
X24416867Y-25730420D01*
X24107039Y-25420592D01*
X24093094Y-25412977D01*
X24090342Y-25413174D01*
X24067935Y-25412233D01*
X24056088Y-25417465D01*
X23746365Y-25727188D01*
X23738751Y-25741132D01*
X23020013Y-25741132D01*
X23021249Y-25738868D01*
X23021118Y-25737035D01*
X23016867Y-25730420D01*
X22707039Y-25420592D01*
X22694659Y-25413832D01*
X22691037Y-25416543D01*
X22641001Y-25554016D01*
X22637709Y-25567624D01*
X22635553Y-25584691D01*
X22607171Y-25649767D01*
X22548111Y-25689168D01*
X22523718Y-25694208D01*
X22523206Y-25694262D01*
X22509533Y-25697268D01*
X22361884Y-25747532D01*
X22360113Y-25748366D01*
X22353860Y-25755302D01*
X20399132Y-25755302D01*
X20402067Y-25733011D01*
X20383835Y-25594523D01*
X20330380Y-25465472D01*
X20245346Y-25354654D01*
X20134528Y-25269620D01*
X20005477Y-25216165D01*
X19866989Y-25197933D01*
X19728501Y-25216165D01*
X19599450Y-25269620D01*
X19488632Y-25354654D01*
X19403598Y-25465472D01*
X19350143Y-25594523D01*
X19331911Y-25733011D01*
X400500Y-25733011D01*
X400500Y-25180127D01*
X17984795Y-25180127D01*
X18003027Y-25318615D01*
X18056482Y-25447666D01*
X18141516Y-25558484D01*
X18252334Y-25643518D01*
X18381385Y-25696973D01*
X18389573Y-25698051D01*
X18436220Y-25704192D01*
X18519873Y-25715205D01*
X18528061Y-25714127D01*
X18650173Y-25698051D01*
X18658361Y-25696973D01*
X18787412Y-25643518D01*
X18898230Y-25558484D01*
X18983264Y-25447666D01*
X19036719Y-25318615D01*
X19054951Y-25180127D01*
X19038518Y-25055302D01*
X23053860Y-25055302D01*
X23057684Y-25064131D01*
X23367188Y-25373635D01*
X23381132Y-25381249D01*
X23382965Y-25381118D01*
X23389580Y-25376867D01*
X23699847Y-25066600D01*
X23706016Y-25055302D01*
X24453860Y-25055302D01*
X24457684Y-25064131D01*
X24767188Y-25373635D01*
X24781132Y-25381249D01*
X24782965Y-25381118D01*
X24789580Y-25376867D01*
X25099847Y-25066600D01*
X25106607Y-25054220D01*
X25104022Y-25050766D01*
X25103722Y-25050606D01*
X24960820Y-24999720D01*
X24947195Y-24996524D01*
X24792318Y-24978057D01*
X24778321Y-24977959D01*
X24623207Y-24994262D01*
X24609533Y-24997268D01*
X24461884Y-25047532D01*
X24460113Y-25048366D01*
X24453860Y-25055302D01*
X23706016Y-25055302D01*
X23706607Y-25054220D01*
X23704022Y-25050766D01*
X23703722Y-25050606D01*
X23560820Y-24999720D01*
X23547195Y-24996524D01*
X23392318Y-24978057D01*
X23378321Y-24977959D01*
X23223207Y-24994262D01*
X23209533Y-24997268D01*
X23061884Y-25047532D01*
X23060113Y-25048366D01*
X23053860Y-25055302D01*
X19038518Y-25055302D01*
X19036719Y-25041639D01*
X18983264Y-24912588D01*
X18898230Y-24801770D01*
X18787412Y-24716736D01*
X18658361Y-24663281D01*
X18519873Y-24645049D01*
X18381385Y-24663281D01*
X18252334Y-24716736D01*
X18141516Y-24801770D01*
X18056482Y-24912588D01*
X18003027Y-25041639D01*
X17984795Y-25180127D01*
X400500Y-25180127D01*
X400500Y-22000000D01*
X25489422Y-22000000D01*
X25507654Y-22138488D01*
X25561109Y-22267539D01*
X25646143Y-22378357D01*
X25756961Y-22463391D01*
X25886012Y-22516846D01*
X26024500Y-22535078D01*
X26032688Y-22534000D01*
X26154800Y-22517924D01*
X26162988Y-22516846D01*
X26292039Y-22463391D01*
X26402857Y-22378357D01*
X26487891Y-22267539D01*
X26541346Y-22138488D01*
X26559578Y-22000000D01*
X26541346Y-21861512D01*
X26487891Y-21732461D01*
X26402857Y-21621643D01*
X26292039Y-21536609D01*
X26162988Y-21483154D01*
X26024500Y-21464922D01*
X25886012Y-21483154D01*
X25756961Y-21536609D01*
X25646143Y-21621643D01*
X25561109Y-21732461D01*
X25507654Y-21861512D01*
X25489422Y-22000000D01*
X400500Y-22000000D01*
X400500Y-20886062D01*
X49944500Y-20886062D01*
X49955509Y-20960852D01*
X50011337Y-21074560D01*
X50100987Y-21164054D01*
X50110343Y-21168627D01*
X50110344Y-21168628D01*
X50151111Y-21188555D01*
X50214793Y-21219683D01*
X50265870Y-21227135D01*
X50284413Y-21229840D01*
X50284415Y-21229840D01*
X50288938Y-21230500D01*
X51611062Y-21230500D01*
X51685852Y-21219491D01*
X51789448Y-21168628D01*
X51790212Y-21168253D01*
X51790214Y-21168252D01*
X51799560Y-21163663D01*
X51889054Y-21074013D01*
X51944683Y-20960207D01*
X51955500Y-20886062D01*
X51955500Y-20113938D01*
X51944491Y-20039148D01*
X51888663Y-19925440D01*
X51799013Y-19835946D01*
X51789657Y-19831373D01*
X51789656Y-19831372D01*
X51748889Y-19811445D01*
X51685207Y-19780317D01*
X51634130Y-19772865D01*
X51615587Y-19770160D01*
X51615585Y-19770160D01*
X51611062Y-19769500D01*
X50288938Y-19769500D01*
X50214148Y-19780509D01*
X50205356Y-19784826D01*
X50205355Y-19784826D01*
X50109788Y-19831747D01*
X50109786Y-19831748D01*
X50100440Y-19836337D01*
X50010946Y-19925987D01*
X49955317Y-20039793D01*
X49944500Y-20113938D01*
X49944500Y-20886062D01*
X400500Y-20886062D01*
X400500Y-19140000D01*
X10834922Y-19140000D01*
X10853154Y-19278488D01*
X10906609Y-19407539D01*
X10991643Y-19518357D01*
X11102461Y-19603391D01*
X11231512Y-19656846D01*
X11370000Y-19675078D01*
X11378188Y-19674000D01*
X11500300Y-19657924D01*
X11508488Y-19656846D01*
X11637539Y-19603391D01*
X11748357Y-19518357D01*
X11833391Y-19407539D01*
X11886846Y-19278488D01*
X11905078Y-19140000D01*
X11886846Y-19001512D01*
X11833391Y-18872461D01*
X11831503Y-18870000D01*
X19194922Y-18870000D01*
X19213154Y-19008488D01*
X19266609Y-19137539D01*
X19351643Y-19248357D01*
X19462461Y-19333391D01*
X19591512Y-19386846D01*
X19730000Y-19405078D01*
X19738188Y-19404000D01*
X19860300Y-19387924D01*
X19868488Y-19386846D01*
X19997539Y-19333391D01*
X20108357Y-19248357D01*
X20193391Y-19137539D01*
X20246846Y-19008488D01*
X20265078Y-18870000D01*
X20246846Y-18731512D01*
X20193391Y-18602461D01*
X20191503Y-18600000D01*
X34364922Y-18600000D01*
X34383154Y-18738488D01*
X34436609Y-18867539D01*
X34521643Y-18978357D01*
X34632461Y-19063391D01*
X34761512Y-19116846D01*
X34900000Y-19135078D01*
X34908188Y-19134000D01*
X35030300Y-19117924D01*
X35038488Y-19116846D01*
X35167539Y-19063391D01*
X35278357Y-18978357D01*
X35363391Y-18867539D01*
X35416846Y-18738488D01*
X35435078Y-18600000D01*
X35427149Y-18539774D01*
X49940603Y-18539774D01*
X49969450Y-18707655D01*
X49972315Y-18714389D01*
X49972316Y-18714391D01*
X50008573Y-18799598D01*
X50036145Y-18864396D01*
X50040484Y-18870292D01*
X50132771Y-18995697D01*
X50132773Y-18995700D01*
X50137109Y-19001591D01*
X50266927Y-19111880D01*
X50418635Y-19189346D01*
X50425740Y-19191085D01*
X50425744Y-19191086D01*
X50504724Y-19210412D01*
X50584094Y-19229833D01*
X50589696Y-19230181D01*
X50589699Y-19230181D01*
X50592906Y-19230380D01*
X50592916Y-19230380D01*
X50594845Y-19230500D01*
X51267655Y-19230500D01*
X51357180Y-19220062D01*
X51386923Y-19216595D01*
X51386924Y-19216595D01*
X51394195Y-19215747D01*
X51401072Y-19213251D01*
X51401075Y-19213250D01*
X51547436Y-19160123D01*
X51554315Y-19157626D01*
X51696769Y-19064229D01*
X51813916Y-18940566D01*
X51899473Y-18793269D01*
X51915698Y-18739700D01*
X51946727Y-18637247D01*
X51948849Y-18630241D01*
X51959397Y-18460226D01*
X51930550Y-18292345D01*
X51898327Y-18216617D01*
X51866722Y-18142341D01*
X51866721Y-18142339D01*
X51863855Y-18135604D01*
X51824463Y-18082076D01*
X51767229Y-18004303D01*
X51767227Y-18004300D01*
X51762891Y-17998409D01*
X51633073Y-17888120D01*
X51481365Y-17810654D01*
X51474260Y-17808915D01*
X51474256Y-17808914D01*
X51383676Y-17786750D01*
X51315906Y-17770167D01*
X51310304Y-17769819D01*
X51310301Y-17769819D01*
X51307094Y-17769620D01*
X51307084Y-17769620D01*
X51305155Y-17769500D01*
X50632345Y-17769500D01*
X50542820Y-17779938D01*
X50513077Y-17783405D01*
X50513076Y-17783405D01*
X50505805Y-17784253D01*
X50498928Y-17786749D01*
X50498925Y-17786750D01*
X50423903Y-17813982D01*
X50345685Y-17842374D01*
X50203231Y-17935771D01*
X50086084Y-18059434D01*
X50000527Y-18206731D01*
X49998406Y-18213735D01*
X49998404Y-18213739D01*
X49976637Y-18285609D01*
X49951151Y-18369759D01*
X49940603Y-18539774D01*
X35427149Y-18539774D01*
X35416846Y-18461512D01*
X35363391Y-18332461D01*
X35278357Y-18221643D01*
X35167539Y-18136609D01*
X35038488Y-18083154D01*
X34900000Y-18064922D01*
X34761512Y-18083154D01*
X34632461Y-18136609D01*
X34521643Y-18221643D01*
X34436609Y-18332461D01*
X34383154Y-18461512D01*
X34364922Y-18600000D01*
X20191503Y-18600000D01*
X20108357Y-18491643D01*
X19997539Y-18406609D01*
X19868488Y-18353154D01*
X19730000Y-18334922D01*
X19591512Y-18353154D01*
X19462461Y-18406609D01*
X19351643Y-18491643D01*
X19266609Y-18602461D01*
X19213154Y-18731512D01*
X19194922Y-18870000D01*
X11831503Y-18870000D01*
X11748357Y-18761643D01*
X11637539Y-18676609D01*
X11508488Y-18623154D01*
X11370000Y-18604922D01*
X11231512Y-18623154D01*
X11102461Y-18676609D01*
X10991643Y-18761643D01*
X10906609Y-18872461D01*
X10853154Y-19001512D01*
X10834922Y-19140000D01*
X400500Y-19140000D01*
X400500Y-16700000D01*
X29964922Y-16700000D01*
X29983154Y-16838488D01*
X30036609Y-16967539D01*
X30121643Y-17078357D01*
X30232461Y-17163391D01*
X30361512Y-17216846D01*
X30500000Y-17235078D01*
X30508188Y-17234000D01*
X30630300Y-17217924D01*
X30638488Y-17216846D01*
X30767539Y-17163391D01*
X30878357Y-17078357D01*
X30963391Y-16967539D01*
X31016846Y-16838488D01*
X31035078Y-16700000D01*
X31034000Y-16691809D01*
X31032549Y-16680786D01*
X31043489Y-16610638D01*
X31090618Y-16557540D01*
X31158972Y-16538351D01*
X31220475Y-16555225D01*
X31225904Y-16558359D01*
X31232461Y-16563391D01*
X31361512Y-16616846D01*
X31500000Y-16635078D01*
X31508188Y-16634000D01*
X31630300Y-16617924D01*
X31638488Y-16616846D01*
X31767539Y-16563391D01*
X31878357Y-16478357D01*
X31963391Y-16367539D01*
X32016846Y-16238488D01*
X32035078Y-16100000D01*
X32016846Y-15961512D01*
X31963391Y-15832461D01*
X31878357Y-15721643D01*
X31767539Y-15636609D01*
X31638488Y-15583154D01*
X31500000Y-15564922D01*
X31361512Y-15583154D01*
X31232461Y-15636609D01*
X31121643Y-15721643D01*
X31036609Y-15832461D01*
X30983154Y-15961512D01*
X30964922Y-16100000D01*
X30966000Y-16108188D01*
X30966000Y-16108191D01*
X30967451Y-16119214D01*
X30956511Y-16189362D01*
X30909382Y-16242460D01*
X30841028Y-16261649D01*
X30779525Y-16244775D01*
X30774096Y-16241641D01*
X30767539Y-16236609D01*
X30638488Y-16183154D01*
X30500000Y-16164922D01*
X30361512Y-16183154D01*
X30232461Y-16236609D01*
X30121643Y-16321643D01*
X30036609Y-16432461D01*
X29983154Y-16561512D01*
X29964922Y-16700000D01*
X400500Y-16700000D01*
X400500Y-14804934D01*
X28674239Y-14804934D01*
X28677022Y-14808652D01*
X28808857Y-14857681D01*
X28822448Y-14861070D01*
X28977044Y-14881697D01*
X28991040Y-14881991D01*
X29146360Y-14867855D01*
X29160085Y-14865038D01*
X29308415Y-14816843D01*
X29317055Y-14812924D01*
X29324463Y-14804934D01*
X29974239Y-14804934D01*
X29977022Y-14808652D01*
X30108857Y-14857681D01*
X30122448Y-14861070D01*
X30277044Y-14881697D01*
X30291040Y-14881991D01*
X30446360Y-14867855D01*
X30460085Y-14865038D01*
X30608415Y-14816843D01*
X30617055Y-14812924D01*
X30624463Y-14804934D01*
X31274239Y-14804934D01*
X31277022Y-14808652D01*
X31408857Y-14857681D01*
X31422448Y-14861070D01*
X31577044Y-14881697D01*
X31591040Y-14881991D01*
X31746360Y-14867855D01*
X31760085Y-14865038D01*
X31908415Y-14816843D01*
X31917055Y-14812924D01*
X31925430Y-14803891D01*
X31921925Y-14795478D01*
X31612812Y-14486365D01*
X31598868Y-14478751D01*
X31597035Y-14478882D01*
X31590420Y-14483133D01*
X31280999Y-14792554D01*
X31274239Y-14804934D01*
X30624463Y-14804934D01*
X30625430Y-14803891D01*
X30621925Y-14795478D01*
X30312812Y-14486365D01*
X30298868Y-14478751D01*
X30297035Y-14478882D01*
X30290420Y-14483133D01*
X29980999Y-14792554D01*
X29974239Y-14804934D01*
X29324463Y-14804934D01*
X29325430Y-14803891D01*
X29321925Y-14795478D01*
X29012812Y-14486365D01*
X28998868Y-14478751D01*
X28997035Y-14478882D01*
X28990420Y-14483133D01*
X28680999Y-14792554D01*
X28674239Y-14804934D01*
X400500Y-14804934D01*
X400500Y-11997095D01*
X5667001Y-11997095D01*
X5667338Y-12003614D01*
X5677257Y-12099206D01*
X5680149Y-12112600D01*
X5731588Y-12266784D01*
X5737761Y-12279962D01*
X5823063Y-12417807D01*
X5832099Y-12429208D01*
X5946829Y-12543739D01*
X5958240Y-12552751D01*
X6096243Y-12637816D01*
X6109424Y-12643963D01*
X6263710Y-12695138D01*
X6277086Y-12698005D01*
X6371438Y-12707672D01*
X6377854Y-12708000D01*
X6382595Y-12708000D01*
X6450716Y-12728002D01*
X6497209Y-12781658D01*
X6507313Y-12851932D01*
X6477819Y-12916512D01*
X6445296Y-12941781D01*
X6445685Y-12942374D01*
X6303231Y-13035771D01*
X6186084Y-13159434D01*
X6100527Y-13306731D01*
X6051151Y-13469759D01*
X6040603Y-13639774D01*
X6069450Y-13807655D01*
X6072315Y-13814389D01*
X6072316Y-13814391D01*
X6129009Y-13947625D01*
X6136145Y-13964396D01*
X6140484Y-13970292D01*
X6232771Y-14095697D01*
X6232773Y-14095700D01*
X6237109Y-14101591D01*
X6366927Y-14211880D01*
X6518635Y-14289346D01*
X6525740Y-14291085D01*
X6525744Y-14291086D01*
X6573319Y-14302727D01*
X6684094Y-14329833D01*
X6689696Y-14330181D01*
X6689699Y-14330181D01*
X6692906Y-14330380D01*
X6692916Y-14330380D01*
X6694845Y-14330500D01*
X7367655Y-14330500D01*
X7457180Y-14320062D01*
X7486923Y-14316595D01*
X7486924Y-14316595D01*
X7494195Y-14315747D01*
X7501072Y-14313251D01*
X7501075Y-14313250D01*
X7647436Y-14260123D01*
X7654315Y-14257626D01*
X7796769Y-14164229D01*
X7842114Y-14116362D01*
X28237966Y-14116362D01*
X28253186Y-14271585D01*
X28256097Y-14285280D01*
X28305327Y-14433270D01*
X28307729Y-14438468D01*
X28315717Y-14445772D01*
X28324338Y-14442109D01*
X28633635Y-14132812D01*
X28640013Y-14121132D01*
X29358751Y-14121132D01*
X29358882Y-14122965D01*
X29363133Y-14129580D01*
X29637188Y-14403635D01*
X29651132Y-14411249D01*
X29652965Y-14411118D01*
X29659580Y-14406867D01*
X29933635Y-14132812D01*
X29940013Y-14121132D01*
X30658751Y-14121132D01*
X30658882Y-14122965D01*
X30663133Y-14129580D01*
X30937188Y-14403635D01*
X30951132Y-14411249D01*
X30952965Y-14411118D01*
X30959580Y-14406867D01*
X31233635Y-14132812D01*
X31240013Y-14121132D01*
X31958751Y-14121132D01*
X31958882Y-14122965D01*
X31963133Y-14129580D01*
X32272178Y-14438625D01*
X32284558Y-14445385D01*
X32288374Y-14442528D01*
X32336331Y-14316283D01*
X32339811Y-14302727D01*
X32361948Y-14145221D01*
X32362554Y-14137338D01*
X32362741Y-14123962D01*
X32362354Y-14116062D01*
X32344625Y-13958003D01*
X32341523Y-13944350D01*
X32290700Y-13798407D01*
X32285141Y-13793467D01*
X32276088Y-13797465D01*
X31966365Y-14107188D01*
X31958751Y-14121132D01*
X31240013Y-14121132D01*
X31241249Y-14118868D01*
X31241118Y-14117035D01*
X31236867Y-14110420D01*
X30962812Y-13836365D01*
X30948868Y-13828751D01*
X30947035Y-13828882D01*
X30940420Y-13833133D01*
X30666365Y-14107188D01*
X30658751Y-14121132D01*
X29940013Y-14121132D01*
X29941249Y-14118868D01*
X29941118Y-14117035D01*
X29936867Y-14110420D01*
X29662812Y-13836365D01*
X29648868Y-13828751D01*
X29647035Y-13828882D01*
X29640420Y-13833133D01*
X29366365Y-14107188D01*
X29358751Y-14121132D01*
X28640013Y-14121132D01*
X28641249Y-14118868D01*
X28641118Y-14117035D01*
X28636867Y-14110420D01*
X28327039Y-13800592D01*
X28314659Y-13793832D01*
X28311037Y-13796543D01*
X28261001Y-13934016D01*
X28257709Y-13947625D01*
X28238162Y-14102356D01*
X28237966Y-14116362D01*
X7842114Y-14116362D01*
X7913916Y-14040566D01*
X7999473Y-13893269D01*
X8016708Y-13836365D01*
X8046727Y-13737247D01*
X8048849Y-13730241D01*
X8059397Y-13560226D01*
X8044088Y-13471132D01*
X28708751Y-13471132D01*
X28708882Y-13472965D01*
X28713133Y-13479580D01*
X28987188Y-13753635D01*
X29001132Y-13761249D01*
X29002965Y-13761118D01*
X29009580Y-13756867D01*
X29283635Y-13482812D01*
X29290013Y-13471132D01*
X30008751Y-13471132D01*
X30008882Y-13472965D01*
X30013133Y-13479580D01*
X30287188Y-13753635D01*
X30301132Y-13761249D01*
X30302965Y-13761118D01*
X30309580Y-13756867D01*
X30583635Y-13482812D01*
X30590013Y-13471132D01*
X31308751Y-13471132D01*
X31308882Y-13472965D01*
X31313133Y-13479580D01*
X31587188Y-13753635D01*
X31601132Y-13761249D01*
X31602965Y-13761118D01*
X31609580Y-13756867D01*
X31883635Y-13482812D01*
X31891249Y-13468868D01*
X31891118Y-13467035D01*
X31886867Y-13460420D01*
X31612812Y-13186365D01*
X31598868Y-13178751D01*
X31597035Y-13178882D01*
X31590420Y-13183133D01*
X31316365Y-13457188D01*
X31308751Y-13471132D01*
X30590013Y-13471132D01*
X30591249Y-13468868D01*
X30591118Y-13467035D01*
X30586867Y-13460420D01*
X30312812Y-13186365D01*
X30298868Y-13178751D01*
X30297035Y-13178882D01*
X30290420Y-13183133D01*
X30016365Y-13457188D01*
X30008751Y-13471132D01*
X29290013Y-13471132D01*
X29291249Y-13468868D01*
X29291118Y-13467035D01*
X29286867Y-13460420D01*
X29012812Y-13186365D01*
X28998868Y-13178751D01*
X28997035Y-13178882D01*
X28990420Y-13183133D01*
X28716365Y-13457188D01*
X28708751Y-13471132D01*
X8044088Y-13471132D01*
X8030550Y-13392345D01*
X8027684Y-13385609D01*
X7966722Y-13242341D01*
X7966721Y-13242339D01*
X7963855Y-13235604D01*
X7925241Y-13183133D01*
X7867229Y-13104303D01*
X7867227Y-13104300D01*
X7862891Y-13098409D01*
X7733073Y-12988120D01*
X7651009Y-12946216D01*
X7599436Y-12897423D01*
X7582430Y-12828493D01*
X7605390Y-12761311D01*
X7661026Y-12717208D01*
X7708310Y-12707999D01*
X7722095Y-12707999D01*
X7728614Y-12707662D01*
X7824206Y-12697743D01*
X7837600Y-12694851D01*
X7991784Y-12643412D01*
X8004962Y-12637239D01*
X8065139Y-12600000D01*
X18364922Y-12600000D01*
X18370637Y-12643412D01*
X18381774Y-12728002D01*
X18383154Y-12738488D01*
X18436609Y-12867539D01*
X18521643Y-12978357D01*
X18632461Y-13063391D01*
X18761512Y-13116846D01*
X18900000Y-13135078D01*
X18908188Y-13134000D01*
X19030300Y-13117924D01*
X19038488Y-13116846D01*
X19167539Y-13063391D01*
X19278357Y-12978357D01*
X19363391Y-12867539D01*
X19384589Y-12816362D01*
X28237966Y-12816362D01*
X28253186Y-12971585D01*
X28256097Y-12985280D01*
X28305327Y-13133270D01*
X28307729Y-13138468D01*
X28315717Y-13145772D01*
X28324338Y-13142109D01*
X28633635Y-12832812D01*
X28640013Y-12821132D01*
X29358751Y-12821132D01*
X29358882Y-12822965D01*
X29363133Y-12829580D01*
X29637188Y-13103635D01*
X29651132Y-13111249D01*
X29652965Y-13111118D01*
X29659580Y-13106867D01*
X29933635Y-12832812D01*
X29940013Y-12821132D01*
X30658751Y-12821132D01*
X30658882Y-12822965D01*
X30663133Y-12829580D01*
X30937188Y-13103635D01*
X30951132Y-13111249D01*
X30952965Y-13111118D01*
X30959580Y-13106867D01*
X31233635Y-12832812D01*
X31240013Y-12821132D01*
X31958751Y-12821132D01*
X31958882Y-12822965D01*
X31963133Y-12829580D01*
X32272178Y-13138625D01*
X32284558Y-13145385D01*
X32288374Y-13142528D01*
X32336331Y-13016283D01*
X32339811Y-13002727D01*
X32361948Y-12845221D01*
X32362554Y-12837338D01*
X32362741Y-12823962D01*
X32362354Y-12816062D01*
X32344625Y-12658003D01*
X32341523Y-12644350D01*
X32290700Y-12498407D01*
X32285141Y-12493467D01*
X32276088Y-12497465D01*
X31966365Y-12807188D01*
X31958751Y-12821132D01*
X31240013Y-12821132D01*
X31241249Y-12818868D01*
X31241118Y-12817035D01*
X31236867Y-12810420D01*
X30962812Y-12536365D01*
X30948868Y-12528751D01*
X30947035Y-12528882D01*
X30940420Y-12533133D01*
X30666365Y-12807188D01*
X30658751Y-12821132D01*
X29940013Y-12821132D01*
X29941249Y-12818868D01*
X29941118Y-12817035D01*
X29936867Y-12810420D01*
X29662812Y-12536365D01*
X29648868Y-12528751D01*
X29647035Y-12528882D01*
X29640420Y-12533133D01*
X29366365Y-12807188D01*
X29358751Y-12821132D01*
X28640013Y-12821132D01*
X28641249Y-12818868D01*
X28641118Y-12817035D01*
X28636867Y-12810420D01*
X28327039Y-12500592D01*
X28314659Y-12493832D01*
X28311037Y-12496543D01*
X28261001Y-12634016D01*
X28257709Y-12647625D01*
X28238162Y-12802356D01*
X28237966Y-12816362D01*
X19384589Y-12816362D01*
X19416846Y-12738488D01*
X19418227Y-12728002D01*
X19429363Y-12643412D01*
X19435078Y-12600000D01*
X19416846Y-12461512D01*
X19363391Y-12332461D01*
X19278357Y-12221643D01*
X19212530Y-12171132D01*
X28708751Y-12171132D01*
X28708882Y-12172965D01*
X28713133Y-12179580D01*
X28987188Y-12453635D01*
X29001132Y-12461249D01*
X29002965Y-12461118D01*
X29009580Y-12456867D01*
X29283635Y-12182812D01*
X29290013Y-12171132D01*
X30008751Y-12171132D01*
X30008882Y-12172965D01*
X30013133Y-12179580D01*
X30287188Y-12453635D01*
X30301132Y-12461249D01*
X30302965Y-12461118D01*
X30309580Y-12456867D01*
X30583635Y-12182812D01*
X30590013Y-12171132D01*
X31308751Y-12171132D01*
X31308882Y-12172965D01*
X31313133Y-12179580D01*
X31587188Y-12453635D01*
X31601132Y-12461249D01*
X31602965Y-12461118D01*
X31609580Y-12456867D01*
X31883635Y-12182812D01*
X31891249Y-12168868D01*
X31891118Y-12167035D01*
X31886867Y-12160420D01*
X31726447Y-12000000D01*
X35264922Y-12000000D01*
X35266000Y-12008188D01*
X35277983Y-12099206D01*
X35283154Y-12138488D01*
X35336609Y-12267539D01*
X35421643Y-12378357D01*
X35532461Y-12463391D01*
X35661512Y-12516846D01*
X35800000Y-12535078D01*
X35808188Y-12534000D01*
X35930300Y-12517924D01*
X35938488Y-12516846D01*
X36067539Y-12463391D01*
X36178357Y-12378357D01*
X36263391Y-12267539D01*
X36316846Y-12138488D01*
X36322018Y-12099206D01*
X36334000Y-12008188D01*
X36335078Y-12000000D01*
X36316846Y-11861512D01*
X36263391Y-11732461D01*
X36238483Y-11700000D01*
X44264922Y-11700000D01*
X44283154Y-11838488D01*
X44336609Y-11967539D01*
X44421643Y-12078357D01*
X44532461Y-12163391D01*
X44661512Y-12216846D01*
X44800000Y-12235078D01*
X44808188Y-12234000D01*
X44930300Y-12217924D01*
X44938488Y-12216846D01*
X45067539Y-12163391D01*
X45178357Y-12078357D01*
X45263391Y-11967539D01*
X45316846Y-11838488D01*
X45335078Y-11700000D01*
X45333243Y-11686062D01*
X46944500Y-11686062D01*
X46955509Y-11760852D01*
X46959826Y-11769644D01*
X46959826Y-11769645D01*
X47004931Y-11861512D01*
X47011337Y-11874560D01*
X47100987Y-11964054D01*
X47110343Y-11968627D01*
X47110344Y-11968628D01*
X47151111Y-11988555D01*
X47214793Y-12019683D01*
X47265870Y-12027135D01*
X47284413Y-12029840D01*
X47284415Y-12029840D01*
X47288938Y-12030500D01*
X48811062Y-12030500D01*
X48885852Y-12019491D01*
X48894645Y-12015174D01*
X48990212Y-11968253D01*
X48990214Y-11968252D01*
X48999560Y-11963663D01*
X49044493Y-11918652D01*
X49081696Y-11881384D01*
X49081696Y-11881383D01*
X49089054Y-11874013D01*
X49098837Y-11854000D01*
X49123455Y-11803635D01*
X49144683Y-11760207D01*
X49155500Y-11686062D01*
X49155500Y-10413938D01*
X49144491Y-10339148D01*
X49136534Y-10322941D01*
X49093253Y-10234788D01*
X49093252Y-10234786D01*
X49088663Y-10225440D01*
X49039402Y-10176265D01*
X49006384Y-10143304D01*
X49006383Y-10143304D01*
X48999013Y-10135946D01*
X48989657Y-10131373D01*
X48989656Y-10131372D01*
X48948889Y-10111445D01*
X48885207Y-10080317D01*
X48834130Y-10072865D01*
X48815587Y-10070160D01*
X48815585Y-10070160D01*
X48811062Y-10069500D01*
X47288938Y-10069500D01*
X47214148Y-10080509D01*
X47205356Y-10084826D01*
X47205355Y-10084826D01*
X47109788Y-10131747D01*
X47109786Y-10131748D01*
X47100440Y-10136337D01*
X47010946Y-10225987D01*
X47006373Y-10235343D01*
X47006372Y-10235344D01*
X47004052Y-10240091D01*
X46955317Y-10339793D01*
X46950954Y-10369700D01*
X46946136Y-10402727D01*
X46944500Y-10413938D01*
X46944500Y-11686062D01*
X45333243Y-11686062D01*
X45316846Y-11561512D01*
X45263391Y-11432461D01*
X45178357Y-11321643D01*
X45067539Y-11236609D01*
X44938488Y-11183154D01*
X44800000Y-11164922D01*
X44661512Y-11183154D01*
X44532461Y-11236609D01*
X44421643Y-11321643D01*
X44336609Y-11432461D01*
X44283154Y-11561512D01*
X44264922Y-11700000D01*
X36238483Y-11700000D01*
X36178357Y-11621643D01*
X36067539Y-11536609D01*
X35938488Y-11483154D01*
X35800000Y-11464922D01*
X35661512Y-11483154D01*
X35532461Y-11536609D01*
X35421643Y-11621643D01*
X35336609Y-11732461D01*
X35283154Y-11861512D01*
X35264922Y-12000000D01*
X31726447Y-12000000D01*
X31612812Y-11886365D01*
X31598868Y-11878751D01*
X31597035Y-11878882D01*
X31590420Y-11883133D01*
X31316365Y-12157188D01*
X31308751Y-12171132D01*
X30590013Y-12171132D01*
X30591249Y-12168868D01*
X30591118Y-12167035D01*
X30586867Y-12160420D01*
X30312812Y-11886365D01*
X30298868Y-11878751D01*
X30297035Y-11878882D01*
X30290420Y-11883133D01*
X30016365Y-12157188D01*
X30008751Y-12171132D01*
X29290013Y-12171132D01*
X29291249Y-12168868D01*
X29291118Y-12167035D01*
X29286867Y-12160420D01*
X29012812Y-11886365D01*
X28998868Y-11878751D01*
X28997035Y-11878882D01*
X28990420Y-11883133D01*
X28716365Y-12157188D01*
X28708751Y-12171132D01*
X19212530Y-12171132D01*
X19167539Y-12136609D01*
X19038488Y-12083154D01*
X18900000Y-12064922D01*
X18761512Y-12083154D01*
X18632461Y-12136609D01*
X18521643Y-12221643D01*
X18436609Y-12332461D01*
X18383154Y-12461512D01*
X18364922Y-12600000D01*
X8065139Y-12600000D01*
X8142807Y-12551937D01*
X8154208Y-12542901D01*
X8268739Y-12428171D01*
X8277751Y-12416760D01*
X8362816Y-12278757D01*
X8368963Y-12265576D01*
X8420138Y-12111290D01*
X8423005Y-12097914D01*
X8432672Y-12003562D01*
X8433000Y-11997146D01*
X8433000Y-11872115D01*
X8428525Y-11856876D01*
X8427135Y-11855671D01*
X8419452Y-11854000D01*
X5685116Y-11854000D01*
X5669877Y-11858475D01*
X5668672Y-11859865D01*
X5667001Y-11867548D01*
X5667001Y-11997095D01*
X400500Y-11997095D01*
X400500Y-11327885D01*
X5667000Y-11327885D01*
X5671475Y-11343124D01*
X5672865Y-11344329D01*
X5680548Y-11346000D01*
X6777885Y-11346000D01*
X6793124Y-11341525D01*
X6794329Y-11340135D01*
X6796000Y-11332452D01*
X6796000Y-11327885D01*
X7304000Y-11327885D01*
X7308475Y-11343124D01*
X7309865Y-11344329D01*
X7317548Y-11346000D01*
X8414884Y-11346000D01*
X8430123Y-11341525D01*
X8431328Y-11340135D01*
X8432999Y-11332452D01*
X8432999Y-11202905D01*
X8432662Y-11196386D01*
X8422743Y-11100794D01*
X8419851Y-11087400D01*
X8390693Y-11000000D01*
X25364922Y-11000000D01*
X25383154Y-11138488D01*
X25436609Y-11267539D01*
X25521643Y-11378357D01*
X25632461Y-11463391D01*
X25761512Y-11516846D01*
X25900000Y-11535078D01*
X25908188Y-11534000D01*
X25912374Y-11533449D01*
X26038488Y-11516846D01*
X26039656Y-11516362D01*
X28237966Y-11516362D01*
X28253186Y-11671585D01*
X28256097Y-11685280D01*
X28305327Y-11833270D01*
X28307729Y-11838468D01*
X28315717Y-11845772D01*
X28324338Y-11842109D01*
X28633635Y-11532812D01*
X28640013Y-11521132D01*
X29358751Y-11521132D01*
X29358882Y-11522965D01*
X29363133Y-11529580D01*
X29637188Y-11803635D01*
X29651132Y-11811249D01*
X29652965Y-11811118D01*
X29659580Y-11806867D01*
X29933635Y-11532812D01*
X29940013Y-11521132D01*
X30658751Y-11521132D01*
X30658882Y-11522965D01*
X30663133Y-11529580D01*
X30937188Y-11803635D01*
X30951132Y-11811249D01*
X30952965Y-11811118D01*
X30959580Y-11806867D01*
X31233635Y-11532812D01*
X31240013Y-11521132D01*
X31958751Y-11521132D01*
X31958882Y-11522965D01*
X31963133Y-11529580D01*
X32272178Y-11838625D01*
X32284558Y-11845385D01*
X32288374Y-11842528D01*
X32336331Y-11716283D01*
X32339811Y-11702727D01*
X32361948Y-11545221D01*
X32362554Y-11537338D01*
X32362741Y-11523962D01*
X32362354Y-11516062D01*
X32344625Y-11358003D01*
X32341523Y-11344350D01*
X32290700Y-11198407D01*
X32285141Y-11193467D01*
X32276088Y-11197465D01*
X31966365Y-11507188D01*
X31958751Y-11521132D01*
X31240013Y-11521132D01*
X31241249Y-11518868D01*
X31241118Y-11517035D01*
X31236867Y-11510420D01*
X30962812Y-11236365D01*
X30948868Y-11228751D01*
X30947035Y-11228882D01*
X30940420Y-11233133D01*
X30666365Y-11507188D01*
X30658751Y-11521132D01*
X29940013Y-11521132D01*
X29941249Y-11518868D01*
X29941118Y-11517035D01*
X29936867Y-11510420D01*
X29662812Y-11236365D01*
X29648868Y-11228751D01*
X29647035Y-11228882D01*
X29640420Y-11233133D01*
X29366365Y-11507188D01*
X29358751Y-11521132D01*
X28640013Y-11521132D01*
X28641249Y-11518868D01*
X28641118Y-11517035D01*
X28636867Y-11510420D01*
X28327039Y-11200592D01*
X28314659Y-11193832D01*
X28311037Y-11196543D01*
X28261001Y-11334016D01*
X28257709Y-11347625D01*
X28238162Y-11502356D01*
X28237966Y-11516362D01*
X26039656Y-11516362D01*
X26167539Y-11463391D01*
X26278357Y-11378357D01*
X26363391Y-11267539D01*
X26416846Y-11138488D01*
X26435078Y-11000000D01*
X26418201Y-10871807D01*
X26418112Y-10871132D01*
X28708751Y-10871132D01*
X28708882Y-10872965D01*
X28713133Y-10879580D01*
X28987188Y-11153635D01*
X29001132Y-11161249D01*
X29002965Y-11161118D01*
X29009580Y-11156867D01*
X29283635Y-10882812D01*
X29290013Y-10871132D01*
X30008751Y-10871132D01*
X30008882Y-10872965D01*
X30013133Y-10879580D01*
X30287188Y-11153635D01*
X30301132Y-11161249D01*
X30302965Y-11161118D01*
X30309580Y-11156867D01*
X30583635Y-10882812D01*
X30590013Y-10871132D01*
X31308751Y-10871132D01*
X31308882Y-10872965D01*
X31313133Y-10879580D01*
X31587188Y-11153635D01*
X31601132Y-11161249D01*
X31602965Y-11161118D01*
X31609580Y-11156867D01*
X31883635Y-10882812D01*
X31891249Y-10868868D01*
X31891118Y-10867035D01*
X31886867Y-10860420D01*
X31612812Y-10586365D01*
X31598868Y-10578751D01*
X31597035Y-10578882D01*
X31590420Y-10583133D01*
X31316365Y-10857188D01*
X31308751Y-10871132D01*
X30590013Y-10871132D01*
X30591249Y-10868868D01*
X30591118Y-10867035D01*
X30586867Y-10860420D01*
X30312812Y-10586365D01*
X30298868Y-10578751D01*
X30297035Y-10578882D01*
X30290420Y-10583133D01*
X30016365Y-10857188D01*
X30008751Y-10871132D01*
X29290013Y-10871132D01*
X29291249Y-10868868D01*
X29291118Y-10867035D01*
X29286867Y-10860420D01*
X29012812Y-10586365D01*
X28998868Y-10578751D01*
X28997035Y-10578882D01*
X28990420Y-10583133D01*
X28716365Y-10857188D01*
X28708751Y-10871132D01*
X26418112Y-10871132D01*
X26417924Y-10869700D01*
X26416846Y-10861512D01*
X26363391Y-10732461D01*
X26278357Y-10621643D01*
X26167539Y-10536609D01*
X26038488Y-10483154D01*
X25900000Y-10464922D01*
X25761512Y-10483154D01*
X25632461Y-10536609D01*
X25521643Y-10621643D01*
X25436609Y-10732461D01*
X25383154Y-10861512D01*
X25382076Y-10869700D01*
X25381799Y-10871807D01*
X25364922Y-11000000D01*
X8390693Y-11000000D01*
X8368412Y-10933216D01*
X8362239Y-10920038D01*
X8276937Y-10782193D01*
X8267901Y-10770792D01*
X8153171Y-10656261D01*
X8141760Y-10647249D01*
X8003757Y-10562184D01*
X7990576Y-10556037D01*
X7836290Y-10504862D01*
X7822914Y-10501995D01*
X7728562Y-10492328D01*
X7722145Y-10492000D01*
X7322115Y-10492000D01*
X7306876Y-10496475D01*
X7305671Y-10497865D01*
X7304000Y-10505548D01*
X7304000Y-11327885D01*
X6796000Y-11327885D01*
X6796000Y-10510116D01*
X6791525Y-10494877D01*
X6790135Y-10493672D01*
X6782452Y-10492001D01*
X6377905Y-10492001D01*
X6371386Y-10492338D01*
X6275794Y-10502257D01*
X6262400Y-10505149D01*
X6108216Y-10556588D01*
X6095038Y-10562761D01*
X5957193Y-10648063D01*
X5945792Y-10657099D01*
X5831261Y-10771829D01*
X5822249Y-10783240D01*
X5737184Y-10921243D01*
X5731037Y-10934424D01*
X5679862Y-11088710D01*
X5676995Y-11102086D01*
X5667328Y-11196438D01*
X5667000Y-11202855D01*
X5667000Y-11327885D01*
X400500Y-11327885D01*
X400500Y-10314753D01*
X20840638Y-10314753D01*
X20858870Y-10453241D01*
X20912325Y-10582292D01*
X20997359Y-10693110D01*
X21108177Y-10778144D01*
X21237228Y-10831599D01*
X21375716Y-10849831D01*
X21383904Y-10848753D01*
X21506016Y-10832677D01*
X21514204Y-10831599D01*
X21643255Y-10778144D01*
X21754073Y-10693110D01*
X21839107Y-10582292D01*
X21892562Y-10453241D01*
X21910794Y-10314753D01*
X21897841Y-10216362D01*
X28237966Y-10216362D01*
X28253186Y-10371585D01*
X28256097Y-10385280D01*
X28305327Y-10533270D01*
X28307729Y-10538468D01*
X28315717Y-10545772D01*
X28324338Y-10542109D01*
X28633635Y-10232812D01*
X28640013Y-10221132D01*
X29358751Y-10221132D01*
X29358882Y-10222965D01*
X29363133Y-10229580D01*
X29637188Y-10503635D01*
X29651132Y-10511249D01*
X29652965Y-10511118D01*
X29659580Y-10506867D01*
X29933635Y-10232812D01*
X29940013Y-10221132D01*
X30658751Y-10221132D01*
X30658882Y-10222965D01*
X30663133Y-10229580D01*
X30937188Y-10503635D01*
X30951132Y-10511249D01*
X30952965Y-10511118D01*
X30959580Y-10506867D01*
X31233635Y-10232812D01*
X31240013Y-10221132D01*
X31958751Y-10221132D01*
X31958882Y-10222965D01*
X31963133Y-10229580D01*
X32272178Y-10538625D01*
X32284558Y-10545385D01*
X32288374Y-10542528D01*
X32336331Y-10416283D01*
X32339811Y-10402727D01*
X32361948Y-10245221D01*
X32362554Y-10237338D01*
X32362741Y-10223962D01*
X32362354Y-10216062D01*
X32344625Y-10058003D01*
X32341523Y-10044350D01*
X32290700Y-9898407D01*
X32285141Y-9893467D01*
X32276088Y-9897465D01*
X31966365Y-10207188D01*
X31958751Y-10221132D01*
X31240013Y-10221132D01*
X31241249Y-10218868D01*
X31241118Y-10217035D01*
X31236867Y-10210420D01*
X30962812Y-9936365D01*
X30948868Y-9928751D01*
X30947035Y-9928882D01*
X30940420Y-9933133D01*
X30666365Y-10207188D01*
X30658751Y-10221132D01*
X29940013Y-10221132D01*
X29941249Y-10218868D01*
X29941118Y-10217035D01*
X29936867Y-10210420D01*
X29662812Y-9936365D01*
X29648868Y-9928751D01*
X29647035Y-9928882D01*
X29640420Y-9933133D01*
X29366365Y-10207188D01*
X29358751Y-10221132D01*
X28640013Y-10221132D01*
X28641249Y-10218868D01*
X28641118Y-10217035D01*
X28636867Y-10210420D01*
X28327039Y-9900592D01*
X28314659Y-9893832D01*
X28311037Y-9896543D01*
X28261001Y-10034016D01*
X28257709Y-10047625D01*
X28238162Y-10202356D01*
X28237966Y-10216362D01*
X21897841Y-10216362D01*
X21892562Y-10176265D01*
X21839107Y-10047214D01*
X21754073Y-9936396D01*
X21643255Y-9851362D01*
X21514204Y-9797907D01*
X21491098Y-9794865D01*
X21383904Y-9780753D01*
X21375716Y-9779675D01*
X21367528Y-9780753D01*
X21260335Y-9794865D01*
X21237228Y-9797907D01*
X21108177Y-9851362D01*
X20997359Y-9936396D01*
X20912325Y-10047214D01*
X20858870Y-10176265D01*
X20840638Y-10314753D01*
X400500Y-10314753D01*
X400500Y-9571132D01*
X28708751Y-9571132D01*
X28708882Y-9572965D01*
X28713133Y-9579580D01*
X28987188Y-9853635D01*
X29001132Y-9861249D01*
X29002965Y-9861118D01*
X29009580Y-9856867D01*
X29283635Y-9582812D01*
X29290013Y-9571132D01*
X30008751Y-9571132D01*
X30008882Y-9572965D01*
X30013133Y-9579580D01*
X30287188Y-9853635D01*
X30301132Y-9861249D01*
X30302965Y-9861118D01*
X30309580Y-9856867D01*
X30583635Y-9582812D01*
X30590013Y-9571132D01*
X31308751Y-9571132D01*
X31308882Y-9572965D01*
X31313133Y-9579580D01*
X31587188Y-9853635D01*
X31601132Y-9861249D01*
X31602965Y-9861118D01*
X31609580Y-9856867D01*
X31679770Y-9786677D01*
X37253502Y-9786677D01*
X37271734Y-9925165D01*
X37325189Y-10054216D01*
X37410223Y-10165034D01*
X37521041Y-10250068D01*
X37650092Y-10303523D01*
X37658280Y-10304601D01*
X37761766Y-10318225D01*
X37826693Y-10346947D01*
X37865785Y-10406212D01*
X37870242Y-10459592D01*
X37864922Y-10500000D01*
X37883154Y-10638488D01*
X37936609Y-10767539D01*
X38021643Y-10878357D01*
X38132461Y-10963391D01*
X38261512Y-11016846D01*
X38400000Y-11035078D01*
X38408188Y-11034000D01*
X38530300Y-11017924D01*
X38538488Y-11016846D01*
X38667539Y-10963391D01*
X38778357Y-10878357D01*
X38863391Y-10767539D01*
X38916846Y-10638488D01*
X38935078Y-10500000D01*
X38916846Y-10361512D01*
X38863391Y-10232461D01*
X38778357Y-10121643D01*
X38667539Y-10036609D01*
X38538488Y-9983154D01*
X38530300Y-9982076D01*
X38426814Y-9968452D01*
X38361887Y-9939730D01*
X38322795Y-9880465D01*
X38318338Y-9827085D01*
X38323658Y-9786677D01*
X38305426Y-9648189D01*
X38251971Y-9519138D01*
X38166937Y-9408320D01*
X38056119Y-9323286D01*
X37927068Y-9269831D01*
X37788580Y-9251599D01*
X37650092Y-9269831D01*
X37521041Y-9323286D01*
X37410223Y-9408320D01*
X37325189Y-9519138D01*
X37271734Y-9648189D01*
X37253502Y-9786677D01*
X31679770Y-9786677D01*
X31883635Y-9582812D01*
X31891249Y-9568868D01*
X31891118Y-9567035D01*
X31886867Y-9560420D01*
X31612812Y-9286365D01*
X31598868Y-9278751D01*
X31597035Y-9278882D01*
X31590420Y-9283133D01*
X31316365Y-9557188D01*
X31308751Y-9571132D01*
X30590013Y-9571132D01*
X30591249Y-9568868D01*
X30591118Y-9567035D01*
X30586867Y-9560420D01*
X30312812Y-9286365D01*
X30298868Y-9278751D01*
X30297035Y-9278882D01*
X30290420Y-9283133D01*
X30016365Y-9557188D01*
X30008751Y-9571132D01*
X29290013Y-9571132D01*
X29291249Y-9568868D01*
X29291118Y-9567035D01*
X29286867Y-9560420D01*
X29012812Y-9286365D01*
X28998868Y-9278751D01*
X28997035Y-9278882D01*
X28990420Y-9283133D01*
X28716365Y-9557188D01*
X28708751Y-9571132D01*
X400500Y-9571132D01*
X400500Y-8257166D01*
X13949500Y-8257166D01*
X13964455Y-8375545D01*
X13977379Y-8408188D01*
X14016991Y-8508237D01*
X14023097Y-8523660D01*
X14050312Y-8561118D01*
X14112072Y-8646124D01*
X14112075Y-8646127D01*
X14116732Y-8652537D01*
X14239476Y-8754080D01*
X14383616Y-8821907D01*
X14474820Y-8839305D01*
X14532310Y-8850272D01*
X14532312Y-8850272D01*
X14540096Y-8851757D01*
X14619589Y-8846756D01*
X14691172Y-8842252D01*
X14691174Y-8842252D01*
X14699083Y-8841754D01*
X14706619Y-8839305D01*
X14706621Y-8839305D01*
X14755596Y-8823392D01*
X14850587Y-8792528D01*
X14985090Y-8707170D01*
X14991095Y-8700776D01*
X15088714Y-8596821D01*
X15094139Y-8591044D01*
X15170883Y-8451447D01*
X15210500Y-8297151D01*
X15210500Y-7355088D01*
X15230502Y-7286967D01*
X15284158Y-7240474D01*
X15354432Y-7230370D01*
X15419012Y-7259864D01*
X15452909Y-7306870D01*
X15503808Y-7429750D01*
X15596696Y-7550804D01*
X15717750Y-7643692D01*
X15858720Y-7702084D01*
X15972020Y-7717000D01*
X16047980Y-7717000D01*
X16161280Y-7702084D01*
X16302250Y-7643692D01*
X16423304Y-7550804D01*
X16516192Y-7429750D01*
X16574584Y-7288780D01*
X16580944Y-7240474D01*
X16591091Y-7163391D01*
X16594500Y-7137500D01*
X21205500Y-7137500D01*
X21208909Y-7163391D01*
X21219057Y-7240474D01*
X21225416Y-7288780D01*
X21283808Y-7429750D01*
X21376696Y-7550804D01*
X21497750Y-7643692D01*
X21638720Y-7702084D01*
X21752020Y-7717000D01*
X21827980Y-7717000D01*
X21941280Y-7702084D01*
X22082250Y-7643692D01*
X22203304Y-7550804D01*
X22296192Y-7429750D01*
X22347091Y-7306870D01*
X22391640Y-7251589D01*
X22459003Y-7229168D01*
X22527794Y-7246726D01*
X22576173Y-7298689D01*
X22589500Y-7355088D01*
X22589500Y-8257166D01*
X22604455Y-8375545D01*
X22617379Y-8408188D01*
X22656991Y-8508237D01*
X22663097Y-8523660D01*
X22690312Y-8561118D01*
X22752072Y-8646124D01*
X22752075Y-8646127D01*
X22756732Y-8652537D01*
X22879476Y-8754080D01*
X23023616Y-8821907D01*
X23114820Y-8839305D01*
X23172310Y-8850272D01*
X23172312Y-8850272D01*
X23180096Y-8851757D01*
X23259589Y-8846756D01*
X23331172Y-8842252D01*
X23331174Y-8842252D01*
X23339083Y-8841754D01*
X23346619Y-8839305D01*
X23346621Y-8839305D01*
X23395596Y-8823392D01*
X23490587Y-8792528D01*
X23625090Y-8707170D01*
X23631095Y-8700776D01*
X23725729Y-8600000D01*
X25064922Y-8600000D01*
X25083154Y-8738488D01*
X25136609Y-8867539D01*
X25221643Y-8978357D01*
X25332461Y-9063391D01*
X25461512Y-9116846D01*
X25600000Y-9135078D01*
X25608188Y-9134000D01*
X25730300Y-9117924D01*
X25738488Y-9116846D01*
X25867539Y-9063391D01*
X25978357Y-8978357D01*
X26025928Y-8916362D01*
X28237966Y-8916362D01*
X28253186Y-9071585D01*
X28256097Y-9085280D01*
X28305327Y-9233270D01*
X28307729Y-9238468D01*
X28315717Y-9245772D01*
X28324338Y-9242109D01*
X28633635Y-8932812D01*
X28640013Y-8921132D01*
X29358751Y-8921132D01*
X29358882Y-8922965D01*
X29363133Y-8929580D01*
X29637188Y-9203635D01*
X29651132Y-9211249D01*
X29652965Y-9211118D01*
X29659580Y-9206867D01*
X29933635Y-8932812D01*
X29940013Y-8921132D01*
X30658751Y-8921132D01*
X30658882Y-8922965D01*
X30663133Y-8929580D01*
X30937188Y-9203635D01*
X30951132Y-9211249D01*
X30952965Y-9211118D01*
X30959580Y-9206867D01*
X31233635Y-8932812D01*
X31240013Y-8921132D01*
X31958751Y-8921132D01*
X31958882Y-8922965D01*
X31963133Y-8929580D01*
X32272178Y-9238625D01*
X32284558Y-9245385D01*
X32288374Y-9242528D01*
X32336331Y-9116283D01*
X32339811Y-9102727D01*
X32361948Y-8945221D01*
X32362554Y-8937338D01*
X32362741Y-8923962D01*
X32362354Y-8916062D01*
X32344625Y-8758003D01*
X32341523Y-8744350D01*
X32290700Y-8598407D01*
X32285141Y-8593467D01*
X32276088Y-8597465D01*
X31966365Y-8907188D01*
X31958751Y-8921132D01*
X31240013Y-8921132D01*
X31241249Y-8918868D01*
X31241118Y-8917035D01*
X31236867Y-8910420D01*
X30962812Y-8636365D01*
X30948868Y-8628751D01*
X30947035Y-8628882D01*
X30940420Y-8633133D01*
X30666365Y-8907188D01*
X30658751Y-8921132D01*
X29940013Y-8921132D01*
X29941249Y-8918868D01*
X29941118Y-8917035D01*
X29936867Y-8910420D01*
X29662812Y-8636365D01*
X29648868Y-8628751D01*
X29647035Y-8628882D01*
X29640420Y-8633133D01*
X29366365Y-8907188D01*
X29358751Y-8921132D01*
X28640013Y-8921132D01*
X28641249Y-8918868D01*
X28641118Y-8917035D01*
X28636867Y-8910420D01*
X28327039Y-8600592D01*
X28314659Y-8593832D01*
X28311037Y-8596543D01*
X28261001Y-8734016D01*
X28257709Y-8747625D01*
X28238162Y-8902356D01*
X28237966Y-8916362D01*
X26025928Y-8916362D01*
X26063391Y-8867539D01*
X26116846Y-8738488D01*
X26135078Y-8600000D01*
X26116846Y-8461512D01*
X26063391Y-8332461D01*
X26016331Y-8271132D01*
X28708751Y-8271132D01*
X28708882Y-8272965D01*
X28713133Y-8279580D01*
X28987188Y-8553635D01*
X29001132Y-8561249D01*
X29002965Y-8561118D01*
X29009580Y-8556867D01*
X29283635Y-8282812D01*
X29290013Y-8271132D01*
X30008751Y-8271132D01*
X30008882Y-8272965D01*
X30013133Y-8279580D01*
X30287188Y-8553635D01*
X30301132Y-8561249D01*
X30302965Y-8561118D01*
X30309580Y-8556867D01*
X30583635Y-8282812D01*
X30590013Y-8271132D01*
X31308751Y-8271132D01*
X31308882Y-8272965D01*
X31313133Y-8279580D01*
X31587188Y-8553635D01*
X31601132Y-8561249D01*
X31602965Y-8561118D01*
X31609580Y-8556867D01*
X31883635Y-8282812D01*
X31891249Y-8268868D01*
X31891118Y-8267035D01*
X31886867Y-8260420D01*
X31612812Y-7986365D01*
X31598868Y-7978751D01*
X31597035Y-7978882D01*
X31590420Y-7983133D01*
X31316365Y-8257188D01*
X31308751Y-8271132D01*
X30590013Y-8271132D01*
X30591249Y-8268868D01*
X30591118Y-8267035D01*
X30586867Y-8260420D01*
X30312812Y-7986365D01*
X30298868Y-7978751D01*
X30297035Y-7978882D01*
X30290420Y-7983133D01*
X30016365Y-8257188D01*
X30008751Y-8271132D01*
X29290013Y-8271132D01*
X29291249Y-8268868D01*
X29291118Y-8267035D01*
X29286867Y-8260420D01*
X29012812Y-7986365D01*
X28998868Y-7978751D01*
X28997035Y-7978882D01*
X28990420Y-7983133D01*
X28716365Y-8257188D01*
X28708751Y-8271132D01*
X26016331Y-8271132D01*
X25978357Y-8221643D01*
X25867539Y-8136609D01*
X25738488Y-8083154D01*
X25600000Y-8064922D01*
X25461512Y-8083154D01*
X25332461Y-8136609D01*
X25221643Y-8221643D01*
X25136609Y-8332461D01*
X25083154Y-8461512D01*
X25064922Y-8600000D01*
X23725729Y-8600000D01*
X23728714Y-8596821D01*
X23734139Y-8591044D01*
X23810883Y-8451447D01*
X23850500Y-8297151D01*
X23850500Y-7616362D01*
X28237966Y-7616362D01*
X28253186Y-7771585D01*
X28256097Y-7785280D01*
X28305327Y-7933270D01*
X28307729Y-7938468D01*
X28315717Y-7945772D01*
X28324338Y-7942109D01*
X28633635Y-7632812D01*
X28640013Y-7621132D01*
X29358751Y-7621132D01*
X29358882Y-7622965D01*
X29363133Y-7629580D01*
X29637188Y-7903635D01*
X29651132Y-7911249D01*
X29652965Y-7911118D01*
X29659580Y-7906867D01*
X29933635Y-7632812D01*
X29940013Y-7621132D01*
X30658751Y-7621132D01*
X30658882Y-7622965D01*
X30663133Y-7629580D01*
X30937188Y-7903635D01*
X30951132Y-7911249D01*
X30952965Y-7911118D01*
X30959580Y-7906867D01*
X31233635Y-7632812D01*
X31240013Y-7621132D01*
X31958751Y-7621132D01*
X31958882Y-7622965D01*
X31963133Y-7629580D01*
X32272178Y-7938625D01*
X32284558Y-7945385D01*
X32288374Y-7942528D01*
X32304529Y-7900000D01*
X35264922Y-7900000D01*
X35283154Y-8038488D01*
X35336609Y-8167539D01*
X35421643Y-8278357D01*
X35532461Y-8363391D01*
X35661512Y-8416846D01*
X35800000Y-8435078D01*
X35808188Y-8434000D01*
X35930300Y-8417924D01*
X35938488Y-8416846D01*
X35979158Y-8400000D01*
X42164922Y-8400000D01*
X42183154Y-8538488D01*
X42236609Y-8667539D01*
X42321643Y-8778357D01*
X42432461Y-8863391D01*
X42561512Y-8916846D01*
X42700000Y-8935078D01*
X42708188Y-8934000D01*
X42830300Y-8917924D01*
X42838488Y-8916846D01*
X42967539Y-8863391D01*
X43078357Y-8778357D01*
X43163391Y-8667539D01*
X43192136Y-8598144D01*
X46940620Y-8598144D01*
X46970406Y-8795098D01*
X47039187Y-8982040D01*
X47042547Y-8987460D01*
X47042548Y-8987461D01*
X47140790Y-9145910D01*
X47140793Y-9145914D01*
X47144153Y-9151333D01*
X47148539Y-9155971D01*
X47268791Y-9283133D01*
X47281017Y-9296062D01*
X47444186Y-9410314D01*
X47626997Y-9489424D01*
X47821981Y-9530158D01*
X47828507Y-9530500D01*
X48224785Y-9530500D01*
X48297817Y-9523082D01*
X48366825Y-9516072D01*
X48366826Y-9516072D01*
X48373174Y-9515427D01*
X48563252Y-9455860D01*
X48737471Y-9359289D01*
X48838157Y-9272991D01*
X48883870Y-9233810D01*
X48888713Y-9229659D01*
X48902994Y-9211249D01*
X49006885Y-9077313D01*
X49010800Y-9072266D01*
X49013618Y-9066540D01*
X49095930Y-8899260D01*
X49095932Y-8899255D01*
X49098745Y-8893538D01*
X49105775Y-8866551D01*
X49134192Y-8757454D01*
X49148955Y-8700776D01*
X49155070Y-8584101D01*
X49159046Y-8508237D01*
X49159046Y-8508233D01*
X49159380Y-8501856D01*
X49129594Y-8304902D01*
X49121467Y-8282812D01*
X49098961Y-8221643D01*
X49060813Y-8117960D01*
X49041192Y-8086314D01*
X48959210Y-7954090D01*
X48959207Y-7954086D01*
X48955847Y-7948667D01*
X48902082Y-7891812D01*
X48823372Y-7808579D01*
X48823371Y-7808578D01*
X48818983Y-7803938D01*
X48655814Y-7689686D01*
X48473003Y-7610576D01*
X48278019Y-7569842D01*
X48273177Y-7569588D01*
X48273172Y-7569588D01*
X48271493Y-7569500D01*
X47875215Y-7569500D01*
X47802183Y-7576918D01*
X47733175Y-7583928D01*
X47733174Y-7583928D01*
X47726826Y-7584573D01*
X47536748Y-7644140D01*
X47362529Y-7740711D01*
X47211287Y-7870341D01*
X47207376Y-7875383D01*
X47207375Y-7875384D01*
X47153077Y-7945385D01*
X47089200Y-8027734D01*
X47086384Y-8033457D01*
X47086382Y-8033460D01*
X47004070Y-8200740D01*
X47004068Y-8200745D01*
X47001255Y-8206462D01*
X46999647Y-8212635D01*
X46999646Y-8212638D01*
X46982528Y-8278357D01*
X46951045Y-8399224D01*
X46945997Y-8495537D01*
X46942554Y-8561249D01*
X46940620Y-8598144D01*
X43192136Y-8598144D01*
X43216846Y-8538488D01*
X43235078Y-8400000D01*
X43218201Y-8271807D01*
X43217924Y-8269700D01*
X43216846Y-8261512D01*
X43163391Y-8132461D01*
X43078357Y-8021643D01*
X42967539Y-7936609D01*
X42838488Y-7883154D01*
X42700000Y-7864922D01*
X42561512Y-7883154D01*
X42432461Y-7936609D01*
X42321643Y-8021643D01*
X42236609Y-8132461D01*
X42183154Y-8261512D01*
X42182076Y-8269700D01*
X42181799Y-8271807D01*
X42164922Y-8400000D01*
X35979158Y-8400000D01*
X36067539Y-8363391D01*
X36178357Y-8278357D01*
X36263391Y-8167539D01*
X36316846Y-8038488D01*
X36335078Y-7900000D01*
X36316846Y-7761512D01*
X36263391Y-7632461D01*
X36178357Y-7521643D01*
X36067539Y-7436609D01*
X35938488Y-7383154D01*
X35800000Y-7364922D01*
X35661512Y-7383154D01*
X35532461Y-7436609D01*
X35421643Y-7521643D01*
X35336609Y-7632461D01*
X35283154Y-7761512D01*
X35264922Y-7900000D01*
X32304529Y-7900000D01*
X32336331Y-7816283D01*
X32339811Y-7802727D01*
X32361948Y-7645221D01*
X32362554Y-7637338D01*
X32362741Y-7623962D01*
X32362354Y-7616062D01*
X32344625Y-7458003D01*
X32341523Y-7444350D01*
X32290700Y-7298407D01*
X32285141Y-7293467D01*
X32276088Y-7297465D01*
X31966365Y-7607188D01*
X31958751Y-7621132D01*
X31240013Y-7621132D01*
X31241249Y-7618868D01*
X31241118Y-7617035D01*
X31236867Y-7610420D01*
X30962812Y-7336365D01*
X30948868Y-7328751D01*
X30947035Y-7328882D01*
X30940420Y-7333133D01*
X30666365Y-7607188D01*
X30658751Y-7621132D01*
X29940013Y-7621132D01*
X29941249Y-7618868D01*
X29941118Y-7617035D01*
X29936867Y-7610420D01*
X29662812Y-7336365D01*
X29648868Y-7328751D01*
X29647035Y-7328882D01*
X29640420Y-7333133D01*
X29366365Y-7607188D01*
X29358751Y-7621132D01*
X28640013Y-7621132D01*
X28641249Y-7618868D01*
X28641118Y-7617035D01*
X28636867Y-7610420D01*
X28327039Y-7300592D01*
X28314659Y-7293832D01*
X28311037Y-7296543D01*
X28261001Y-7434016D01*
X28257709Y-7447625D01*
X28238162Y-7602356D01*
X28237966Y-7616362D01*
X23850500Y-7616362D01*
X23850500Y-7077834D01*
X23837020Y-6971132D01*
X28708751Y-6971132D01*
X28708882Y-6972965D01*
X28713133Y-6979580D01*
X28987188Y-7253635D01*
X29001132Y-7261249D01*
X29002965Y-7261118D01*
X29009580Y-7256867D01*
X29283635Y-6982812D01*
X29290013Y-6971132D01*
X30008751Y-6971132D01*
X30008882Y-6972965D01*
X30013133Y-6979580D01*
X30287188Y-7253635D01*
X30301132Y-7261249D01*
X30302965Y-7261118D01*
X30309580Y-7256867D01*
X30583635Y-6982812D01*
X30590013Y-6971132D01*
X31308751Y-6971132D01*
X31308882Y-6972965D01*
X31313133Y-6979580D01*
X31587188Y-7253635D01*
X31601132Y-7261249D01*
X31602965Y-7261118D01*
X31609580Y-7256867D01*
X31883635Y-6982812D01*
X31891249Y-6968868D01*
X31891118Y-6967035D01*
X31886867Y-6960420D01*
X31626447Y-6700000D01*
X41164922Y-6700000D01*
X41183154Y-6838488D01*
X41236609Y-6967539D01*
X41321643Y-7078357D01*
X41432461Y-7163391D01*
X41561512Y-7216846D01*
X41700000Y-7235078D01*
X41708188Y-7234000D01*
X41744892Y-7229168D01*
X41838488Y-7216846D01*
X41967539Y-7163391D01*
X42078357Y-7078357D01*
X42163391Y-6967539D01*
X42216846Y-6838488D01*
X42235078Y-6700000D01*
X42216846Y-6561512D01*
X42180960Y-6474875D01*
X42173371Y-6404288D01*
X42205150Y-6340801D01*
X42266208Y-6304573D01*
X42337159Y-6307107D01*
X42345585Y-6310249D01*
X42345998Y-6310420D01*
X42361512Y-6316846D01*
X42500000Y-6335078D01*
X42508188Y-6334000D01*
X42630300Y-6317924D01*
X42638488Y-6316846D01*
X42654415Y-6310249D01*
X42706242Y-6288781D01*
X42767539Y-6263391D01*
X42878357Y-6178357D01*
X42939907Y-6098144D01*
X46940620Y-6098144D01*
X46970406Y-6295098D01*
X47039187Y-6482040D01*
X47042547Y-6487460D01*
X47042548Y-6487461D01*
X47140790Y-6645910D01*
X47140793Y-6645914D01*
X47144153Y-6651333D01*
X47148539Y-6655971D01*
X47236337Y-6748814D01*
X47281017Y-6796062D01*
X47444186Y-6910314D01*
X47626997Y-6989424D01*
X47821981Y-7030158D01*
X47828507Y-7030500D01*
X48224785Y-7030500D01*
X48297816Y-7023082D01*
X48366825Y-7016072D01*
X48366826Y-7016072D01*
X48373174Y-7015427D01*
X48563252Y-6955860D01*
X48737471Y-6859289D01*
X48863932Y-6750899D01*
X48883870Y-6733810D01*
X48888713Y-6729659D01*
X48922296Y-6686365D01*
X49006885Y-6577313D01*
X49010800Y-6572266D01*
X49017820Y-6558000D01*
X49095930Y-6399260D01*
X49095932Y-6399255D01*
X49098745Y-6393538D01*
X49111331Y-6345221D01*
X49147344Y-6206960D01*
X49148955Y-6200776D01*
X49156338Y-6059909D01*
X49159046Y-6008237D01*
X49159046Y-6008233D01*
X49159380Y-6001856D01*
X49129594Y-5804902D01*
X49060813Y-5617960D01*
X49057452Y-5612539D01*
X48959210Y-5454090D01*
X48959207Y-5454086D01*
X48955847Y-5448667D01*
X48886546Y-5375384D01*
X48823372Y-5308579D01*
X48823371Y-5308578D01*
X48818983Y-5303938D01*
X48655814Y-5189686D01*
X48473003Y-5110576D01*
X48278019Y-5069842D01*
X48273177Y-5069588D01*
X48273172Y-5069588D01*
X48271493Y-5069500D01*
X47875215Y-5069500D01*
X47802184Y-5076918D01*
X47733175Y-5083928D01*
X47733174Y-5083928D01*
X47726826Y-5084573D01*
X47536748Y-5144140D01*
X47362529Y-5240711D01*
X47211287Y-5370341D01*
X47207376Y-5375383D01*
X47207375Y-5375384D01*
X47150531Y-5448667D01*
X47089200Y-5527734D01*
X47086384Y-5533457D01*
X47086382Y-5533460D01*
X47004070Y-5700740D01*
X47004068Y-5700745D01*
X47001255Y-5706462D01*
X46999647Y-5712635D01*
X46999646Y-5712638D01*
X46975614Y-5804902D01*
X46951045Y-5899224D01*
X46946106Y-5993467D01*
X46941881Y-6074092D01*
X46940620Y-6098144D01*
X42939907Y-6098144D01*
X42963391Y-6067539D01*
X43016846Y-5938488D01*
X43035078Y-5800000D01*
X43016846Y-5661512D01*
X42963391Y-5532461D01*
X42878357Y-5421643D01*
X42767539Y-5336609D01*
X42638488Y-5283154D01*
X42500000Y-5264922D01*
X42361512Y-5283154D01*
X42232461Y-5336609D01*
X42121643Y-5421643D01*
X42036609Y-5532461D01*
X41983154Y-5661512D01*
X41964922Y-5800000D01*
X41983154Y-5938488D01*
X42019040Y-6025125D01*
X42026629Y-6095712D01*
X41994850Y-6159199D01*
X41933792Y-6195427D01*
X41862841Y-6192893D01*
X41854415Y-6189751D01*
X41846117Y-6186314D01*
X41838488Y-6183154D01*
X41700000Y-6164922D01*
X41561512Y-6183154D01*
X41553883Y-6186314D01*
X41542028Y-6191225D01*
X41432461Y-6236609D01*
X41321643Y-6321643D01*
X41236609Y-6432461D01*
X41183154Y-6561512D01*
X41164922Y-6700000D01*
X31626447Y-6700000D01*
X31612812Y-6686365D01*
X31598868Y-6678751D01*
X31597035Y-6678882D01*
X31590420Y-6683133D01*
X31316365Y-6957188D01*
X31308751Y-6971132D01*
X30590013Y-6971132D01*
X30591249Y-6968868D01*
X30591118Y-6967035D01*
X30586867Y-6960420D01*
X30312812Y-6686365D01*
X30298868Y-6678751D01*
X30297035Y-6678882D01*
X30290420Y-6683133D01*
X30016365Y-6957188D01*
X30008751Y-6971132D01*
X29290013Y-6971132D01*
X29291249Y-6968868D01*
X29291118Y-6967035D01*
X29286867Y-6960420D01*
X29012812Y-6686365D01*
X28998868Y-6678751D01*
X28997035Y-6678882D01*
X28990420Y-6683133D01*
X28716365Y-6957188D01*
X28708751Y-6971132D01*
X23837020Y-6971132D01*
X23835545Y-6959455D01*
X23787735Y-6838699D01*
X23779823Y-6818714D01*
X23779821Y-6818711D01*
X23776903Y-6811340D01*
X23731475Y-6748814D01*
X23687928Y-6688876D01*
X23687925Y-6688873D01*
X23683268Y-6682463D01*
X23560524Y-6580920D01*
X23416384Y-6513093D01*
X23309731Y-6492748D01*
X23267690Y-6484728D01*
X23267688Y-6484728D01*
X23259904Y-6483243D01*
X23180410Y-6488245D01*
X23108828Y-6492748D01*
X23108826Y-6492748D01*
X23100917Y-6493246D01*
X23093381Y-6495695D01*
X23093379Y-6495695D01*
X23071737Y-6502727D01*
X22949413Y-6542472D01*
X22814910Y-6627830D01*
X22705861Y-6743956D01*
X22629117Y-6883553D01*
X22609512Y-6959909D01*
X22600212Y-6996129D01*
X22563897Y-7057135D01*
X22500365Y-7088823D01*
X22429786Y-7081133D01*
X22374569Y-7036505D01*
X22356464Y-6997402D01*
X22355662Y-6994408D01*
X22354584Y-6986220D01*
X22296192Y-6845250D01*
X22203304Y-6724196D01*
X22082250Y-6631308D01*
X21941280Y-6572916D01*
X21892849Y-6566540D01*
X21832067Y-6558538D01*
X21832066Y-6558538D01*
X21827980Y-6558000D01*
X21752020Y-6558000D01*
X21747934Y-6558538D01*
X21747933Y-6558538D01*
X21687151Y-6566540D01*
X21638720Y-6572916D01*
X21497750Y-6631308D01*
X21376696Y-6724196D01*
X21283808Y-6845250D01*
X21236314Y-6959909D01*
X21229214Y-6977052D01*
X21225416Y-6986220D01*
X21205500Y-7137500D01*
X16594500Y-7137500D01*
X16574584Y-6986220D01*
X16570787Y-6977052D01*
X16563686Y-6959909D01*
X16516192Y-6845250D01*
X16423304Y-6724196D01*
X16302250Y-6631308D01*
X16161280Y-6572916D01*
X16112849Y-6566540D01*
X16052067Y-6558538D01*
X16052066Y-6558538D01*
X16047980Y-6558000D01*
X15972020Y-6558000D01*
X15967934Y-6558538D01*
X15967933Y-6558538D01*
X15907151Y-6566540D01*
X15858720Y-6572916D01*
X15717750Y-6631308D01*
X15596696Y-6724196D01*
X15503808Y-6845250D01*
X15475807Y-6912849D01*
X15448576Y-6978592D01*
X15445416Y-6986220D01*
X15444388Y-6994025D01*
X15407528Y-7054498D01*
X15343667Y-7085519D01*
X15273173Y-7077089D01*
X15218427Y-7031886D01*
X15197769Y-6977056D01*
X15195545Y-6959455D01*
X15147735Y-6838699D01*
X15139823Y-6818714D01*
X15139821Y-6818711D01*
X15136903Y-6811340D01*
X15091475Y-6748814D01*
X15047928Y-6688876D01*
X15047925Y-6688873D01*
X15043268Y-6682463D01*
X14920524Y-6580920D01*
X14776384Y-6513093D01*
X14669731Y-6492748D01*
X14627690Y-6484728D01*
X14627688Y-6484728D01*
X14619904Y-6483243D01*
X14540410Y-6488245D01*
X14468828Y-6492748D01*
X14468826Y-6492748D01*
X14460917Y-6493246D01*
X14453381Y-6495695D01*
X14453379Y-6495695D01*
X14431737Y-6502727D01*
X14309413Y-6542472D01*
X14174910Y-6627830D01*
X14065861Y-6743956D01*
X13989117Y-6883553D01*
X13949500Y-7037849D01*
X13949500Y-8257166D01*
X400500Y-8257166D01*
X400500Y-6118580D01*
X8468752Y-6118580D01*
X8493477Y-6236421D01*
X8496537Y-6246617D01*
X8577263Y-6451029D01*
X8581994Y-6460561D01*
X8696016Y-6648462D01*
X8702280Y-6657052D01*
X8846327Y-6823052D01*
X8853958Y-6830472D01*
X9023911Y-6969826D01*
X9032678Y-6975850D01*
X9223682Y-7084576D01*
X9233346Y-7089041D01*
X9439941Y-7164031D01*
X9450208Y-7166802D01*
X9667655Y-7206123D01*
X9675884Y-7207056D01*
X9680376Y-7207268D01*
X9693124Y-7203525D01*
X9694329Y-7202135D01*
X9696000Y-7194452D01*
X9696000Y-7185970D01*
X10204000Y-7185970D01*
X10208310Y-7200648D01*
X10220193Y-7202711D01*
X10324325Y-7193876D01*
X10334797Y-7192086D01*
X10547535Y-7136870D01*
X10557575Y-7133335D01*
X10757970Y-7043063D01*
X10767256Y-7037894D01*
X10949575Y-6915150D01*
X10957870Y-6908481D01*
X11116900Y-6756772D01*
X11123941Y-6748814D01*
X11255141Y-6572475D01*
X11260745Y-6563438D01*
X11360357Y-6367516D01*
X11364357Y-6357665D01*
X11377182Y-6316362D01*
X28237966Y-6316362D01*
X28253186Y-6471585D01*
X28256097Y-6485280D01*
X28305327Y-6633270D01*
X28307729Y-6638468D01*
X28315717Y-6645772D01*
X28324338Y-6642109D01*
X28633635Y-6332812D01*
X28640013Y-6321132D01*
X29358751Y-6321132D01*
X29358882Y-6322965D01*
X29363133Y-6329580D01*
X29637188Y-6603635D01*
X29651132Y-6611249D01*
X29652965Y-6611118D01*
X29659580Y-6606867D01*
X29933635Y-6332812D01*
X29940013Y-6321132D01*
X30658751Y-6321132D01*
X30658882Y-6322965D01*
X30663133Y-6329580D01*
X30937188Y-6603635D01*
X30951132Y-6611249D01*
X30952965Y-6611118D01*
X30959580Y-6606867D01*
X31233635Y-6332812D01*
X31240013Y-6321132D01*
X31958751Y-6321132D01*
X31958882Y-6322965D01*
X31963133Y-6329580D01*
X32272178Y-6638625D01*
X32284558Y-6645385D01*
X32288374Y-6642528D01*
X32336331Y-6516283D01*
X32339811Y-6502727D01*
X32361948Y-6345221D01*
X32362554Y-6337338D01*
X32362741Y-6323962D01*
X32362354Y-6316062D01*
X32344625Y-6158003D01*
X32341523Y-6144350D01*
X32290700Y-5998407D01*
X32285141Y-5993467D01*
X32276088Y-5997465D01*
X31966365Y-6307188D01*
X31958751Y-6321132D01*
X31240013Y-6321132D01*
X31241249Y-6318868D01*
X31241118Y-6317035D01*
X31236867Y-6310420D01*
X30962812Y-6036365D01*
X30948868Y-6028751D01*
X30947035Y-6028882D01*
X30940420Y-6033133D01*
X30666365Y-6307188D01*
X30658751Y-6321132D01*
X29940013Y-6321132D01*
X29941249Y-6318868D01*
X29941118Y-6317035D01*
X29936867Y-6310420D01*
X29662812Y-6036365D01*
X29648868Y-6028751D01*
X29647035Y-6028882D01*
X29640420Y-6033133D01*
X29366365Y-6307188D01*
X29358751Y-6321132D01*
X28640013Y-6321132D01*
X28641249Y-6318868D01*
X28641118Y-6317035D01*
X28636867Y-6310420D01*
X28327039Y-6000592D01*
X28314659Y-5993832D01*
X28311037Y-5996543D01*
X28261001Y-6134016D01*
X28257709Y-6147625D01*
X28238162Y-6302356D01*
X28237966Y-6316362D01*
X11377182Y-6316362D01*
X11429534Y-6147760D01*
X11431817Y-6137376D01*
X11433861Y-6121957D01*
X11431665Y-6107793D01*
X11418478Y-6104000D01*
X10222115Y-6104000D01*
X10206876Y-6108475D01*
X10205671Y-6109865D01*
X10204000Y-6117548D01*
X10204000Y-7185970D01*
X9696000Y-7185970D01*
X9696000Y-6122115D01*
X9691525Y-6106876D01*
X9690135Y-6105671D01*
X9682452Y-6104000D01*
X8483808Y-6104000D01*
X8470277Y-6107973D01*
X8468752Y-6118580D01*
X400500Y-6118580D01*
X400500Y-5635302D01*
X28673860Y-5635302D01*
X28677684Y-5644131D01*
X28987188Y-5953635D01*
X29001132Y-5961249D01*
X29002965Y-5961118D01*
X29009580Y-5956867D01*
X29319847Y-5646600D01*
X29326016Y-5635302D01*
X29973860Y-5635302D01*
X29977684Y-5644131D01*
X30287188Y-5953635D01*
X30301132Y-5961249D01*
X30302965Y-5961118D01*
X30309580Y-5956867D01*
X30619847Y-5646600D01*
X30626016Y-5635302D01*
X31273860Y-5635302D01*
X31277684Y-5644131D01*
X31587188Y-5953635D01*
X31601132Y-5961249D01*
X31602965Y-5961118D01*
X31609580Y-5956867D01*
X31919847Y-5646600D01*
X31926607Y-5634220D01*
X31924022Y-5630766D01*
X31923722Y-5630606D01*
X31780820Y-5579720D01*
X31767195Y-5576524D01*
X31612318Y-5558057D01*
X31598321Y-5557959D01*
X31443207Y-5574262D01*
X31429533Y-5577268D01*
X31281884Y-5627532D01*
X31280113Y-5628366D01*
X31273860Y-5635302D01*
X30626016Y-5635302D01*
X30626607Y-5634220D01*
X30624022Y-5630766D01*
X30623722Y-5630606D01*
X30480820Y-5579720D01*
X30467195Y-5576524D01*
X30312318Y-5558057D01*
X30298321Y-5557959D01*
X30143207Y-5574262D01*
X30129533Y-5577268D01*
X29981884Y-5627532D01*
X29980113Y-5628366D01*
X29973860Y-5635302D01*
X29326016Y-5635302D01*
X29326607Y-5634220D01*
X29324022Y-5630766D01*
X29323722Y-5630606D01*
X29180820Y-5579720D01*
X29167195Y-5576524D01*
X29012318Y-5558057D01*
X28998321Y-5557959D01*
X28843207Y-5574262D01*
X28829533Y-5577268D01*
X28681884Y-5627532D01*
X28680113Y-5628366D01*
X28673860Y-5635302D01*
X400500Y-5635302D01*
X400500Y-5578043D01*
X8466139Y-5578043D01*
X8468335Y-5592207D01*
X8481522Y-5596000D01*
X11416192Y-5596000D01*
X11429723Y-5592027D01*
X11431248Y-5581420D01*
X11406523Y-5463579D01*
X11403463Y-5453383D01*
X11322737Y-5248971D01*
X11318006Y-5239439D01*
X11203984Y-5051538D01*
X11197720Y-5042948D01*
X11053673Y-4876948D01*
X11046042Y-4869528D01*
X10876089Y-4730174D01*
X10867322Y-4724150D01*
X10676318Y-4615424D01*
X10666654Y-4610959D01*
X10567422Y-4574939D01*
X10510214Y-4532894D01*
X10484818Y-4466595D01*
X10499298Y-4397091D01*
X10549056Y-4346448D01*
X10610413Y-4330500D01*
X10736062Y-4330500D01*
X10810852Y-4319491D01*
X10851113Y-4299724D01*
X10915212Y-4268253D01*
X10915214Y-4268252D01*
X10924560Y-4263663D01*
X11014054Y-4174013D01*
X11020394Y-4161044D01*
X11063788Y-4072266D01*
X11069683Y-4060207D01*
X11080500Y-3986062D01*
X11080500Y-3827166D01*
X13949500Y-3827166D01*
X13964455Y-3945545D01*
X13982288Y-3990587D01*
X14016625Y-4077313D01*
X14023097Y-4093660D01*
X14027759Y-4100076D01*
X14112072Y-4216124D01*
X14112075Y-4216127D01*
X14116732Y-4222537D01*
X14239476Y-4324080D01*
X14383616Y-4391907D01*
X14474820Y-4409305D01*
X14532310Y-4420272D01*
X14532312Y-4420272D01*
X14540096Y-4421757D01*
X14619590Y-4416755D01*
X14691172Y-4412252D01*
X14691174Y-4412252D01*
X14699083Y-4411754D01*
X14706619Y-4409305D01*
X14706621Y-4409305D01*
X14755596Y-4393392D01*
X14850587Y-4362528D01*
X14985090Y-4277170D01*
X14993112Y-4268628D01*
X15088714Y-4166821D01*
X15094139Y-4161044D01*
X15170883Y-4021447D01*
X15210500Y-3867151D01*
X15210500Y-3827166D01*
X22589500Y-3827166D01*
X22604455Y-3945545D01*
X22622288Y-3990587D01*
X22656625Y-4077313D01*
X22663097Y-4093660D01*
X22667759Y-4100076D01*
X22752072Y-4216124D01*
X22752075Y-4216127D01*
X22756732Y-4222537D01*
X22879476Y-4324080D01*
X23023616Y-4391907D01*
X23114820Y-4409305D01*
X23172310Y-4420272D01*
X23172312Y-4420272D01*
X23180096Y-4421757D01*
X23259590Y-4416755D01*
X23331172Y-4412252D01*
X23331174Y-4412252D01*
X23339083Y-4411754D01*
X23346619Y-4409305D01*
X23346621Y-4409305D01*
X23395596Y-4393392D01*
X23490587Y-4362528D01*
X23625090Y-4277170D01*
X23633112Y-4268628D01*
X23728714Y-4166821D01*
X23734139Y-4161044D01*
X23810883Y-4021447D01*
X23850500Y-3867151D01*
X23850500Y-3500000D01*
X37214596Y-3500000D01*
X37234194Y-3811504D01*
X37292680Y-4118095D01*
X37344367Y-4277170D01*
X37387628Y-4410314D01*
X37389130Y-4414938D01*
X37390817Y-4418524D01*
X37390819Y-4418528D01*
X37520336Y-4693767D01*
X37520340Y-4693774D01*
X37522024Y-4697353D01*
X37689266Y-4960884D01*
X37888218Y-5201376D01*
X38115744Y-5415037D01*
X38368254Y-5598496D01*
X38455755Y-5646600D01*
X38554235Y-5700740D01*
X38641766Y-5748861D01*
X38783310Y-5804902D01*
X38928285Y-5862302D01*
X38928288Y-5862303D01*
X38931968Y-5863760D01*
X38935802Y-5864744D01*
X38935810Y-5864747D01*
X39122687Y-5912728D01*
X39234282Y-5941381D01*
X39238210Y-5941877D01*
X39238214Y-5941878D01*
X39331282Y-5953635D01*
X39543940Y-5980500D01*
X39856060Y-5980500D01*
X40068718Y-5953635D01*
X40161786Y-5941878D01*
X40161790Y-5941877D01*
X40165718Y-5941381D01*
X40277313Y-5912728D01*
X40464190Y-5864747D01*
X40464198Y-5864744D01*
X40468032Y-5863760D01*
X40471712Y-5862303D01*
X40471715Y-5862302D01*
X40616690Y-5804902D01*
X40758234Y-5748861D01*
X40845766Y-5700740D01*
X40944245Y-5646600D01*
X41031746Y-5598496D01*
X41284256Y-5415037D01*
X41511782Y-5201376D01*
X41710734Y-4960884D01*
X41877976Y-4697353D01*
X41879660Y-4693774D01*
X41879664Y-4693767D01*
X42009181Y-4418528D01*
X42009183Y-4418524D01*
X42010870Y-4414938D01*
X42012373Y-4410314D01*
X42055633Y-4277170D01*
X42107320Y-4118095D01*
X42165806Y-3811504D01*
X42179229Y-3598144D01*
X46940620Y-3598144D01*
X46970406Y-3795098D01*
X47039187Y-3982040D01*
X47042547Y-3987460D01*
X47042548Y-3987461D01*
X47140790Y-4145910D01*
X47140793Y-4145914D01*
X47144153Y-4151333D01*
X47148539Y-4155971D01*
X47263152Y-4277170D01*
X47281017Y-4296062D01*
X47444186Y-4410314D01*
X47626997Y-4489424D01*
X47821981Y-4530158D01*
X47828507Y-4530500D01*
X48224785Y-4530500D01*
X48297816Y-4523082D01*
X48366825Y-4516072D01*
X48366826Y-4516072D01*
X48373174Y-4515427D01*
X48563252Y-4455860D01*
X48737471Y-4359289D01*
X48888713Y-4229659D01*
X48894238Y-4222537D01*
X49006885Y-4077313D01*
X49010800Y-4072266D01*
X49013618Y-4066540D01*
X49095930Y-3899260D01*
X49095932Y-3899255D01*
X49098745Y-3893538D01*
X49115010Y-3831097D01*
X49147344Y-3706960D01*
X49148955Y-3700776D01*
X49159380Y-3501856D01*
X49129594Y-3304902D01*
X49060813Y-3117960D01*
X49004871Y-3027734D01*
X48959210Y-2954090D01*
X48959207Y-2954086D01*
X48955847Y-2948667D01*
X48886111Y-2874924D01*
X48823372Y-2808579D01*
X48823371Y-2808578D01*
X48818983Y-2803938D01*
X48655814Y-2689686D01*
X48473003Y-2610576D01*
X48278019Y-2569842D01*
X48273177Y-2569588D01*
X48273172Y-2569588D01*
X48271493Y-2569500D01*
X47875215Y-2569500D01*
X47802184Y-2576918D01*
X47733175Y-2583928D01*
X47733174Y-2583928D01*
X47726826Y-2584573D01*
X47536748Y-2644140D01*
X47531159Y-2647238D01*
X47515406Y-2655970D01*
X47362529Y-2740711D01*
X47211287Y-2870341D01*
X47207376Y-2875383D01*
X47207375Y-2875384D01*
X47152129Y-2946607D01*
X47089200Y-3027734D01*
X47086384Y-3033457D01*
X47086382Y-3033460D01*
X47004070Y-3200740D01*
X47004068Y-3200745D01*
X47001255Y-3206462D01*
X46951045Y-3399224D01*
X46940620Y-3598144D01*
X42179229Y-3598144D01*
X42185404Y-3500000D01*
X42165806Y-3188496D01*
X42107320Y-2881905D01*
X42049389Y-2703610D01*
X42012096Y-2588835D01*
X42012096Y-2588834D01*
X42010870Y-2585062D01*
X42001757Y-2565695D01*
X41879664Y-2306233D01*
X41879660Y-2306226D01*
X41877976Y-2302647D01*
X41710734Y-2039116D01*
X41511782Y-1798624D01*
X41284256Y-1584963D01*
X41251979Y-1561512D01*
X41185775Y-1513412D01*
X41031746Y-1401504D01*
X40758234Y-1251139D01*
X40540475Y-1164922D01*
X40471715Y-1137698D01*
X40471712Y-1137697D01*
X40468032Y-1136240D01*
X40464198Y-1135256D01*
X40464190Y-1135253D01*
X40277313Y-1087272D01*
X40165718Y-1058619D01*
X40161790Y-1058123D01*
X40161786Y-1058122D01*
X40039356Y-1042656D01*
X39856060Y-1019500D01*
X39543940Y-1019500D01*
X39360644Y-1042656D01*
X39238214Y-1058122D01*
X39238210Y-1058123D01*
X39234282Y-1058619D01*
X39122687Y-1087272D01*
X38935810Y-1135253D01*
X38935802Y-1135256D01*
X38931968Y-1136240D01*
X38928288Y-1137697D01*
X38928285Y-1137698D01*
X38859525Y-1164922D01*
X38641766Y-1251139D01*
X38368254Y-1401504D01*
X38214225Y-1513412D01*
X38148022Y-1561512D01*
X38115744Y-1584963D01*
X37888218Y-1798624D01*
X37689266Y-2039116D01*
X37522024Y-2302647D01*
X37520340Y-2306226D01*
X37520336Y-2306233D01*
X37398243Y-2565695D01*
X37389130Y-2585062D01*
X37387904Y-2588834D01*
X37387904Y-2588835D01*
X37350611Y-2703610D01*
X37292680Y-2881905D01*
X37234194Y-3188496D01*
X37214596Y-3500000D01*
X23850500Y-3500000D01*
X23850500Y-3147834D01*
X23835545Y-3029455D01*
X23776903Y-2881340D01*
X23732990Y-2820899D01*
X23687928Y-2758876D01*
X23687925Y-2758873D01*
X23683268Y-2752463D01*
X23560524Y-2650920D01*
X23416384Y-2583093D01*
X23309731Y-2562748D01*
X23267690Y-2554728D01*
X23267688Y-2554728D01*
X23259904Y-2553243D01*
X23180410Y-2558245D01*
X23108828Y-2562748D01*
X23108826Y-2562748D01*
X23100917Y-2563246D01*
X23093381Y-2565695D01*
X23093379Y-2565695D01*
X23080616Y-2569842D01*
X22949413Y-2612472D01*
X22814910Y-2697830D01*
X22809483Y-2703609D01*
X22809482Y-2703610D01*
X22795489Y-2718511D01*
X22705861Y-2813956D01*
X22629117Y-2953553D01*
X22589500Y-3107849D01*
X22589500Y-3827166D01*
X15210500Y-3827166D01*
X15210500Y-3147834D01*
X15195545Y-3029455D01*
X15136903Y-2881340D01*
X15092990Y-2820899D01*
X15047928Y-2758876D01*
X15047925Y-2758873D01*
X15043268Y-2752463D01*
X14920524Y-2650920D01*
X14776384Y-2583093D01*
X14669731Y-2562748D01*
X14627690Y-2554728D01*
X14627688Y-2554728D01*
X14619904Y-2553243D01*
X14540410Y-2558245D01*
X14468828Y-2562748D01*
X14468826Y-2562748D01*
X14460917Y-2563246D01*
X14453381Y-2565695D01*
X14453379Y-2565695D01*
X14440616Y-2569842D01*
X14309413Y-2612472D01*
X14174910Y-2697830D01*
X14169483Y-2703609D01*
X14169482Y-2703610D01*
X14155489Y-2718511D01*
X14065861Y-2813956D01*
X13989117Y-2953553D01*
X13949500Y-3107849D01*
X13949500Y-3827166D01*
X11080500Y-3827166D01*
X11080500Y-2713938D01*
X11069491Y-2639148D01*
X11065174Y-2630355D01*
X11018253Y-2534788D01*
X11018252Y-2534786D01*
X11013663Y-2525440D01*
X10924013Y-2435946D01*
X10914657Y-2431373D01*
X10914656Y-2431372D01*
X10873889Y-2411445D01*
X10810207Y-2380317D01*
X10759130Y-2372865D01*
X10740587Y-2370160D01*
X10740585Y-2370160D01*
X10736062Y-2369500D01*
X9163938Y-2369500D01*
X9089148Y-2380509D01*
X9080356Y-2384826D01*
X9080355Y-2384826D01*
X8984788Y-2431747D01*
X8984786Y-2431748D01*
X8975440Y-2436337D01*
X8885946Y-2525987D01*
X8881373Y-2535343D01*
X8881372Y-2535344D01*
X8864677Y-2569500D01*
X8830317Y-2639793D01*
X8819500Y-2713938D01*
X8819500Y-3986062D01*
X8830509Y-4060852D01*
X8834826Y-4069644D01*
X8834826Y-4069645D01*
X8872271Y-4145910D01*
X8886337Y-4174560D01*
X8975987Y-4264054D01*
X8985343Y-4268627D01*
X8985344Y-4268628D01*
X9011512Y-4281419D01*
X9089793Y-4319683D01*
X9140870Y-4327135D01*
X9159413Y-4329840D01*
X9159415Y-4329840D01*
X9163938Y-4330500D01*
X9280203Y-4330500D01*
X9348324Y-4350502D01*
X9394817Y-4404158D01*
X9404921Y-4474432D01*
X9375427Y-4539012D01*
X9331954Y-4571382D01*
X9142030Y-4656937D01*
X9132744Y-4662106D01*
X8950425Y-4784850D01*
X8942130Y-4791519D01*
X8783100Y-4943228D01*
X8776059Y-4951186D01*
X8644859Y-5127525D01*
X8639255Y-5136562D01*
X8539643Y-5332484D01*
X8535643Y-5342335D01*
X8470466Y-5552240D01*
X8468183Y-5562624D01*
X8466139Y-5578043D01*
X400500Y-5578043D01*
X400500Y-1700000D01*
X24564922Y-1700000D01*
X24583154Y-1838488D01*
X24636609Y-1967539D01*
X24721643Y-2078357D01*
X24832461Y-2163391D01*
X24961512Y-2216846D01*
X25100000Y-2235078D01*
X25108188Y-2234000D01*
X25230300Y-2217924D01*
X25238488Y-2216846D01*
X25367539Y-2163391D01*
X25478357Y-2078357D01*
X25563391Y-1967539D01*
X25616846Y-1838488D01*
X25635078Y-1700000D01*
X25616846Y-1561512D01*
X25563391Y-1432461D01*
X25478357Y-1321643D01*
X25367539Y-1236609D01*
X25238488Y-1183154D01*
X25100000Y-1164922D01*
X24961512Y-1183154D01*
X24832461Y-1236609D01*
X24721643Y-1321643D01*
X24636609Y-1432461D01*
X24583154Y-1561512D01*
X24564922Y-1700000D01*
X400500Y-1700000D01*
X400500Y-541436D01*
X402051Y-521727D01*
X404093Y-508833D01*
X434504Y-444680D01*
X494772Y-407152D01*
X508833Y-404093D01*
X521727Y-402051D01*
X541436Y-400500D01*
X57458564Y-400500D01*
X57478273Y-402051D01*
G37*
%TD.AperFunction*%
%TD*%
M02*
