%TF.GenerationSoftware,KiCad,Pcbnew,(6.0.7)*%
%TF.CreationDate,2023-08-26T21:57:55+08:00*%
%TF.ProjectId,ESP32_C3_motor_driver_V4,45535033-325f-4433-935f-6d6f746f725f,rev?*%
%TF.SameCoordinates,PX5ae29a0PY2d4cae0*%
%TF.FileFunction,Legend,Bot*%
%TF.FilePolarity,Positive*%
%FSLAX46Y46*%
G04 Gerber Fmt 4.6, Leading zero omitted, Abs format (unit mm)*
G04 Created by KiCad (PCBNEW (6.0.7)) date 2023-08-26 21:57:55*
%MOMM*%
%LPD*%
G01*
G04 APERTURE LIST*
%ADD10C,0.150000*%
G04 APERTURE END LIST*
D10*
X55252380Y-2580952D02*
X55966666Y-2580952D01*
X56109523Y-2533333D01*
X56204761Y-2438095D01*
X56252380Y-2295238D01*
X56252380Y-2200000D01*
X56252380Y-3533333D02*
X56252380Y-3057142D01*
X55252380Y-3057142D01*
X56157142Y-4438095D02*
X56204761Y-4390476D01*
X56252380Y-4247619D01*
X56252380Y-4152380D01*
X56204761Y-4009523D01*
X56109523Y-3914285D01*
X56014285Y-3866666D01*
X55823809Y-3819047D01*
X55680952Y-3819047D01*
X55490476Y-3866666D01*
X55395238Y-3914285D01*
X55300000Y-4009523D01*
X55252380Y-4152380D01*
X55252380Y-4247619D01*
X55300000Y-4390476D01*
X55347619Y-4438095D01*
X55252380Y-5152380D02*
X55966666Y-5152380D01*
X56109523Y-5104761D01*
X56204761Y-5009523D01*
X56252380Y-4866666D01*
X56252380Y-4771428D01*
X56252380Y-6104761D02*
X56252380Y-5628571D01*
X55252380Y-5628571D01*
X56157142Y-7009523D02*
X56204761Y-6961904D01*
X56252380Y-6819047D01*
X56252380Y-6723809D01*
X56204761Y-6580952D01*
X56109523Y-6485714D01*
X56014285Y-6438095D01*
X55823809Y-6390476D01*
X55680952Y-6390476D01*
X55490476Y-6438095D01*
X55395238Y-6485714D01*
X55300000Y-6580952D01*
X55252380Y-6723809D01*
X55252380Y-6819047D01*
X55300000Y-6961904D01*
X55347619Y-7009523D01*
X55252380Y-7723809D02*
X55966666Y-7723809D01*
X56109523Y-7676190D01*
X56204761Y-7580952D01*
X56252380Y-7438095D01*
X56252380Y-7342857D01*
X56252380Y-8676190D02*
X56252380Y-8200000D01*
X55252380Y-8200000D01*
X56157142Y-9580952D02*
X56204761Y-9533333D01*
X56252380Y-9390476D01*
X56252380Y-9295238D01*
X56204761Y-9152380D01*
X56109523Y-9057142D01*
X56014285Y-9009523D01*
X55823809Y-8961904D01*
X55680952Y-8961904D01*
X55490476Y-9009523D01*
X55395238Y-9057142D01*
X55300000Y-9152380D01*
X55252380Y-9295238D01*
X55252380Y-9390476D01*
X55300000Y-9533333D01*
X55347619Y-9580952D01*
X55252380Y-10295238D02*
X55966666Y-10295238D01*
X56109523Y-10247619D01*
X56204761Y-10152380D01*
X56252380Y-10009523D01*
X56252380Y-9914285D01*
X56252380Y-11247619D02*
X56252380Y-10771428D01*
X55252380Y-10771428D01*
X56157142Y-12152380D02*
X56204761Y-12104761D01*
X56252380Y-11961904D01*
X56252380Y-11866666D01*
X56204761Y-11723809D01*
X56109523Y-11628571D01*
X56014285Y-11580952D01*
X55823809Y-11533333D01*
X55680952Y-11533333D01*
X55490476Y-11580952D01*
X55395238Y-11628571D01*
X55300000Y-11723809D01*
X55252380Y-11866666D01*
X55252380Y-11961904D01*
X55300000Y-12104761D01*
X55347619Y-12152380D01*
%TO.C,G\u002A\u002A\u002A*%
G36*
X41969189Y-19819781D02*
G01*
X42131354Y-19903969D01*
X42213151Y-20021598D01*
X42259669Y-20208840D01*
X42229225Y-20366298D01*
X42100956Y-20536104D01*
X41908162Y-20629305D01*
X41689973Y-20630049D01*
X41485520Y-20522482D01*
X41388356Y-20455647D01*
X41347514Y-20480830D01*
X41359661Y-20524196D01*
X41452763Y-20604461D01*
X41533384Y-20657246D01*
X41548153Y-20733470D01*
X41456741Y-20770166D01*
X41362761Y-20808943D01*
X41246894Y-20925181D01*
X41223787Y-20956894D01*
X41134883Y-21033020D01*
X41053468Y-20995347D01*
X41005551Y-20954432D01*
X40912486Y-20910497D01*
X40914017Y-20951640D01*
X40996685Y-21050829D01*
X41088215Y-21185079D01*
X41137017Y-21366575D01*
X41126097Y-21458409D01*
X41024331Y-21644594D01*
X40847720Y-21772098D01*
X40635774Y-21827340D01*
X40428005Y-21796738D01*
X40263924Y-21666708D01*
X40223763Y-21603532D01*
X40149970Y-21367065D01*
X40206328Y-21162416D01*
X40385312Y-21003403D01*
X40679396Y-20903846D01*
X40806375Y-20876216D01*
X41072929Y-20770145D01*
X41235736Y-20603979D01*
X41318934Y-20357080D01*
X41331503Y-20291344D01*
X41427649Y-20004852D01*
X41575107Y-19840405D01*
X41782142Y-19787845D01*
X41969189Y-19819781D01*
G37*
G36*
X44205842Y-20491375D02*
G01*
X44406456Y-20500862D01*
X44517522Y-20523447D01*
X44565073Y-20564611D01*
X44575138Y-20629834D01*
X44568054Y-20690087D01*
X44518363Y-20741847D01*
X44393065Y-20764904D01*
X44159882Y-20770166D01*
X44154652Y-20770167D01*
X43844394Y-20780118D01*
X43650645Y-20814636D01*
X43550899Y-20881420D01*
X43522652Y-20988170D01*
X43523088Y-21004602D01*
X43544928Y-21066423D01*
X43620650Y-21101585D01*
X43779043Y-21117353D01*
X44048895Y-21120995D01*
X44233729Y-21121639D01*
X44427435Y-21129654D01*
X44529199Y-21154885D01*
X44568580Y-21207186D01*
X44575138Y-21296409D01*
X44573719Y-21351769D01*
X44551901Y-21419752D01*
X44479761Y-21455551D01*
X44327296Y-21469473D01*
X44064507Y-21471823D01*
X43883480Y-21468169D01*
X43582112Y-21434127D01*
X43397933Y-21362596D01*
X43339543Y-21308894D01*
X43257723Y-21151335D01*
X43247527Y-20986451D01*
X43318268Y-20871636D01*
X43356602Y-20832909D01*
X43318268Y-20748213D01*
X43242525Y-20654524D01*
X43239794Y-20574773D01*
X43342230Y-20524043D01*
X43561322Y-20497298D01*
X43908564Y-20489503D01*
X44205842Y-20491375D01*
G37*
G36*
X47451934Y-19121271D02*
G01*
X47450447Y-19177545D01*
X47428318Y-19245029D01*
X47355676Y-19280554D01*
X47202583Y-19294359D01*
X46939101Y-19296685D01*
X46835643Y-19297947D01*
X46505953Y-19325916D01*
X46294543Y-19388352D01*
X46207975Y-19482309D01*
X46252815Y-19604838D01*
X46283971Y-19634554D01*
X46398745Y-19684045D01*
X46595898Y-19710098D01*
X46904079Y-19717680D01*
X47114257Y-19718547D01*
X47307976Y-19726649D01*
X47408410Y-19750117D01*
X47443021Y-19797051D01*
X47439272Y-19875553D01*
X47415380Y-19958435D01*
X47349254Y-20010571D01*
X47208702Y-20038873D01*
X46960774Y-20055750D01*
X46631073Y-20057307D01*
X46280051Y-20009246D01*
X46046045Y-19905248D01*
X45935735Y-19747323D01*
X45926888Y-19615242D01*
X46022761Y-19423938D01*
X46032427Y-19412912D01*
X46104383Y-19300049D01*
X46066160Y-19245504D01*
X46018268Y-19206783D01*
X45978453Y-19080341D01*
X45978628Y-19069354D01*
X45993493Y-19012873D01*
X46049887Y-18976792D01*
X46172504Y-18956600D01*
X46386041Y-18947791D01*
X46715193Y-18945856D01*
X47451934Y-18945856D01*
X47451934Y-19121271D01*
G37*
G36*
X46912135Y-23787504D02*
G01*
X47175825Y-23791113D01*
X47336246Y-23803384D01*
X47417537Y-23829618D01*
X47443833Y-23875113D01*
X47439272Y-23945166D01*
X47435738Y-23967517D01*
X47412437Y-24031494D01*
X47353029Y-24072786D01*
X47231463Y-24097641D01*
X47021688Y-24112308D01*
X46697652Y-24123035D01*
X45978453Y-24143031D01*
X45978453Y-23787293D01*
X46720074Y-23787293D01*
X46912135Y-23787504D01*
G37*
G36*
X45718613Y-23875000D02*
G01*
X45721202Y-23938698D01*
X45657816Y-24061928D01*
X45566766Y-24123580D01*
X45459902Y-24074340D01*
X45408783Y-24010047D01*
X45393722Y-23887411D01*
X45400277Y-23873145D01*
X45499618Y-23799330D01*
X45630264Y-23799011D01*
X45718613Y-23875000D01*
G37*
G36*
X41252185Y-21862544D02*
G01*
X41269541Y-21879838D01*
X41452752Y-21998014D01*
X41673179Y-22072292D01*
X41701292Y-22077902D01*
X41925095Y-22155258D01*
X42101796Y-22264546D01*
X42215758Y-22423157D01*
X42243793Y-22629219D01*
X42169136Y-22820214D01*
X42007251Y-22960759D01*
X41773601Y-23015470D01*
X41671472Y-23000575D01*
X41474638Y-22884169D01*
X41332201Y-22684229D01*
X41277348Y-22439284D01*
X41239944Y-22265281D01*
X41080697Y-22036201D01*
X40963536Y-21907606D01*
X40936189Y-21828863D01*
X40992990Y-21770353D01*
X41009044Y-21761044D01*
X41119209Y-21755131D01*
X41252185Y-21862544D01*
G37*
G36*
X45025865Y-16309425D02*
G01*
X45065224Y-16437431D01*
X45064783Y-16460767D01*
X45036982Y-16623422D01*
X44954074Y-16743011D01*
X44799135Y-16825553D01*
X44555239Y-16877062D01*
X44205463Y-16903556D01*
X43732882Y-16911050D01*
X43632424Y-16911037D01*
X43288575Y-16909721D01*
X43058087Y-16903512D01*
X42919156Y-16888581D01*
X42849976Y-16861100D01*
X42828745Y-16817242D01*
X42833656Y-16753177D01*
X42836418Y-16735022D01*
X42854585Y-16677234D01*
X42901315Y-16637301D01*
X42998956Y-16611205D01*
X43169860Y-16594931D01*
X43436376Y-16584462D01*
X43820856Y-16575782D01*
X43831855Y-16575559D01*
X44213711Y-16566554D01*
X44477474Y-16555376D01*
X44644847Y-16538474D01*
X44737530Y-16512296D01*
X44777226Y-16473292D01*
X44785635Y-16417910D01*
X44808430Y-16329432D01*
X44925967Y-16279558D01*
X45025865Y-16309425D01*
G37*
G36*
X40768950Y-18550778D02*
G01*
X40950630Y-18680801D01*
X41084720Y-18883672D01*
X41137017Y-19118081D01*
X41148924Y-19227390D01*
X41226209Y-19430034D01*
X41349374Y-19585454D01*
X41487845Y-19647514D01*
X41547282Y-19669210D01*
X41536490Y-19755763D01*
X41426102Y-19885471D01*
X41352700Y-19947480D01*
X41292007Y-19952956D01*
X41252370Y-19838210D01*
X41224558Y-19768285D01*
X41079789Y-19626057D01*
X40861520Y-19540593D01*
X40609439Y-19513319D01*
X40363234Y-19545663D01*
X40162594Y-19639049D01*
X40047207Y-19794904D01*
X40024696Y-19856751D01*
X39978847Y-19881260D01*
X39883930Y-19801798D01*
X39835141Y-19752180D01*
X39800549Y-19678310D01*
X39869978Y-19617524D01*
X39922117Y-19583363D01*
X40094380Y-19381038D01*
X40152465Y-19100540D01*
X40176329Y-18957599D01*
X40287575Y-18745990D01*
X40456426Y-18587344D01*
X40645856Y-18524862D01*
X40768950Y-18550778D01*
G37*
G36*
X40266897Y-21758256D02*
G01*
X40311261Y-21806743D01*
X40302178Y-21883663D01*
X40191896Y-22002250D01*
X40059940Y-22184264D01*
X39970210Y-22459983D01*
X39907868Y-22681784D01*
X39767559Y-22894462D01*
X39582602Y-23005701D01*
X39376405Y-23003320D01*
X39172376Y-22875138D01*
X39144198Y-22844584D01*
X39044655Y-22638492D01*
X39057680Y-22422043D01*
X39166659Y-22227497D01*
X39354978Y-22087113D01*
X39606022Y-22033149D01*
X39776525Y-21996640D01*
X39988909Y-21854486D01*
X40066957Y-21781841D01*
X40176612Y-21722892D01*
X40266897Y-21758256D01*
G37*
G36*
X40049070Y-20558478D02*
G01*
X40118089Y-20671488D01*
X40265747Y-20785577D01*
X40362822Y-20833719D01*
X40388726Y-20883524D01*
X40301419Y-20956017D01*
X40202382Y-21004146D01*
X40104978Y-20976209D01*
X39962625Y-20857176D01*
X39912940Y-20810221D01*
X39815844Y-20701678D01*
X39808611Y-20625780D01*
X39879320Y-20536659D01*
X39949908Y-20466741D01*
X40006444Y-20455341D01*
X40049070Y-20558478D01*
G37*
G36*
X47451934Y-14946409D02*
G01*
X47451930Y-14961165D01*
X47447712Y-15188322D01*
X47426224Y-15309780D01*
X47373736Y-15358489D01*
X47276519Y-15367403D01*
X47173188Y-15355887D01*
X47114211Y-15287899D01*
X47101105Y-15121823D01*
X47100477Y-15049358D01*
X47080000Y-14929583D01*
X47000141Y-14883678D01*
X46820442Y-14876243D01*
X46737625Y-14876792D01*
X46600738Y-14894710D01*
X46548276Y-14964587D01*
X46539779Y-15121823D01*
X46535192Y-15232689D01*
X46496167Y-15339932D01*
X46399448Y-15367403D01*
X46336096Y-15359376D01*
X46274814Y-15291082D01*
X46259116Y-15121823D01*
X46259086Y-15103131D01*
X46245633Y-14948386D01*
X46178132Y-14887105D01*
X46013536Y-14876243D01*
X45994844Y-14876274D01*
X45840099Y-14889726D01*
X45778818Y-14957228D01*
X45767956Y-15121823D01*
X45763369Y-15232689D01*
X45724344Y-15339932D01*
X45627624Y-15367403D01*
X45565469Y-15359664D01*
X45514906Y-15308597D01*
X45492413Y-15181543D01*
X45487293Y-14946409D01*
X45487293Y-14525414D01*
X47451934Y-14525414D01*
X47451934Y-14946409D01*
G37*
G36*
X38424376Y-18469332D02*
G01*
X38613240Y-18578212D01*
X38761524Y-18753262D01*
X38821547Y-18946381D01*
X38846480Y-19179246D01*
X38953479Y-19433016D01*
X39131958Y-19587684D01*
X39304855Y-19666461D01*
X39150908Y-19791454D01*
X39053916Y-19865104D01*
X38991904Y-19873453D01*
X38949375Y-19789488D01*
X38819467Y-19611831D01*
X38587608Y-19484118D01*
X38295304Y-19437017D01*
X38201695Y-19440235D01*
X37924592Y-19509593D01*
X37745053Y-19675610D01*
X37652748Y-19946474D01*
X37616182Y-20092072D01*
X37495435Y-20328023D01*
X37329756Y-20495801D01*
X37148532Y-20559669D01*
X37108259Y-20557403D01*
X36902663Y-20473104D01*
X36751805Y-20296656D01*
X36693186Y-20068508D01*
X36696233Y-20011485D01*
X36783334Y-19784526D01*
X36972902Y-19632699D01*
X37241129Y-19577348D01*
X37288310Y-19575791D01*
X37560597Y-19494446D01*
X37759988Y-19303117D01*
X37865444Y-19020570D01*
X37889528Y-18916323D01*
X37999951Y-18684599D01*
X38158405Y-18518356D01*
X38334155Y-18454696D01*
X38424376Y-18469332D01*
G37*
G36*
X39636711Y-19751856D02*
G01*
X39803867Y-19858011D01*
X39895398Y-19992261D01*
X39944199Y-20173757D01*
X39910023Y-20322346D01*
X39803867Y-20489503D01*
X39669617Y-20581033D01*
X39488122Y-20629834D01*
X39339533Y-20595658D01*
X39172376Y-20489503D01*
X39080845Y-20355253D01*
X39032044Y-20173757D01*
X39066220Y-20025168D01*
X39172376Y-19858011D01*
X39306626Y-19766481D01*
X39488122Y-19717680D01*
X39636711Y-19751856D01*
G37*
G36*
X46912135Y-22875350D02*
G01*
X47175825Y-22878958D01*
X47336246Y-22891230D01*
X47417537Y-22917464D01*
X47443833Y-22962958D01*
X47439272Y-23033011D01*
X47434515Y-23061013D01*
X47402056Y-23132533D01*
X47320938Y-23176707D01*
X47160632Y-23204273D01*
X46890608Y-23225967D01*
X46867502Y-23227524D01*
X46600662Y-23250976D01*
X46438522Y-23283497D01*
X46347773Y-23335882D01*
X46295102Y-23418923D01*
X46227892Y-23513310D01*
X46067063Y-23576796D01*
X45938536Y-23542254D01*
X45921487Y-23440880D01*
X46024411Y-23284116D01*
X46084577Y-23196332D01*
X46059494Y-23155801D01*
X46012328Y-23129409D01*
X45978453Y-23015470D01*
X45978882Y-22996589D01*
X45994873Y-22940387D01*
X46052256Y-22904821D01*
X46175762Y-22885211D01*
X46390125Y-22876876D01*
X46720074Y-22875138D01*
X46912135Y-22875350D01*
G37*
G36*
X46796831Y-17129239D02*
G01*
X46979245Y-17108814D01*
X47049159Y-17085253D01*
X47216742Y-17109122D01*
X47320926Y-17130046D01*
X47461393Y-17041923D01*
X47593116Y-16942714D01*
X47631794Y-16939506D01*
X47763159Y-16928612D01*
X47943094Y-17051381D01*
X48025547Y-17169646D01*
X48082053Y-17409438D01*
X48051949Y-17667853D01*
X47943823Y-17896531D01*
X47766261Y-18047115D01*
X47648581Y-18085122D01*
X47396482Y-18062471D01*
X47276960Y-18000464D01*
X47208119Y-17887947D01*
X47171271Y-17681551D01*
X47161319Y-17613684D01*
X47127861Y-17512339D01*
X47451934Y-17512339D01*
X47460050Y-17663159D01*
X47504207Y-17737440D01*
X47609807Y-17740377D01*
X47647951Y-17732842D01*
X47747723Y-17660354D01*
X47789667Y-17489917D01*
X47795080Y-17355872D01*
X47753861Y-17278296D01*
X47631794Y-17261879D01*
X47520882Y-17274673D01*
X47464231Y-17344362D01*
X47451934Y-17512339D01*
X47127861Y-17512339D01*
X47103466Y-17438448D01*
X47025956Y-17360461D01*
X46951235Y-17391299D01*
X46901752Y-17542542D01*
X46841056Y-17734782D01*
X46675352Y-17903823D01*
X46427797Y-17963536D01*
X46415963Y-17963627D01*
X46247622Y-17985349D01*
X46153867Y-18033702D01*
X46128772Y-18069161D01*
X46056564Y-18096398D01*
X45998845Y-17986572D01*
X45954708Y-17738335D01*
X45947723Y-17541997D01*
X46155942Y-17541997D01*
X46266032Y-17601534D01*
X46391021Y-17631412D01*
X46554704Y-17629135D01*
X46610651Y-17605022D01*
X46679281Y-17500117D01*
X46633333Y-17378821D01*
X46626553Y-17372627D01*
X46491934Y-17332194D01*
X46320967Y-17356808D01*
X46189533Y-17436591D01*
X46165896Y-17467609D01*
X46155942Y-17541997D01*
X45947723Y-17541997D01*
X45946595Y-17510277D01*
X46010300Y-17242280D01*
X46156495Y-17076198D01*
X46374943Y-17021535D01*
X46491934Y-17049175D01*
X46655404Y-17087797D01*
X46796831Y-17129239D01*
G37*
G36*
X44390261Y-19371944D02*
G01*
X44442060Y-19418703D01*
X44559665Y-19627197D01*
X44558175Y-19858308D01*
X44434807Y-20068508D01*
X44360055Y-20128472D01*
X44186840Y-20190790D01*
X43921794Y-20208840D01*
X43757254Y-20199976D01*
X43474043Y-20119733D01*
X43300764Y-19958658D01*
X43246713Y-19739218D01*
X43535837Y-19739218D01*
X43567785Y-19831302D01*
X43663904Y-19888143D01*
X43861125Y-19914923D01*
X43933928Y-19917715D01*
X44135548Y-19900694D01*
X44264578Y-19853707D01*
X44316665Y-19801162D01*
X44364641Y-19707352D01*
X44364637Y-19706730D01*
X44301526Y-19628091D01*
X44145931Y-19565869D01*
X43945296Y-19532797D01*
X43747064Y-19541607D01*
X43645921Y-19565189D01*
X43547095Y-19626994D01*
X43535837Y-19739218D01*
X43246713Y-19739218D01*
X43241989Y-19720039D01*
X43277298Y-19558629D01*
X43417419Y-19385178D01*
X43632740Y-19269487D01*
X43889297Y-19221854D01*
X43945296Y-19228374D01*
X44153126Y-19252574D01*
X44390261Y-19371944D01*
G37*
G36*
X46839923Y-25898867D02*
G01*
X46981821Y-25862977D01*
X47073297Y-25825857D01*
X47228784Y-25868080D01*
X47241630Y-25875910D01*
X47352103Y-25905313D01*
X47440119Y-25814944D01*
X47576911Y-25701473D01*
X47631794Y-25701883D01*
X47756774Y-25702818D01*
X47943094Y-25822100D01*
X47955626Y-25835201D01*
X48063007Y-26042341D01*
X48076283Y-26289144D01*
X48007083Y-26532689D01*
X47867034Y-26730058D01*
X47667766Y-26838331D01*
X47578139Y-26853408D01*
X47356776Y-26827699D01*
X47218102Y-26689624D01*
X47157748Y-26435732D01*
X47151839Y-26379332D01*
X47123616Y-26283057D01*
X47451934Y-26283057D01*
X47460050Y-26433877D01*
X47504207Y-26508158D01*
X47609807Y-26511096D01*
X47647951Y-26503560D01*
X47747723Y-26431073D01*
X47789667Y-26260635D01*
X47795080Y-26126590D01*
X47753861Y-26049014D01*
X47631794Y-26032597D01*
X47520882Y-26045392D01*
X47464231Y-26115080D01*
X47451934Y-26283057D01*
X47123616Y-26283057D01*
X47101324Y-26207011D01*
X47026397Y-26130709D01*
X46951670Y-26162200D01*
X46901752Y-26313260D01*
X46841056Y-26505500D01*
X46675352Y-26674541D01*
X46427797Y-26734254D01*
X46415963Y-26734345D01*
X46247622Y-26756067D01*
X46153867Y-26804420D01*
X46128772Y-26839879D01*
X46056564Y-26867116D01*
X45998845Y-26757290D01*
X45954708Y-26509053D01*
X45954058Y-26301824D01*
X46153173Y-26301824D01*
X46234194Y-26363505D01*
X46446225Y-26383426D01*
X46448287Y-26383422D01*
X46620464Y-26349556D01*
X46688078Y-26264180D01*
X46633333Y-26149540D01*
X46626816Y-26143602D01*
X46494287Y-26103589D01*
X46325111Y-26124226D01*
X46198151Y-26196926D01*
X46153173Y-26301824D01*
X45954058Y-26301824D01*
X45953836Y-26231063D01*
X46035308Y-25977173D01*
X46192056Y-25818450D01*
X46409082Y-25768846D01*
X46494287Y-25792711D01*
X46671388Y-25842314D01*
X46839923Y-25898867D01*
G37*
G36*
X45718613Y-18402072D02*
G01*
X45721202Y-18465770D01*
X45657816Y-18589000D01*
X45566766Y-18650652D01*
X45459902Y-18601412D01*
X45408783Y-18537118D01*
X45393722Y-18414483D01*
X45400277Y-18400216D01*
X45499618Y-18326402D01*
X45630264Y-18326083D01*
X45718613Y-18402072D01*
G37*
G36*
X44439420Y-17194181D02*
G01*
X44532646Y-17282808D01*
X44570973Y-17465345D01*
X44502504Y-17687486D01*
X44465708Y-17780253D01*
X44502504Y-17823205D01*
X44544733Y-17849536D01*
X44575138Y-17963536D01*
X44575127Y-17966920D01*
X44560299Y-18040360D01*
X44496759Y-18081511D01*
X44354001Y-18099345D01*
X44101519Y-18102833D01*
X43781165Y-18086644D01*
X43488068Y-18018356D01*
X43311586Y-17890072D01*
X43243063Y-17694706D01*
X43273844Y-17425172D01*
X43312980Y-17328425D01*
X43389253Y-17282329D01*
X43457810Y-17348340D01*
X43487569Y-17513599D01*
X43529964Y-17670565D01*
X43626086Y-17730759D01*
X43729100Y-17689567D01*
X43733671Y-17678912D01*
X43950595Y-17678912D01*
X43989481Y-17740189D01*
X44129846Y-17740752D01*
X44265160Y-17700818D01*
X44352656Y-17589911D01*
X44357692Y-17546502D01*
X44318807Y-17485225D01*
X44178442Y-17484663D01*
X44043127Y-17524596D01*
X43955631Y-17635503D01*
X43950595Y-17678912D01*
X43733671Y-17678912D01*
X43792171Y-17542542D01*
X43845011Y-17360729D01*
X43991509Y-17188726D01*
X44178442Y-17134302D01*
X44198427Y-17128484D01*
X44439420Y-17194181D01*
G37*
G36*
X46912135Y-18314576D02*
G01*
X47175825Y-18318184D01*
X47336246Y-18330456D01*
X47417537Y-18356690D01*
X47443833Y-18402185D01*
X47439272Y-18472238D01*
X47435738Y-18494589D01*
X47412437Y-18558566D01*
X47353029Y-18599858D01*
X47231463Y-18624713D01*
X47021688Y-18639380D01*
X46697652Y-18650107D01*
X45978453Y-18670103D01*
X45978453Y-18314365D01*
X46720074Y-18314365D01*
X46912135Y-18314576D01*
G37*
G36*
X43769387Y-18361911D02*
G01*
X43973843Y-18531851D01*
X44125384Y-18669439D01*
X44259014Y-18711507D01*
X44341241Y-18650380D01*
X44347301Y-18488906D01*
X44342772Y-18463103D01*
X44351415Y-18345750D01*
X44444537Y-18314365D01*
X44506924Y-18325061D01*
X44560946Y-18401306D01*
X44575138Y-18580995D01*
X44574313Y-18630084D01*
X44530409Y-18857256D01*
X44407441Y-18979521D01*
X44188389Y-19016022D01*
X44159053Y-19015378D01*
X43972330Y-18962009D01*
X43811357Y-18801396D01*
X43739503Y-18715003D01*
X43609755Y-18624765D01*
X43520422Y-18657146D01*
X43486243Y-18811679D01*
X43465332Y-18921479D01*
X43392441Y-18980890D01*
X43307926Y-18936281D01*
X43255205Y-18791453D01*
X43253127Y-18771146D01*
X43280412Y-18525915D01*
X43394399Y-18369157D01*
X43566815Y-18311085D01*
X43769387Y-18361911D01*
G37*
G36*
X46680111Y-21577072D02*
G01*
X46872996Y-21580436D01*
X47051100Y-21603818D01*
X47171702Y-21663113D01*
X47282595Y-21773940D01*
X47376014Y-21914422D01*
X47444456Y-22126328D01*
X47442355Y-22323020D01*
X47372002Y-22467885D01*
X47235684Y-22524309D01*
X47181764Y-22519157D01*
X47131869Y-22463135D01*
X47146678Y-22313986D01*
X47146115Y-22107801D01*
X47053102Y-21951444D01*
X46882016Y-21892818D01*
X46860234Y-21893658D01*
X46790725Y-21926551D01*
X46758283Y-22032001D01*
X46750276Y-22243646D01*
X46750276Y-22594475D01*
X46501507Y-22594475D01*
X46349748Y-22571880D01*
X46132385Y-22464519D01*
X45971285Y-22299318D01*
X45908287Y-22110417D01*
X45909193Y-22094929D01*
X45910074Y-22092476D01*
X46203583Y-22092476D01*
X46265661Y-22197035D01*
X46397245Y-22243646D01*
X46507262Y-22205395D01*
X46539779Y-22068232D01*
X46519692Y-21955793D01*
X46426968Y-21896570D01*
X46266433Y-21956976D01*
X46235155Y-21982883D01*
X46203583Y-22092476D01*
X45910074Y-22092476D01*
X45964012Y-21942336D01*
X46077627Y-21773940D01*
X46159306Y-21687587D01*
X46272517Y-21615779D01*
X46426968Y-21584792D01*
X46430187Y-21584146D01*
X46680111Y-21577072D01*
G37*
G36*
X46861755Y-20307280D02*
G01*
X47114354Y-20382604D01*
X47311324Y-20540169D01*
X47380235Y-20649163D01*
X47445737Y-20859508D01*
X47440800Y-21057195D01*
X47369443Y-21203907D01*
X47235684Y-21261326D01*
X47174962Y-21254313D01*
X47131431Y-21194290D01*
X47148819Y-21040299D01*
X47154903Y-21007382D01*
X47152869Y-20836592D01*
X47063488Y-20724553D01*
X46942179Y-20649343D01*
X46827977Y-20638493D01*
X46767804Y-20745830D01*
X46750276Y-20980663D01*
X46750276Y-21331492D01*
X46501507Y-21331492D01*
X46344601Y-21306913D01*
X46130643Y-21200111D01*
X45970986Y-21039529D01*
X45908287Y-20859133D01*
X45915186Y-20829492D01*
X46203583Y-20829492D01*
X46265661Y-20934051D01*
X46397245Y-20980663D01*
X46507262Y-20942411D01*
X46539779Y-20805249D01*
X46519692Y-20692810D01*
X46426968Y-20633586D01*
X46266433Y-20693993D01*
X46235155Y-20719900D01*
X46203583Y-20829492D01*
X45915186Y-20829492D01*
X45950101Y-20679483D01*
X46097700Y-20500299D01*
X46320677Y-20373574D01*
X46426968Y-20346833D01*
X46586279Y-20306752D01*
X46861755Y-20307280D01*
G37*
G36*
X43759442Y-24374665D02*
G01*
X43803315Y-24488950D01*
X43811342Y-24552302D01*
X43879636Y-24613584D01*
X44048895Y-24629282D01*
X44071262Y-24629472D01*
X44241221Y-24656687D01*
X44294475Y-24734530D01*
X44294031Y-24744116D01*
X44230530Y-24816956D01*
X44048895Y-24839779D01*
X43938030Y-24844366D01*
X43830786Y-24883391D01*
X43803315Y-24980111D01*
X43783780Y-25061945D01*
X43698066Y-25120442D01*
X43636690Y-25094396D01*
X43592818Y-24980111D01*
X43590646Y-24943886D01*
X43536398Y-24861832D01*
X43382321Y-24839779D01*
X43234581Y-24818088D01*
X43171823Y-24734530D01*
X43215206Y-24660661D01*
X43382321Y-24629282D01*
X43436658Y-24627834D01*
X43559738Y-24591669D01*
X43592818Y-24488950D01*
X43612352Y-24407116D01*
X43698066Y-24348619D01*
X43759442Y-24374665D01*
G37*
G36*
X43995490Y-22384692D02*
G01*
X44264954Y-22389596D01*
X44434855Y-22402362D01*
X44527988Y-22426638D01*
X44567150Y-22466072D01*
X44575138Y-22524309D01*
X44571022Y-22573542D01*
X44528424Y-22632215D01*
X44412244Y-22658550D01*
X44189227Y-22664641D01*
X44183325Y-22664641D01*
X43965259Y-22668392D01*
X43852263Y-22692165D01*
X43809795Y-22754800D01*
X43803315Y-22875138D01*
X43803315Y-22878357D01*
X43810193Y-22997302D01*
X43853776Y-23058937D01*
X43968607Y-23082101D01*
X44189227Y-23085635D01*
X44384402Y-23088575D01*
X44513277Y-23108592D01*
X44565401Y-23161532D01*
X44575138Y-23263209D01*
X44575138Y-23440783D01*
X43715608Y-23421082D01*
X43459108Y-23414644D01*
X43180738Y-23403618D01*
X43004229Y-23387024D01*
X42906603Y-23360583D01*
X42864879Y-23320018D01*
X42856077Y-23261050D01*
X42856272Y-23249329D01*
X42884327Y-23166428D01*
X42983905Y-23121986D01*
X43189365Y-23099332D01*
X43322733Y-23089185D01*
X43458463Y-23060858D01*
X43512771Y-22996665D01*
X43522652Y-22871294D01*
X43518745Y-22770904D01*
X43483109Y-22697659D01*
X43379530Y-22669343D01*
X43171823Y-22664641D01*
X43090677Y-22664040D01*
X42917866Y-22650460D01*
X42839465Y-22608481D01*
X42820995Y-22524309D01*
X42825455Y-22476722D01*
X42856107Y-22433607D01*
X42935897Y-22406423D01*
X43087622Y-22391522D01*
X43334080Y-22385256D01*
X43698066Y-22383978D01*
X43995490Y-22384692D01*
G37*
G36*
X47451934Y-24594199D02*
G01*
X47450447Y-24650473D01*
X47428318Y-24717957D01*
X47355676Y-24753482D01*
X47202583Y-24767287D01*
X46939101Y-24769613D01*
X46835643Y-24770876D01*
X46505953Y-24798844D01*
X46294543Y-24861280D01*
X46207975Y-24955237D01*
X46252815Y-25077766D01*
X46283971Y-25107483D01*
X46398745Y-25156973D01*
X46595898Y-25183026D01*
X46904079Y-25190608D01*
X47114257Y-25191475D01*
X47307976Y-25199577D01*
X47408410Y-25223045D01*
X47443021Y-25269979D01*
X47439272Y-25348481D01*
X47415380Y-25431363D01*
X47349254Y-25483499D01*
X47208702Y-25511801D01*
X46960774Y-25528679D01*
X46631073Y-25530235D01*
X46280051Y-25482174D01*
X46046045Y-25378176D01*
X45935735Y-25220251D01*
X45926888Y-25088170D01*
X46022761Y-24896866D01*
X46032427Y-24885840D01*
X46104383Y-24772977D01*
X46066160Y-24718432D01*
X46018268Y-24679712D01*
X45978453Y-24553269D01*
X45978628Y-24542282D01*
X45993493Y-24485802D01*
X46049887Y-24449720D01*
X46172504Y-24429528D01*
X46386041Y-24420719D01*
X46715193Y-24418785D01*
X47451934Y-24418785D01*
X47451934Y-24594199D01*
G37*
G36*
X46856941Y-15649819D02*
G01*
X47125464Y-15659218D01*
X47319108Y-15674919D01*
X47405157Y-15694844D01*
X47429026Y-15736843D01*
X47451934Y-15870258D01*
X47451867Y-15876453D01*
X47432920Y-15940888D01*
X47360397Y-15977944D01*
X47205418Y-15994865D01*
X46939101Y-15998895D01*
X46835643Y-16000157D01*
X46505953Y-16028126D01*
X46294543Y-16090562D01*
X46207975Y-16184519D01*
X46252815Y-16307048D01*
X46283971Y-16336764D01*
X46398745Y-16386255D01*
X46595898Y-16412308D01*
X46904079Y-16419890D01*
X47114257Y-16420757D01*
X47307976Y-16428859D01*
X47408410Y-16452327D01*
X47443021Y-16499261D01*
X47439272Y-16577763D01*
X47415380Y-16660645D01*
X47349254Y-16712781D01*
X47208702Y-16741083D01*
X46960774Y-16757960D01*
X46631073Y-16759517D01*
X46280051Y-16711456D01*
X46046045Y-16607458D01*
X45935735Y-16449533D01*
X45926888Y-16317452D01*
X46022761Y-16126148D01*
X46032427Y-16115122D01*
X46104383Y-16002259D01*
X46066160Y-15947714D01*
X46018268Y-15908993D01*
X45978453Y-15782551D01*
X45988699Y-15722584D01*
X46037337Y-15682534D01*
X46149852Y-15660075D01*
X46351719Y-15650241D01*
X46668416Y-15648066D01*
X46856941Y-15649819D01*
G37*
%TD*%
M02*
