%TF.GenerationSoftware,KiCad,Pcbnew,(6.0.7)*%
%TF.CreationDate,2023-08-26T21:57:55+08:00*%
%TF.ProjectId,ESP32_C3_motor_driver_V4,45535033-325f-4433-935f-6d6f746f725f,rev?*%
%TF.SameCoordinates,PX5ae29a0PY2d4cae0*%
%TF.FileFunction,Paste,Top*%
%TF.FilePolarity,Positive*%
%FSLAX46Y46*%
G04 Gerber Fmt 4.6, Leading zero omitted, Abs format (unit mm)*
G04 Created by KiCad (PCBNEW (6.0.7)) date 2023-08-26 21:57:55*
%MOMM*%
%LPD*%
G01*
G04 APERTURE LIST*
G04 Aperture macros list*
%AMRoundRect*
0 Rectangle with rounded corners*
0 $1 Rounding radius*
0 $2 $3 $4 $5 $6 $7 $8 $9 X,Y pos of 4 corners*
0 Add a 4 corners polygon primitive as box body*
4,1,4,$2,$3,$4,$5,$6,$7,$8,$9,$2,$3,0*
0 Add four circle primitives for the rounded corners*
1,1,$1+$1,$2,$3*
1,1,$1+$1,$4,$5*
1,1,$1+$1,$6,$7*
1,1,$1+$1,$8,$9*
0 Add four rect primitives between the rounded corners*
20,1,$1+$1,$2,$3,$4,$5,0*
20,1,$1+$1,$4,$5,$6,$7,0*
20,1,$1+$1,$6,$7,$8,$9,0*
20,1,$1+$1,$8,$9,$2,$3,0*%
%AMRotRect*
0 Rectangle, with rotation*
0 The origin of the aperture is its center*
0 $1 length*
0 $2 width*
0 $3 Rotation angle, in degrees counterclockwise*
0 Add horizontal line*
21,1,$1,$2,0,0,$3*%
G04 Aperture macros list end*
%ADD10C,0.010000*%
%ADD11R,0.700000X0.900000*%
%ADD12RotRect,0.600000X0.350000X225.000000*%
%ADD13RotRect,1.400000X1.150000X225.000000*%
%ADD14RoundRect,0.027000X0.378000X-0.108000X0.378000X0.108000X-0.378000X0.108000X-0.378000X-0.108000X0*%
%ADD15RoundRect,0.008100X0.126900X-0.396900X0.126900X0.396900X-0.126900X0.396900X-0.126900X-0.396900X0*%
%ADD16R,0.830000X0.630000*%
%ADD17R,0.600000X0.540000*%
%ADD18R,0.540000X0.600000*%
%ADD19R,1.420000X1.080000*%
%ADD20R,2.108200X3.810000*%
%ADD21R,0.750000X1.000000*%
%ADD22RoundRect,0.083820X-0.297180X-0.360680X0.297180X-0.360680X0.297180X0.360680X-0.297180X0.360680X0*%
%ADD23R,1.000000X0.750000*%
%ADD24R,0.900000X0.650000*%
%ADD25R,0.890000X0.930000*%
%ADD26RoundRect,0.150000X0.150000X-0.512500X0.150000X0.512500X-0.150000X0.512500X-0.150000X-0.512500X0*%
%ADD27RoundRect,0.041300X-0.833700X-0.253700X0.833700X-0.253700X0.833700X0.253700X-0.833700X0.253700X0*%
%ADD28R,0.970000X1.730000*%
%ADD29R,0.900000X0.550000*%
%ADD30R,0.410000X0.420000*%
%ADD31R,0.930000X0.890000*%
%ADD32R,0.650000X0.900000*%
%ADD33R,1.400000X0.570000*%
%ADD34R,1.900000X0.650000*%
%ADD35R,2.450000X2.000000*%
%ADD36R,1.080000X1.420000*%
%ADD37RoundRect,0.075000X0.075000X-0.350000X0.075000X0.350000X-0.075000X0.350000X-0.075000X-0.350000X0*%
%ADD38RoundRect,0.075000X0.350000X0.075000X-0.350000X0.075000X-0.350000X-0.075000X0.350000X-0.075000X0*%
%ADD39R,0.730000X0.510000*%
%ADD40R,0.600000X1.450000*%
%ADD41R,0.300000X1.450000*%
%ADD42R,0.870000X0.930000*%
%ADD43R,0.930000X0.870000*%
%ADD44RoundRect,0.065100X0.589900X0.399900X-0.589900X0.399900X-0.589900X-0.399900X0.589900X-0.399900X0*%
%ADD45RoundRect,0.314400X0.340600X1.305600X-0.340600X1.305600X-0.340600X-1.305600X0.340600X-1.305600X0*%
%ADD46R,1.250000X1.820000*%
%ADD47R,1.200000X1.200000*%
%ADD48R,1.500000X1.600000*%
%ADD49RotRect,0.600000X0.350000X315.000000*%
G04 APERTURE END LIST*
%TO.C,U6*%
G36*
X24530000Y-27590000D02*
G01*
X23630000Y-27590000D01*
X23630000Y-26690000D01*
X24530000Y-26690000D01*
X24530000Y-27590000D01*
G37*
D10*
X24530000Y-27590000D02*
X23630000Y-27590000D01*
X23630000Y-26690000D01*
X24530000Y-26690000D01*
X24530000Y-27590000D01*
G36*
X23130000Y-27590000D02*
G01*
X22230000Y-27590000D01*
X22230000Y-26690000D01*
X23130000Y-26690000D01*
X23130000Y-27590000D01*
G37*
X23130000Y-27590000D02*
X22230000Y-27590000D01*
X22230000Y-26690000D01*
X23130000Y-26690000D01*
X23130000Y-27590000D01*
G36*
X23130000Y-26190000D02*
G01*
X22230000Y-26190000D01*
X22230000Y-25290000D01*
X23130000Y-25290000D01*
X23130000Y-26190000D01*
G37*
X23130000Y-26190000D02*
X22230000Y-26190000D01*
X22230000Y-25290000D01*
X23130000Y-25290000D01*
X23130000Y-26190000D01*
G36*
X25930000Y-26190000D02*
G01*
X25030000Y-26190000D01*
X25030000Y-25290000D01*
X25930000Y-25290000D01*
X25930000Y-26190000D01*
G37*
X25930000Y-26190000D02*
X25030000Y-26190000D01*
X25030000Y-25290000D01*
X25930000Y-25290000D01*
X25930000Y-26190000D01*
G36*
X24530000Y-26190000D02*
G01*
X23630000Y-26190000D01*
X23630000Y-25290000D01*
X24530000Y-25290000D01*
X24530000Y-26190000D01*
G37*
X24530000Y-26190000D02*
X23630000Y-26190000D01*
X23630000Y-25290000D01*
X24530000Y-25290000D01*
X24530000Y-26190000D01*
G36*
X24530000Y-28990000D02*
G01*
X23630000Y-28990000D01*
X23630000Y-28090000D01*
X24530000Y-28090000D01*
X24530000Y-28990000D01*
G37*
X24530000Y-28990000D02*
X23630000Y-28990000D01*
X23630000Y-28090000D01*
X24530000Y-28090000D01*
X24530000Y-28990000D01*
G36*
X23130000Y-28990000D02*
G01*
X22230000Y-28990000D01*
X22230000Y-28090000D01*
X23130000Y-28090000D01*
X23130000Y-28990000D01*
G37*
X23130000Y-28990000D02*
X22230000Y-28990000D01*
X22230000Y-28090000D01*
X23130000Y-28090000D01*
X23130000Y-28990000D01*
G36*
X25930000Y-28990000D02*
G01*
X25030000Y-28990000D01*
X25030000Y-28090000D01*
X25930000Y-28090000D01*
X25930000Y-28990000D01*
G37*
X25930000Y-28990000D02*
X25030000Y-28990000D01*
X25030000Y-28090000D01*
X25930000Y-28090000D01*
X25930000Y-28990000D01*
G36*
X25930000Y-27590000D02*
G01*
X25030000Y-27590000D01*
X25030000Y-26690000D01*
X25930000Y-26690000D01*
X25930000Y-27590000D01*
G37*
X25930000Y-27590000D02*
X25030000Y-27590000D01*
X25030000Y-26690000D01*
X25930000Y-26690000D01*
X25930000Y-27590000D01*
%TO.C,U4*%
G36*
X33875000Y-11320000D02*
G01*
X32325000Y-11320000D01*
X32325000Y-11070000D01*
X33875000Y-11070000D01*
X33875000Y-11320000D01*
G37*
X33875000Y-11320000D02*
X32325000Y-11320000D01*
X32325000Y-11070000D01*
X33875000Y-11070000D01*
X33875000Y-11320000D01*
G36*
X28275000Y-10020000D02*
G01*
X26725000Y-10020000D01*
X26725000Y-9770000D01*
X28275000Y-9770000D01*
X28275000Y-10020000D01*
G37*
X28275000Y-10020000D02*
X26725000Y-10020000D01*
X26725000Y-9770000D01*
X28275000Y-9770000D01*
X28275000Y-10020000D01*
G36*
X33875000Y-6770000D02*
G01*
X32325000Y-6770000D01*
X32325000Y-6520000D01*
X33875000Y-6520000D01*
X33875000Y-6770000D01*
G37*
X33875000Y-6770000D02*
X32325000Y-6770000D01*
X32325000Y-6520000D01*
X33875000Y-6520000D01*
X33875000Y-6770000D01*
G36*
X33875000Y-8070000D02*
G01*
X32325000Y-8070000D01*
X32325000Y-7820000D01*
X33875000Y-7820000D01*
X33875000Y-8070000D01*
G37*
X33875000Y-8070000D02*
X32325000Y-8070000D01*
X32325000Y-7820000D01*
X33875000Y-7820000D01*
X33875000Y-8070000D01*
G36*
X33875000Y-13270000D02*
G01*
X32325000Y-13270000D01*
X32325000Y-13020000D01*
X33875000Y-13020000D01*
X33875000Y-13270000D01*
G37*
X33875000Y-13270000D02*
X32325000Y-13270000D01*
X32325000Y-13020000D01*
X33875000Y-13020000D01*
X33875000Y-13270000D01*
G36*
X28275000Y-6120000D02*
G01*
X26725000Y-6120000D01*
X26725000Y-5870000D01*
X28275000Y-5870000D01*
X28275000Y-6120000D01*
G37*
X28275000Y-6120000D02*
X26725000Y-6120000D01*
X26725000Y-5870000D01*
X28275000Y-5870000D01*
X28275000Y-6120000D01*
G36*
X33875000Y-10670000D02*
G01*
X32325000Y-10670000D01*
X32325000Y-10420000D01*
X33875000Y-10420000D01*
X33875000Y-10670000D01*
G37*
X33875000Y-10670000D02*
X32325000Y-10670000D01*
X32325000Y-10420000D01*
X33875000Y-10420000D01*
X33875000Y-10670000D01*
G36*
X28275000Y-13270000D02*
G01*
X26725000Y-13270000D01*
X26725000Y-13020000D01*
X28275000Y-13020000D01*
X28275000Y-13270000D01*
G37*
X28275000Y-13270000D02*
X26725000Y-13270000D01*
X26725000Y-13020000D01*
X28275000Y-13020000D01*
X28275000Y-13270000D01*
G36*
X33875000Y-8720000D02*
G01*
X32325000Y-8720000D01*
X32325000Y-8470000D01*
X33875000Y-8470000D01*
X33875000Y-8720000D01*
G37*
X33875000Y-8720000D02*
X32325000Y-8720000D01*
X32325000Y-8470000D01*
X33875000Y-8470000D01*
X33875000Y-8720000D01*
G36*
X31500000Y-13450000D02*
G01*
X29100000Y-13450000D01*
X29100000Y-6990000D01*
X31500000Y-6990000D01*
X31500000Y-13450000D01*
G37*
X31500000Y-13450000D02*
X29100000Y-13450000D01*
X29100000Y-6990000D01*
X31500000Y-6990000D01*
X31500000Y-13450000D01*
G36*
X28275000Y-10670000D02*
G01*
X26725000Y-10670000D01*
X26725000Y-10420000D01*
X28275000Y-10420000D01*
X28275000Y-10670000D01*
G37*
X28275000Y-10670000D02*
X26725000Y-10670000D01*
X26725000Y-10420000D01*
X28275000Y-10420000D01*
X28275000Y-10670000D01*
G36*
X28275000Y-11320000D02*
G01*
X26725000Y-11320000D01*
X26725000Y-11070000D01*
X28275000Y-11070000D01*
X28275000Y-11320000D01*
G37*
X28275000Y-11320000D02*
X26725000Y-11320000D01*
X26725000Y-11070000D01*
X28275000Y-11070000D01*
X28275000Y-11320000D01*
G36*
X33875000Y-12620000D02*
G01*
X32325000Y-12620000D01*
X32325000Y-12370000D01*
X33875000Y-12370000D01*
X33875000Y-12620000D01*
G37*
X33875000Y-12620000D02*
X32325000Y-12620000D01*
X32325000Y-12370000D01*
X33875000Y-12370000D01*
X33875000Y-12620000D01*
G36*
X33875000Y-9370000D02*
G01*
X32325000Y-9370000D01*
X32325000Y-9120000D01*
X33875000Y-9120000D01*
X33875000Y-9370000D01*
G37*
X33875000Y-9370000D02*
X32325000Y-9370000D01*
X32325000Y-9120000D01*
X33875000Y-9120000D01*
X33875000Y-9370000D01*
G36*
X28275000Y-13920000D02*
G01*
X26725000Y-13920000D01*
X26725000Y-13670000D01*
X28275000Y-13670000D01*
X28275000Y-13920000D01*
G37*
X28275000Y-13920000D02*
X26725000Y-13920000D01*
X26725000Y-13670000D01*
X28275000Y-13670000D01*
X28275000Y-13920000D01*
G36*
X33875000Y-14570000D02*
G01*
X32325000Y-14570000D01*
X32325000Y-14320000D01*
X33875000Y-14320000D01*
X33875000Y-14570000D01*
G37*
X33875000Y-14570000D02*
X32325000Y-14570000D01*
X32325000Y-14320000D01*
X33875000Y-14320000D01*
X33875000Y-14570000D01*
G36*
X33875000Y-7420000D02*
G01*
X32325000Y-7420000D01*
X32325000Y-7170000D01*
X33875000Y-7170000D01*
X33875000Y-7420000D01*
G37*
X33875000Y-7420000D02*
X32325000Y-7420000D01*
X32325000Y-7170000D01*
X33875000Y-7170000D01*
X33875000Y-7420000D01*
G36*
X28275000Y-8720000D02*
G01*
X26725000Y-8720000D01*
X26725000Y-8470000D01*
X28275000Y-8470000D01*
X28275000Y-8720000D01*
G37*
X28275000Y-8720000D02*
X26725000Y-8720000D01*
X26725000Y-8470000D01*
X28275000Y-8470000D01*
X28275000Y-8720000D01*
G36*
X33875000Y-6120000D02*
G01*
X32325000Y-6120000D01*
X32325000Y-5870000D01*
X33875000Y-5870000D01*
X33875000Y-6120000D01*
G37*
X33875000Y-6120000D02*
X32325000Y-6120000D01*
X32325000Y-5870000D01*
X33875000Y-5870000D01*
X33875000Y-6120000D01*
G36*
X28275000Y-8070000D02*
G01*
X26725000Y-8070000D01*
X26725000Y-7820000D01*
X28275000Y-7820000D01*
X28275000Y-8070000D01*
G37*
X28275000Y-8070000D02*
X26725000Y-8070000D01*
X26725000Y-7820000D01*
X28275000Y-7820000D01*
X28275000Y-8070000D01*
G36*
X28275000Y-11970000D02*
G01*
X26725000Y-11970000D01*
X26725000Y-11720000D01*
X28275000Y-11720000D01*
X28275000Y-11970000D01*
G37*
X28275000Y-11970000D02*
X26725000Y-11970000D01*
X26725000Y-11720000D01*
X28275000Y-11720000D01*
X28275000Y-11970000D01*
G36*
X28275000Y-14570000D02*
G01*
X26725000Y-14570000D01*
X26725000Y-14320000D01*
X28275000Y-14320000D01*
X28275000Y-14570000D01*
G37*
X28275000Y-14570000D02*
X26725000Y-14570000D01*
X26725000Y-14320000D01*
X28275000Y-14320000D01*
X28275000Y-14570000D01*
G36*
X33875000Y-11970000D02*
G01*
X32325000Y-11970000D01*
X32325000Y-11720000D01*
X33875000Y-11720000D01*
X33875000Y-11970000D01*
G37*
X33875000Y-11970000D02*
X32325000Y-11970000D01*
X32325000Y-11720000D01*
X33875000Y-11720000D01*
X33875000Y-11970000D01*
G36*
X28275000Y-12620000D02*
G01*
X26725000Y-12620000D01*
X26725000Y-12370000D01*
X28275000Y-12370000D01*
X28275000Y-12620000D01*
G37*
X28275000Y-12620000D02*
X26725000Y-12620000D01*
X26725000Y-12370000D01*
X28275000Y-12370000D01*
X28275000Y-12620000D01*
G36*
X33875000Y-10020000D02*
G01*
X32325000Y-10020000D01*
X32325000Y-9770000D01*
X33875000Y-9770000D01*
X33875000Y-10020000D01*
G37*
X33875000Y-10020000D02*
X32325000Y-10020000D01*
X32325000Y-9770000D01*
X33875000Y-9770000D01*
X33875000Y-10020000D01*
G36*
X28275000Y-7420000D02*
G01*
X26725000Y-7420000D01*
X26725000Y-7170000D01*
X28275000Y-7170000D01*
X28275000Y-7420000D01*
G37*
X28275000Y-7420000D02*
X26725000Y-7420000D01*
X26725000Y-7170000D01*
X28275000Y-7170000D01*
X28275000Y-7420000D01*
G36*
X28275000Y-9370000D02*
G01*
X26725000Y-9370000D01*
X26725000Y-9120000D01*
X28275000Y-9120000D01*
X28275000Y-9370000D01*
G37*
X28275000Y-9370000D02*
X26725000Y-9370000D01*
X26725000Y-9120000D01*
X28275000Y-9120000D01*
X28275000Y-9370000D01*
G36*
X33875000Y-13920000D02*
G01*
X32325000Y-13920000D01*
X32325000Y-13670000D01*
X33875000Y-13670000D01*
X33875000Y-13920000D01*
G37*
X33875000Y-13920000D02*
X32325000Y-13920000D01*
X32325000Y-13670000D01*
X33875000Y-13670000D01*
X33875000Y-13920000D01*
G36*
X28275000Y-6770000D02*
G01*
X26725000Y-6770000D01*
X26725000Y-6520000D01*
X28275000Y-6520000D01*
X28275000Y-6770000D01*
G37*
X28275000Y-6770000D02*
X26725000Y-6770000D01*
X26725000Y-6520000D01*
X28275000Y-6520000D01*
X28275000Y-6770000D01*
%TD*%
D11*
%TO.C,C16*%
X26050000Y-3800000D03*
X27350000Y-3800000D03*
%TD*%
D12*
%TO.C,C27*%
X16301231Y-23261231D03*
X15558769Y-22518769D03*
%TD*%
D13*
%TO.C,Y1*%
X14532132Y-24306497D03*
X12976497Y-25862132D03*
X14107868Y-26993503D03*
X15663503Y-25437868D03*
%TD*%
D14*
%TO.C,U6*%
X26530000Y-28890000D03*
X26530000Y-28390000D03*
X26530000Y-27890000D03*
X26530000Y-27390000D03*
X26530000Y-26890000D03*
X26530000Y-26390000D03*
X26530000Y-25890000D03*
X26530000Y-25390000D03*
X21630000Y-25390000D03*
X21630000Y-25890000D03*
X21630000Y-26390000D03*
X21630000Y-26890000D03*
X21630000Y-27390000D03*
X21630000Y-27890000D03*
X21630000Y-28390000D03*
X21630000Y-28890000D03*
D15*
X22330000Y-29590000D03*
X22830000Y-29590000D03*
X23330000Y-29590000D03*
X23830000Y-29590000D03*
X24330000Y-29590000D03*
X24830000Y-29590000D03*
X25330000Y-29590000D03*
X25830000Y-29590000D03*
X25830000Y-24690000D03*
X25330000Y-24690000D03*
X24830000Y-24690000D03*
X24330000Y-24690000D03*
X23830000Y-24690000D03*
X23330000Y-24690000D03*
X22830000Y-24690000D03*
X22330000Y-24690000D03*
%TD*%
D16*
%TO.C,D2*%
X10400000Y-13300000D03*
X10400000Y-15600000D03*
%TD*%
D17*
%TO.C,R16*%
X48100000Y-41668000D03*
X48100000Y-42532000D03*
%TD*%
D18*
%TO.C,C30*%
X45268000Y-39100000D03*
X46132000Y-39100000D03*
%TD*%
%TO.C,C10*%
X22292000Y-31590000D03*
X21428000Y-31590000D03*
%TD*%
D19*
%TO.C,C12*%
X16400000Y-30705000D03*
X16400000Y-32495000D03*
%TD*%
D20*
%TO.C,C21*%
X42300000Y-17745600D03*
X42300000Y-24654400D03*
%TD*%
D21*
%TO.C,S2*%
X45875000Y-41600000D03*
X45875000Y-47600000D03*
X42125000Y-41600000D03*
X42125000Y-47600000D03*
%TD*%
D22*
%TO.C,D3*%
X8462000Y-32300000D03*
X6938000Y-32300000D03*
%TD*%
D23*
%TO.C,S1*%
X30200000Y-34625000D03*
X36200000Y-34625000D03*
X30200000Y-38375000D03*
X36200000Y-38375000D03*
%TD*%
D18*
%TO.C,R23*%
X30968000Y-45400000D03*
X31832000Y-45400000D03*
%TD*%
D17*
%TO.C,C6*%
X21332000Y-16650000D03*
X21332000Y-15786000D03*
%TD*%
D24*
%TO.C,R18*%
X29000000Y-24600000D03*
X29000000Y-23150000D03*
%TD*%
D18*
%TO.C,R22*%
X30968000Y-46700000D03*
X31832000Y-46700000D03*
%TD*%
%TO.C,C7*%
X22294000Y-35280000D03*
X21430000Y-35280000D03*
%TD*%
%TO.C,C3*%
X35632000Y-27400000D03*
X34768000Y-27400000D03*
%TD*%
%TO.C,C28*%
X38718000Y-44200000D03*
X39582000Y-44200000D03*
%TD*%
D25*
%TO.C,C5*%
X33860000Y-20100000D03*
X35400000Y-20100000D03*
%TD*%
D26*
%TO.C,U3*%
X17850000Y-16075000D03*
X18800000Y-16075000D03*
X19750000Y-16075000D03*
X19750000Y-13800000D03*
X18800000Y-13800000D03*
X17850000Y-13800000D03*
%TD*%
D19*
%TO.C,C24*%
X27500000Y-36500000D03*
X27500000Y-34710000D03*
%TD*%
D18*
%TO.C,C22*%
X24308000Y-33090000D03*
X25172000Y-33090000D03*
%TD*%
D17*
%TO.C,R2*%
X20400000Y-10655500D03*
X20400000Y-11519500D03*
%TD*%
%TO.C,R3*%
X17200000Y-10637500D03*
X17200000Y-11501500D03*
%TD*%
%TO.C,R15*%
X37150000Y-40036000D03*
X37150000Y-40900000D03*
%TD*%
D27*
%TO.C,U1*%
X38097500Y-28795000D03*
X38097500Y-30065000D03*
X38097500Y-31335000D03*
X38097500Y-32605000D03*
X43267500Y-32605000D03*
X43267500Y-31335000D03*
X43267500Y-30065000D03*
X43267500Y-28795000D03*
%TD*%
D17*
%TO.C,C19*%
X35600000Y-6700000D03*
X35600000Y-5836000D03*
%TD*%
D18*
%TO.C,C15*%
X19390000Y-28520000D03*
X18526000Y-28520000D03*
%TD*%
D17*
%TO.C,C20*%
X39200000Y-12568000D03*
X39200000Y-13432000D03*
%TD*%
D28*
%TO.C,R12*%
X40020000Y-10700000D03*
X42980000Y-10700000D03*
%TD*%
D29*
%TO.C,D4*%
X29000000Y-19975000D03*
X29000000Y-21225000D03*
%TD*%
D18*
%TO.C,C26*%
X35450000Y-41200000D03*
X34586000Y-41200000D03*
%TD*%
D30*
%TO.C,D5*%
X32662000Y-31300000D03*
X33218000Y-31300000D03*
%TD*%
D31*
%TO.C,C29*%
X31700000Y-43600000D03*
X31700000Y-42060000D03*
%TD*%
D18*
%TO.C,C13*%
X38386000Y-40900000D03*
X39250000Y-40900000D03*
%TD*%
D32*
%TO.C,R5*%
X8425000Y-30700000D03*
X6975000Y-30700000D03*
%TD*%
D33*
%TO.C,IC1*%
X34944000Y-25300000D03*
D34*
X34694000Y-23800000D03*
D33*
X34944000Y-22300000D03*
D35*
X32519000Y-23800000D03*
%TD*%
D18*
%TO.C,C23*%
X24300000Y-36500000D03*
X25164000Y-36500000D03*
%TD*%
D36*
%TO.C,C8*%
X25300000Y-20500000D03*
X27090000Y-20500000D03*
%TD*%
D37*
%TO.C,U7*%
X34100000Y-46550000D03*
X34600000Y-46550000D03*
X35100000Y-46550000D03*
X35600000Y-46550000D03*
X36100000Y-46550000D03*
X36600000Y-46550000D03*
D38*
X37300000Y-45850000D03*
X37300000Y-45350000D03*
X37300000Y-44850000D03*
X37300000Y-44350000D03*
X37300000Y-43850000D03*
X37300000Y-43350000D03*
D37*
X36600000Y-42650000D03*
X36100000Y-42650000D03*
X35600000Y-42650000D03*
X35100000Y-42650000D03*
X34600000Y-42650000D03*
X34100000Y-42650000D03*
D38*
X33400000Y-43350000D03*
X33400000Y-43850000D03*
X33400000Y-44350000D03*
X33400000Y-44850000D03*
X33400000Y-45350000D03*
X33400000Y-45850000D03*
%TD*%
D39*
%TO.C,L1*%
X22300000Y-33860000D03*
X22300000Y-32940000D03*
%TD*%
D40*
%TO.C,J2*%
X22150000Y-8582500D03*
X21350000Y-8582500D03*
D41*
X20150000Y-8582500D03*
X19150000Y-8582500D03*
X18650000Y-8582500D03*
X17650000Y-8582500D03*
D40*
X16450000Y-8582500D03*
X15650000Y-8582500D03*
X15650000Y-8582500D03*
X16450000Y-8582500D03*
D41*
X17150000Y-8582500D03*
X18150000Y-8582500D03*
X19650000Y-8582500D03*
X20650000Y-8582500D03*
D40*
X21350000Y-8582500D03*
X22150000Y-8582500D03*
%TD*%
D42*
%TO.C,C11*%
X33520000Y-16400000D03*
X35080000Y-16400000D03*
%TD*%
D17*
%TO.C,R6*%
X21332000Y-18890000D03*
X21332000Y-18026000D03*
%TD*%
D43*
%TO.C,C25*%
X39625000Y-45740000D03*
X39625000Y-47300000D03*
%TD*%
D32*
%TO.C,R20*%
X8450000Y-27100000D03*
X7000000Y-27100000D03*
%TD*%
%TO.C,R19*%
X8450000Y-28800000D03*
X7000000Y-28800000D03*
%TD*%
D17*
%TO.C,C17*%
X37100000Y-12568000D03*
X37100000Y-13432000D03*
%TD*%
D16*
%TO.C,D1*%
X12200000Y-13300000D03*
X12200000Y-15600000D03*
%TD*%
D17*
%TO.C,R27*%
X43900000Y-39968000D03*
X43900000Y-40832000D03*
%TD*%
D44*
%TO.C,U2*%
X8922500Y-24550000D03*
X8922500Y-22260000D03*
X8922500Y-19970000D03*
D45*
X2232500Y-22260000D03*
%TD*%
D32*
%TO.C,R17*%
X29475000Y-31300000D03*
X30925000Y-31300000D03*
%TD*%
D46*
%TO.C,C4*%
X11200000Y-20760000D03*
X14060000Y-20760000D03*
%TD*%
D18*
%TO.C,C9*%
X24822000Y-22860000D03*
X23958000Y-22860000D03*
%TD*%
D28*
%TO.C,R13*%
X37120000Y-8200000D03*
X40080000Y-8200000D03*
%TD*%
D18*
%TO.C,C18*%
X26136000Y-23300000D03*
X27000000Y-23300000D03*
%TD*%
D39*
%TO.C,L2*%
X24390000Y-34360000D03*
X24390000Y-35280000D03*
%TD*%
D18*
%TO.C,R24*%
X18032000Y-27200000D03*
X17168000Y-27200000D03*
%TD*%
D47*
%TO.C,R11*%
X30295335Y-1390000D03*
D48*
X33545335Y-2390000D03*
D47*
X30295335Y-3390000D03*
%TD*%
D49*
%TO.C,C31*%
X15691231Y-28098769D03*
X14948769Y-28841231D03*
%TD*%
D18*
%TO.C,C1*%
X39334500Y-27300000D03*
X38470500Y-27300000D03*
%TD*%
%TO.C,R10*%
X27008000Y-1390000D03*
X27872000Y-1390000D03*
%TD*%
%TO.C,C14*%
X19390000Y-29900000D03*
X18526000Y-29900000D03*
%TD*%
D36*
%TO.C,C2*%
X9710000Y-17500000D03*
X11500000Y-17500000D03*
%TD*%
D17*
%TO.C,R14*%
X48100000Y-38232000D03*
X48100000Y-37368000D03*
%TD*%
D24*
%TO.C,R21*%
X40800000Y-12575000D03*
X40800000Y-14025000D03*
%TD*%
D17*
%TO.C,R4*%
X46600000Y-29332000D03*
X46600000Y-28468000D03*
%TD*%
M02*
