M48
; DRILL file {KiCad (6.0.7)} date Sat Aug 26 21:58:03 2023
; FORMAT={3:3/ absolute / metric / suppress leading zeros}
; #@! TF.CreationDate,2023-08-26T21:58:03+08:00
; #@! TF.GenerationSoftware,Kicad,Pcbnew,(6.0.7)
; #@! TF.FileFunction,MixedPlating,1,4
FMAT,2
METRIC,TZ
; #@! TA.AperFunction,Plated,PTH,ComponentDrill
T1C0.300
; #@! TA.AperFunction,Plated,PTH,ViaDrill
T2C0.400
; #@! TA.AperFunction,Plated,PTH,ComponentDrill
T3C0.400
; #@! TA.AperFunction,Plated,PTH,ComponentDrill
T4C0.500
; #@! TA.AperFunction,Plated,PTH,ComponentDrill
T5C0.600
; #@! TA.AperFunction,Plated,PTH,ComponentDrill
T6C0.750
; #@! TA.AperFunction,Plated,PTH,ComponentDrill
T7C0.950
; #@! TA.AperFunction,Plated,PTH,ComponentDrill
T8C1.000
; #@! TA.AperFunction,Plated,PTH,ComponentDrill
T9C2.700
; #@! TA.AperFunction,NonPlated,NPTH,ComponentDrill
T10C0.650
%
G90
G05
T1
X29000Y-6320
X29000Y-7620
X29000Y-8920
X29000Y-10220
X29000Y-11520
X29000Y-12820
X29000Y-14120
X30300Y-6320
X30300Y-7620
X30300Y-8920
X30300Y-10220
X30300Y-11520
X30300Y-12820
X30300Y-14120
X31600Y-6320
X31600Y-7620
X31600Y-8920
X31600Y-10220
X31600Y-11520
X31600Y-12820
X31600Y-14120
T2
X1000Y-32100
X1000Y-33000
X1000Y-33900
X1000Y-34800
X1000Y-35700
X1000Y-36600
X1000Y-37500
X1000Y-38400
X1000Y-39300
X1000Y-40200
X1900Y-32100
X1900Y-40200
X2800Y-32100
X2800Y-40200
X3700Y-32100
X3700Y-40200
X4600Y-32100
X4600Y-40200
X5500Y-32700
X5500Y-40200
X5900Y-33600
X6400Y-40200
X6800Y-33600
X7300Y-40200
X7800Y-33600
X8200Y-40200
X8700Y-33600
X8900Y-23700
X9100Y-40200
X9500Y-27200
X9500Y-28800
X9500Y-31800
X9600Y-33600
X10000Y-40200
X10500Y-33600
X10900Y-40200
X11370Y-19140
X11400Y-33600
X11800Y-40200
X12190Y-24970
X12300Y-33600
X12600Y-17400
X12700Y-40200
X13030Y-20760
X13200Y-33600
X13600Y-40200
X14100Y-33600
X14290Y-29480
X14500Y-40200
X14800Y-38300
X14800Y-39300
X15000Y-33600
X15100Y-37400
X15700Y-9700
X15800Y-36700
X15900Y-33600
X16270Y-21790
X16487Y-26287
X16500Y-38800
X16700Y-36400
X16800Y-33600
X16900Y-39800
X17200Y-12337
X17300Y-38200
X17500Y-32500
X17600Y-36400
X17700Y-28600
X17700Y-29600
X17700Y-33600
X18000Y-39800
X18200Y-38200
X18500Y-36400
X18520Y-25180
X18600Y-33600
X18900Y-12600
X19000Y-39800
X19100Y-38200
X19195Y-14992
X19400Y-36400
X19500Y-33600
X19730Y-18870
X19867Y-25733
X20000Y-38200
X20000Y-39800
X20300Y-31100
X20400Y-12356
X20400Y-32100
X20400Y-33600
X20400Y-36300
X20700Y-35300
X20900Y-38100
X20900Y-40200
X21000Y-30500
X21100Y-33000
X21200Y-34200
X21332Y-14858
X21376Y-10315
X21568Y-29703
X21800Y-37700
X21800Y-40200
X22100Y-9700
X22500Y-37000
X22700Y-40200
X23300Y-33100
X23300Y-34000
X23300Y-34900
X23300Y-35800
X23400Y-36700
X23600Y-40200
X23960Y-21920
X24500Y-32000
X24500Y-40200
X25100Y-1700
X25400Y-40200
X25500Y-32000
X25600Y-8600
X25900Y-11000
X26000Y-33100
X26000Y-36300
X26025Y-22000
X26193Y-9816
X26300Y-40200
X26900Y-16500
X27040Y-19070
X27100Y-24600
X27200Y-40200
X27400Y-33800
X28100Y-40200
X28300Y-3800
X28300Y-26265
X28300Y-32024
X28990Y-18980
X29000Y-40200
X29100Y-25700
X30000Y-28870
X30000Y-40400
X30000Y-41400
X30000Y-42300
X30000Y-43200
X30000Y-44100
X30000Y-45000
X30000Y-45900
X30000Y-46800
X30100Y-47700
X30500Y-16700
X31100Y-47700
X31487Y-37600
X31500Y-3300
X31500Y-16100
X31800Y-23400
X32200Y-47600
X32300Y-44600
X32321Y-36746
X33200Y-23400
X33200Y-47700
X33250Y-46700
X33255Y-42400
X33400Y-5300
X33700Y-41300
X33900Y-27400
X34000Y-31300
X34100Y-47700
X34775Y-34625
X34900Y-18600
X35000Y-47700
X35400Y-21000
X35800Y-5000
X35800Y-7900
X35800Y-12000
X35900Y-37000
X35900Y-47700
X36313Y-40837
X36603Y-29900
X36800Y-47700
X37603Y-27300
X37700Y-47700
X37789Y-9787
X38200Y-13342
X38400Y-10500
X38600Y-47700
X38758Y-8008
X39250Y-41800
X39450Y-42800
X40575Y-47300
X41700Y-6700
X41803Y-28800
X42000Y-23500
X42000Y-25900
X42500Y-5800
X42700Y-8400
X43900Y-11000
X44000Y-38900
X44300Y-36800
X44800Y-11700
X45800Y-42700
X45800Y-46600
X46400Y-40100
X46600Y-36900
X48100Y-40100
T3
X22680Y-26440
X22680Y-27840
X23380Y-25740
X23380Y-26440
X23380Y-27140
X23380Y-27840
X23380Y-28540
X24080Y-26440
X24080Y-27840
X24780Y-25740
X24780Y-26440
X24780Y-27140
X24780Y-27840
X24780Y-28540
X25480Y-26440
X25480Y-27840
T4
X4990Y-27300
X4990Y-28300
X4990Y-29300
X4990Y-30300
T6
X7050Y-11600
X7050Y-13600
X50950Y-18500
X50950Y-20500
X50950Y-27200
X50950Y-29200
X50950Y-35300
X50950Y-37300
X50950Y-43400
X50950Y-45400
T7
X48050Y-3550
X48050Y-6050
X48050Y-8550
X48050Y-11050
T8
X9950Y-3350
X9950Y-5850
T9
X39700Y-3500
X39700Y-37500
T10
X16010Y-7138
X21790Y-7138
T5
G00X14580Y-3788
M15
G01X14580Y-3188
M16
G05
G00X14580Y-8218
M15
G01X14580Y-7118
M16
G05
G00X23220Y-3788
M15
G01X23220Y-3188
M16
G05
G00X23220Y-8218
M15
G01X23220Y-7118
M16
G05
T0
M30
