%TF.GenerationSoftware,KiCad,Pcbnew,(6.0.7)*%
%TF.CreationDate,2023-08-26T21:57:55+08:00*%
%TF.ProjectId,ESP32_C3_motor_driver_V4,45535033-325f-4433-935f-6d6f746f725f,rev?*%
%TF.SameCoordinates,PX5ae29a0PY2d4cae0*%
%TF.FileFunction,Soldermask,Top*%
%TF.FilePolarity,Negative*%
%FSLAX46Y46*%
G04 Gerber Fmt 4.6, Leading zero omitted, Abs format (unit mm)*
G04 Created by KiCad (PCBNEW (6.0.7)) date 2023-08-26 21:57:55*
%MOMM*%
%LPD*%
G01*
G04 APERTURE LIST*
G04 Aperture macros list*
%AMRoundRect*
0 Rectangle with rounded corners*
0 $1 Rounding radius*
0 $2 $3 $4 $5 $6 $7 $8 $9 X,Y pos of 4 corners*
0 Add a 4 corners polygon primitive as box body*
4,1,4,$2,$3,$4,$5,$6,$7,$8,$9,$2,$3,0*
0 Add four circle primitives for the rounded corners*
1,1,$1+$1,$2,$3*
1,1,$1+$1,$4,$5*
1,1,$1+$1,$6,$7*
1,1,$1+$1,$8,$9*
0 Add four rect primitives between the rounded corners*
20,1,$1+$1,$2,$3,$4,$5,0*
20,1,$1+$1,$4,$5,$6,$7,0*
20,1,$1+$1,$6,$7,$8,$9,0*
20,1,$1+$1,$8,$9,$2,$3,0*%
%AMRotRect*
0 Rectangle, with rotation*
0 The origin of the aperture is its center*
0 $1 length*
0 $2 width*
0 $3 Rotation angle, in degrees counterclockwise*
0 Add horizontal line*
21,1,$1,$2,0,0,$3*%
%AMFreePoly0*
4,1,6,1.000000,0.000000,0.500000,-0.750000,-0.500000,-0.750000,-0.500000,0.750000,0.500000,0.750000,1.000000,0.000000,1.000000,0.000000,$1*%
%AMFreePoly1*
4,1,6,0.500000,-0.750000,-0.650000,-0.750000,-0.150000,0.000000,-0.650000,0.750000,0.500000,0.750000,0.500000,-0.750000,0.500000,-0.750000,$1*%
G04 Aperture macros list end*
%ADD10C,0.010000*%
%ADD11R,0.700000X0.900000*%
%ADD12C,4.700000*%
%ADD13RotRect,0.600000X0.350000X225.000000*%
%ADD14RotRect,1.400000X1.150000X225.000000*%
%ADD15RoundRect,0.129000X0.378000X-0.108000X0.378000X0.108000X-0.378000X0.108000X-0.378000X-0.108000X0*%
%ADD16RoundRect,0.110100X0.126900X-0.396900X0.126900X0.396900X-0.126900X0.396900X-0.126900X-0.396900X0*%
%ADD17RoundRect,0.102000X1.850000X-1.850000X1.850000X1.850000X-1.850000X1.850000X-1.850000X-1.850000X0*%
%ADD18R,2.000000X2.000000*%
%ADD19FreePoly0,0.000000*%
%ADD20FreePoly1,0.000000*%
%ADD21R,0.830000X0.630000*%
%ADD22R,0.600000X0.540000*%
%ADD23R,0.540000X0.600000*%
%ADD24R,1.420000X1.080000*%
%ADD25R,2.108200X3.810000*%
%ADD26RoundRect,0.250000X0.725000X-0.600000X0.725000X0.600000X-0.725000X0.600000X-0.725000X-0.600000X0*%
%ADD27O,1.950000X1.700000*%
%ADD28RoundRect,0.102000X-0.375000X0.500000X-0.375000X-0.500000X0.375000X-0.500000X0.375000X0.500000X0*%
%ADD29RoundRect,0.083820X-0.297180X-0.360680X0.297180X-0.360680X0.297180X0.360680X-0.297180X0.360680X0*%
%ADD30RoundRect,0.102000X-0.500000X-0.375000X0.500000X-0.375000X0.500000X0.375000X-0.500000X0.375000X0*%
%ADD31RoundRect,0.250000X-0.625000X0.350000X-0.625000X-0.350000X0.625000X-0.350000X0.625000X0.350000X0*%
%ADD32O,1.750000X1.200000*%
%ADD33R,0.900000X0.650000*%
%ADD34RoundRect,0.250000X0.625000X-0.350000X0.625000X0.350000X-0.625000X0.350000X-0.625000X-0.350000X0*%
%ADD35R,0.890000X0.930000*%
%ADD36RoundRect,0.150000X0.150000X-0.512500X0.150000X0.512500X-0.150000X0.512500X-0.150000X-0.512500X0*%
%ADD37RoundRect,0.041300X-0.833700X-0.253700X0.833700X-0.253700X0.833700X0.253700X-0.833700X0.253700X0*%
%ADD38R,0.970000X1.730000*%
%ADD39R,0.900000X0.550000*%
%ADD40RoundRect,0.250000X-0.750000X0.600000X-0.750000X-0.600000X0.750000X-0.600000X0.750000X0.600000X0*%
%ADD41O,2.000000X1.700000*%
%ADD42R,0.410000X0.420000*%
%ADD43R,0.930000X0.890000*%
%ADD44R,0.650000X0.900000*%
%ADD45R,1.400000X0.570000*%
%ADD46R,1.900000X0.650000*%
%ADD47R,2.450000X2.000000*%
%ADD48R,1.080000X1.420000*%
%ADD49RoundRect,0.075000X0.075000X-0.350000X0.075000X0.350000X-0.075000X0.350000X-0.075000X-0.350000X0*%
%ADD50RoundRect,0.075000X0.350000X0.075000X-0.350000X0.075000X-0.350000X-0.075000X0.350000X-0.075000X0*%
%ADD51R,0.730000X0.510000*%
%ADD52C,0.360000*%
%ADD53C,0.650000*%
%ADD54R,0.600000X1.450000*%
%ADD55R,0.300000X1.450000*%
%ADD56O,1.000000X1.600000*%
%ADD57O,1.000000X2.100000*%
%ADD58R,0.870000X0.930000*%
%ADD59R,0.850000X0.850000*%
%ADD60O,0.850000X0.850000*%
%ADD61R,0.930000X0.870000*%
%ADD62RoundRect,0.065100X0.589900X0.399900X-0.589900X0.399900X-0.589900X-0.399900X0.589900X-0.399900X0*%
%ADD63RoundRect,0.314400X0.340600X1.305600X-0.340600X1.305600X-0.340600X-1.305600X0.340600X-1.305600X0*%
%ADD64FreePoly0,90.000000*%
%ADD65FreePoly1,90.000000*%
%ADD66R,1.250000X1.820000*%
%ADD67R,1.200000X1.200000*%
%ADD68R,1.500000X1.600000*%
%ADD69RotRect,0.600000X0.350000X315.000000*%
G04 APERTURE END LIST*
%TO.C,U4*%
G36*
X33970000Y-9465000D02*
G01*
X32230000Y-9465000D01*
X32230000Y-9025000D01*
X33970000Y-9025000D01*
X33970000Y-9465000D01*
G37*
D10*
X33970000Y-9465000D02*
X32230000Y-9465000D01*
X32230000Y-9025000D01*
X33970000Y-9025000D01*
X33970000Y-9465000D01*
G36*
X33970000Y-12065000D02*
G01*
X32230000Y-12065000D01*
X32230000Y-11625000D01*
X33970000Y-11625000D01*
X33970000Y-12065000D01*
G37*
X33970000Y-12065000D02*
X32230000Y-12065000D01*
X32230000Y-11625000D01*
X33970000Y-11625000D01*
X33970000Y-12065000D01*
G36*
X33970000Y-11415000D02*
G01*
X32230000Y-11415000D01*
X32230000Y-10975000D01*
X33970000Y-10975000D01*
X33970000Y-11415000D01*
G37*
X33970000Y-11415000D02*
X32230000Y-11415000D01*
X32230000Y-10975000D01*
X33970000Y-10975000D01*
X33970000Y-11415000D01*
G36*
X28370000Y-7515000D02*
G01*
X26630000Y-7515000D01*
X26630000Y-7075000D01*
X28370000Y-7075000D01*
X28370000Y-7515000D01*
G37*
X28370000Y-7515000D02*
X26630000Y-7515000D01*
X26630000Y-7075000D01*
X28370000Y-7075000D01*
X28370000Y-7515000D01*
G36*
X33970000Y-12715000D02*
G01*
X32230000Y-12715000D01*
X32230000Y-12275000D01*
X33970000Y-12275000D01*
X33970000Y-12715000D01*
G37*
X33970000Y-12715000D02*
X32230000Y-12715000D01*
X32230000Y-12275000D01*
X33970000Y-12275000D01*
X33970000Y-12715000D01*
G36*
X33970000Y-14665000D02*
G01*
X32230000Y-14665000D01*
X32230000Y-14225000D01*
X33970000Y-14225000D01*
X33970000Y-14665000D01*
G37*
X33970000Y-14665000D02*
X32230000Y-14665000D01*
X32230000Y-14225000D01*
X33970000Y-14225000D01*
X33970000Y-14665000D01*
G36*
X33970000Y-10765000D02*
G01*
X32230000Y-10765000D01*
X32230000Y-10325000D01*
X33970000Y-10325000D01*
X33970000Y-10765000D01*
G37*
X33970000Y-10765000D02*
X32230000Y-10765000D01*
X32230000Y-10325000D01*
X33970000Y-10325000D01*
X33970000Y-10765000D01*
G36*
X28370000Y-14665000D02*
G01*
X26630000Y-14665000D01*
X26630000Y-14225000D01*
X28370000Y-14225000D01*
X28370000Y-14665000D01*
G37*
X28370000Y-14665000D02*
X26630000Y-14665000D01*
X26630000Y-14225000D01*
X28370000Y-14225000D01*
X28370000Y-14665000D01*
G36*
X28370000Y-6865000D02*
G01*
X26630000Y-6865000D01*
X26630000Y-6425000D01*
X28370000Y-6425000D01*
X28370000Y-6865000D01*
G37*
X28370000Y-6865000D02*
X26630000Y-6865000D01*
X26630000Y-6425000D01*
X28370000Y-6425000D01*
X28370000Y-6865000D01*
G36*
X28370000Y-6215000D02*
G01*
X26630000Y-6215000D01*
X26630000Y-5775000D01*
X28370000Y-5775000D01*
X28370000Y-6215000D01*
G37*
X28370000Y-6215000D02*
X26630000Y-6215000D01*
X26630000Y-5775000D01*
X28370000Y-5775000D01*
X28370000Y-6215000D01*
G36*
X28370000Y-10115000D02*
G01*
X26630000Y-10115000D01*
X26630000Y-9675000D01*
X28370000Y-9675000D01*
X28370000Y-10115000D01*
G37*
X28370000Y-10115000D02*
X26630000Y-10115000D01*
X26630000Y-9675000D01*
X28370000Y-9675000D01*
X28370000Y-10115000D01*
G36*
X33970000Y-6865000D02*
G01*
X32230000Y-6865000D01*
X32230000Y-6425000D01*
X33970000Y-6425000D01*
X33970000Y-6865000D01*
G37*
X33970000Y-6865000D02*
X32230000Y-6865000D01*
X32230000Y-6425000D01*
X33970000Y-6425000D01*
X33970000Y-6865000D01*
G36*
X28370000Y-12065000D02*
G01*
X26630000Y-12065000D01*
X26630000Y-11625000D01*
X28370000Y-11625000D01*
X28370000Y-12065000D01*
G37*
X28370000Y-12065000D02*
X26630000Y-12065000D01*
X26630000Y-11625000D01*
X28370000Y-11625000D01*
X28370000Y-12065000D01*
G36*
X33970000Y-8815000D02*
G01*
X32230000Y-8815000D01*
X32230000Y-8375000D01*
X33970000Y-8375000D01*
X33970000Y-8815000D01*
G37*
X33970000Y-8815000D02*
X32230000Y-8815000D01*
X32230000Y-8375000D01*
X33970000Y-8375000D01*
X33970000Y-8815000D01*
G36*
X28370000Y-9465000D02*
G01*
X26630000Y-9465000D01*
X26630000Y-9025000D01*
X28370000Y-9025000D01*
X28370000Y-9465000D01*
G37*
X28370000Y-9465000D02*
X26630000Y-9465000D01*
X26630000Y-9025000D01*
X28370000Y-9025000D01*
X28370000Y-9465000D01*
G36*
X33970000Y-13365000D02*
G01*
X32230000Y-13365000D01*
X32230000Y-12925000D01*
X33970000Y-12925000D01*
X33970000Y-13365000D01*
G37*
X33970000Y-13365000D02*
X32230000Y-13365000D01*
X32230000Y-12925000D01*
X33970000Y-12925000D01*
X33970000Y-13365000D01*
G36*
X28370000Y-8165000D02*
G01*
X26630000Y-8165000D01*
X26630000Y-7725000D01*
X28370000Y-7725000D01*
X28370000Y-8165000D01*
G37*
X28370000Y-8165000D02*
X26630000Y-8165000D01*
X26630000Y-7725000D01*
X28370000Y-7725000D01*
X28370000Y-8165000D01*
G36*
X33970000Y-10115000D02*
G01*
X32230000Y-10115000D01*
X32230000Y-9675000D01*
X33970000Y-9675000D01*
X33970000Y-10115000D01*
G37*
X33970000Y-10115000D02*
X32230000Y-10115000D01*
X32230000Y-9675000D01*
X33970000Y-9675000D01*
X33970000Y-10115000D01*
G36*
X28370000Y-12715000D02*
G01*
X26630000Y-12715000D01*
X26630000Y-12275000D01*
X28370000Y-12275000D01*
X28370000Y-12715000D01*
G37*
X28370000Y-12715000D02*
X26630000Y-12715000D01*
X26630000Y-12275000D01*
X28370000Y-12275000D01*
X28370000Y-12715000D01*
G36*
X33970000Y-7515000D02*
G01*
X32230000Y-7515000D01*
X32230000Y-7075000D01*
X33970000Y-7075000D01*
X33970000Y-7515000D01*
G37*
X33970000Y-7515000D02*
X32230000Y-7515000D01*
X32230000Y-7075000D01*
X33970000Y-7075000D01*
X33970000Y-7515000D01*
G36*
X28370000Y-10765000D02*
G01*
X26630000Y-10765000D01*
X26630000Y-10325000D01*
X28370000Y-10325000D01*
X28370000Y-10765000D01*
G37*
X28370000Y-10765000D02*
X26630000Y-10765000D01*
X26630000Y-10325000D01*
X28370000Y-10325000D01*
X28370000Y-10765000D01*
G36*
X28370000Y-8815000D02*
G01*
X26630000Y-8815000D01*
X26630000Y-8375000D01*
X28370000Y-8375000D01*
X28370000Y-8815000D01*
G37*
X28370000Y-8815000D02*
X26630000Y-8815000D01*
X26630000Y-8375000D01*
X28370000Y-8375000D01*
X28370000Y-8815000D01*
G36*
X28370000Y-13365000D02*
G01*
X26630000Y-13365000D01*
X26630000Y-12925000D01*
X28370000Y-12925000D01*
X28370000Y-13365000D01*
G37*
X28370000Y-13365000D02*
X26630000Y-13365000D01*
X26630000Y-12925000D01*
X28370000Y-12925000D01*
X28370000Y-13365000D01*
G36*
X33970000Y-14015000D02*
G01*
X32230000Y-14015000D01*
X32230000Y-13575000D01*
X33970000Y-13575000D01*
X33970000Y-14015000D01*
G37*
X33970000Y-14015000D02*
X32230000Y-14015000D01*
X32230000Y-13575000D01*
X33970000Y-13575000D01*
X33970000Y-14015000D01*
G36*
X28370000Y-14015000D02*
G01*
X26630000Y-14015000D01*
X26630000Y-13575000D01*
X28370000Y-13575000D01*
X28370000Y-14015000D01*
G37*
X28370000Y-14015000D02*
X26630000Y-14015000D01*
X26630000Y-13575000D01*
X28370000Y-13575000D01*
X28370000Y-14015000D01*
G36*
X33970000Y-8165000D02*
G01*
X32230000Y-8165000D01*
X32230000Y-7725000D01*
X33970000Y-7725000D01*
X33970000Y-8165000D01*
G37*
X33970000Y-8165000D02*
X32230000Y-8165000D01*
X32230000Y-7725000D01*
X33970000Y-7725000D01*
X33970000Y-8165000D01*
G36*
X33970000Y-6215000D02*
G01*
X32230000Y-6215000D01*
X32230000Y-5775000D01*
X33970000Y-5775000D01*
X33970000Y-6215000D01*
G37*
X33970000Y-6215000D02*
X32230000Y-6215000D01*
X32230000Y-5775000D01*
X33970000Y-5775000D01*
X33970000Y-6215000D01*
G36*
X31500000Y-13450000D02*
G01*
X29100000Y-13450000D01*
X29100000Y-6990000D01*
X31500000Y-6990000D01*
X31500000Y-13450000D01*
G37*
X31500000Y-13450000D02*
X29100000Y-13450000D01*
X29100000Y-6990000D01*
X31500000Y-6990000D01*
X31500000Y-13450000D01*
G36*
X28370000Y-11415000D02*
G01*
X26630000Y-11415000D01*
X26630000Y-10975000D01*
X28370000Y-10975000D01*
X28370000Y-11415000D01*
G37*
X28370000Y-11415000D02*
X26630000Y-11415000D01*
X26630000Y-10975000D01*
X28370000Y-10975000D01*
X28370000Y-11415000D01*
%TD*%
D11*
%TO.C,C16*%
X26050000Y-3800000D03*
X27350000Y-3800000D03*
%TD*%
D12*
%TO.C,REF\u002A\u002A*%
X39700000Y-37500000D03*
%TD*%
%TO.C,REF\u002A\u002A*%
X39700000Y-3500000D03*
%TD*%
D13*
%TO.C,C27*%
X16301231Y-23261231D03*
X15558769Y-22518769D03*
%TD*%
D14*
%TO.C,Y1*%
X14532132Y-24306497D03*
X12976497Y-25862132D03*
X14107868Y-26993503D03*
X15663503Y-25437868D03*
%TD*%
D15*
%TO.C,U6*%
X26530000Y-28890000D03*
X26530000Y-28390000D03*
X26530000Y-27890000D03*
X26530000Y-27390000D03*
X26530000Y-26890000D03*
X26530000Y-26390000D03*
X26530000Y-25890000D03*
X26530000Y-25390000D03*
X21630000Y-25390000D03*
X21630000Y-25890000D03*
X21630000Y-26390000D03*
X21630000Y-26890000D03*
X21630000Y-27390000D03*
X21630000Y-27890000D03*
X21630000Y-28390000D03*
X21630000Y-28890000D03*
D16*
X22330000Y-29590000D03*
X22830000Y-29590000D03*
X23330000Y-29590000D03*
X23830000Y-29590000D03*
X24330000Y-29590000D03*
X24830000Y-29590000D03*
X25330000Y-29590000D03*
X25830000Y-29590000D03*
X25830000Y-24690000D03*
X25330000Y-24690000D03*
X24830000Y-24690000D03*
X24330000Y-24690000D03*
X23830000Y-24690000D03*
X23330000Y-24690000D03*
X22830000Y-24690000D03*
X22330000Y-24690000D03*
D17*
X24080000Y-27140000D03*
%TD*%
D18*
%TO.C,TP1*%
X21620000Y-21910000D03*
%TD*%
D19*
%TO.C,JP2*%
X23075000Y-11790000D03*
D20*
X24525000Y-11790000D03*
%TD*%
D21*
%TO.C,D2*%
X10400000Y-13300000D03*
X10400000Y-15600000D03*
%TD*%
D22*
%TO.C,R16*%
X48100000Y-41668000D03*
X48100000Y-42532000D03*
%TD*%
D23*
%TO.C,C30*%
X45268000Y-39100000D03*
X46132000Y-39100000D03*
%TD*%
%TO.C,C10*%
X22292000Y-31590000D03*
X21428000Y-31590000D03*
%TD*%
D24*
%TO.C,C12*%
X16400000Y-30705000D03*
X16400000Y-32495000D03*
%TD*%
D25*
%TO.C,C21*%
X42300000Y-17745600D03*
X42300000Y-24654400D03*
%TD*%
D26*
%TO.C,J10*%
X48050000Y-11050000D03*
D27*
X48050000Y-8550000D03*
X48050000Y-6050000D03*
X48050000Y-3550000D03*
%TD*%
D28*
%TO.C,S2*%
X45875000Y-41600000D03*
X45875000Y-47600000D03*
X42125000Y-41600000D03*
X42125000Y-47600000D03*
%TD*%
D29*
%TO.C,D3*%
X8462000Y-32300000D03*
X6938000Y-32300000D03*
%TD*%
D30*
%TO.C,S1*%
X30200000Y-34625000D03*
X36200000Y-34625000D03*
X30200000Y-38375000D03*
X36200000Y-38375000D03*
%TD*%
D23*
%TO.C,R23*%
X30968000Y-45400000D03*
X31832000Y-45400000D03*
%TD*%
D22*
%TO.C,C6*%
X21332000Y-16650000D03*
X21332000Y-15786000D03*
%TD*%
D31*
%TO.C,J5*%
X7050000Y-11600000D03*
D32*
X7050000Y-13600000D03*
%TD*%
D33*
%TO.C,R18*%
X29000000Y-24600000D03*
X29000000Y-23150000D03*
%TD*%
D34*
%TO.C,J4*%
X50950000Y-20500000D03*
D32*
X50950000Y-18500000D03*
%TD*%
D23*
%TO.C,R22*%
X30968000Y-46700000D03*
X31832000Y-46700000D03*
%TD*%
%TO.C,C7*%
X22294000Y-35280000D03*
X21430000Y-35280000D03*
%TD*%
%TO.C,C3*%
X35632000Y-27400000D03*
X34768000Y-27400000D03*
%TD*%
%TO.C,C28*%
X38718000Y-44200000D03*
X39582000Y-44200000D03*
%TD*%
D34*
%TO.C,J6*%
X50950000Y-29200000D03*
D32*
X50950000Y-27200000D03*
%TD*%
D35*
%TO.C,C5*%
X33860000Y-20100000D03*
X35400000Y-20100000D03*
%TD*%
D36*
%TO.C,U3*%
X17850000Y-16075000D03*
X18800000Y-16075000D03*
X19750000Y-16075000D03*
X19750000Y-13800000D03*
X18800000Y-13800000D03*
X17850000Y-13800000D03*
%TD*%
D24*
%TO.C,C24*%
X27500000Y-36500000D03*
X27500000Y-34710000D03*
%TD*%
D23*
%TO.C,C22*%
X24308000Y-33090000D03*
X25172000Y-33090000D03*
%TD*%
D22*
%TO.C,R2*%
X20400000Y-10655500D03*
X20400000Y-11519500D03*
%TD*%
%TO.C,R3*%
X17200000Y-10637500D03*
X17200000Y-11501500D03*
%TD*%
%TO.C,R15*%
X37150000Y-40036000D03*
X37150000Y-40900000D03*
%TD*%
D37*
%TO.C,U1*%
X38097500Y-28795000D03*
X38097500Y-30065000D03*
X38097500Y-31335000D03*
X38097500Y-32605000D03*
X43267500Y-32605000D03*
X43267500Y-31335000D03*
X43267500Y-30065000D03*
X43267500Y-28795000D03*
%TD*%
D22*
%TO.C,C19*%
X35600000Y-6700000D03*
X35600000Y-5836000D03*
%TD*%
D23*
%TO.C,C15*%
X19390000Y-28520000D03*
X18526000Y-28520000D03*
%TD*%
D22*
%TO.C,C20*%
X39200000Y-12568000D03*
X39200000Y-13432000D03*
%TD*%
D38*
%TO.C,R12*%
X40020000Y-10700000D03*
X42980000Y-10700000D03*
%TD*%
D39*
%TO.C,D4*%
X29000000Y-19975000D03*
X29000000Y-21225000D03*
%TD*%
D23*
%TO.C,C26*%
X35450000Y-41200000D03*
X34586000Y-41200000D03*
%TD*%
D40*
%TO.C,J1*%
X9950000Y-3350000D03*
D41*
X9950000Y-5850000D03*
%TD*%
D42*
%TO.C,D5*%
X32662000Y-31300000D03*
X33218000Y-31300000D03*
%TD*%
D43*
%TO.C,C29*%
X31700000Y-43600000D03*
X31700000Y-42060000D03*
%TD*%
D34*
%TO.C,J9*%
X50950000Y-45400000D03*
D32*
X50950000Y-43400000D03*
%TD*%
D23*
%TO.C,C13*%
X38386000Y-40900000D03*
X39250000Y-40900000D03*
%TD*%
D44*
%TO.C,R5*%
X8425000Y-30700000D03*
X6975000Y-30700000D03*
%TD*%
D45*
%TO.C,IC1*%
X34944000Y-25300000D03*
D46*
X34694000Y-23800000D03*
D45*
X34944000Y-22300000D03*
D47*
X32519000Y-23800000D03*
%TD*%
D23*
%TO.C,C23*%
X24300000Y-36500000D03*
X25164000Y-36500000D03*
%TD*%
D48*
%TO.C,C8*%
X25300000Y-20500000D03*
X27090000Y-20500000D03*
%TD*%
D49*
%TO.C,U7*%
X34100000Y-46550000D03*
X34600000Y-46550000D03*
X35100000Y-46550000D03*
X35600000Y-46550000D03*
X36100000Y-46550000D03*
X36600000Y-46550000D03*
D50*
X37300000Y-45850000D03*
X37300000Y-45350000D03*
X37300000Y-44850000D03*
X37300000Y-44350000D03*
X37300000Y-43850000D03*
X37300000Y-43350000D03*
D49*
X36600000Y-42650000D03*
X36100000Y-42650000D03*
X35600000Y-42650000D03*
X35100000Y-42650000D03*
X34600000Y-42650000D03*
X34100000Y-42650000D03*
D50*
X33400000Y-43350000D03*
X33400000Y-43850000D03*
X33400000Y-44350000D03*
X33400000Y-44850000D03*
X33400000Y-45350000D03*
X33400000Y-45850000D03*
%TD*%
D51*
%TO.C,L1*%
X22300000Y-33860000D03*
X22300000Y-32940000D03*
%TD*%
D52*
%TO.C,AE1*%
X15700000Y-40795000D03*
%TD*%
D53*
%TO.C,J2*%
X21790000Y-7137500D03*
X16010000Y-7137500D03*
D54*
X22150000Y-8582500D03*
X21350000Y-8582500D03*
D55*
X20150000Y-8582500D03*
X19150000Y-8582500D03*
X18650000Y-8582500D03*
X17650000Y-8582500D03*
D54*
X16450000Y-8582500D03*
X15650000Y-8582500D03*
X15650000Y-8582500D03*
X16450000Y-8582500D03*
D55*
X17150000Y-8582500D03*
X18150000Y-8582500D03*
X19650000Y-8582500D03*
X20650000Y-8582500D03*
D54*
X21350000Y-8582500D03*
X22150000Y-8582500D03*
D56*
X14580000Y-3487500D03*
D57*
X23220000Y-7667500D03*
D56*
X23220000Y-3487500D03*
D57*
X14580000Y-7667500D03*
%TD*%
D58*
%TO.C,C11*%
X33520000Y-16400000D03*
X35080000Y-16400000D03*
%TD*%
D22*
%TO.C,R6*%
X21332000Y-18890000D03*
X21332000Y-18026000D03*
%TD*%
D19*
%TO.C,JP3*%
X23075000Y-14840000D03*
D20*
X24525000Y-14840000D03*
%TD*%
D59*
%TO.C,J3*%
X4990000Y-27300000D03*
D60*
X4990000Y-28300000D03*
X4990000Y-29300000D03*
X4990000Y-30300000D03*
%TD*%
D61*
%TO.C,C25*%
X39625000Y-45740000D03*
X39625000Y-47300000D03*
%TD*%
D44*
%TO.C,R20*%
X8450000Y-27100000D03*
X7000000Y-27100000D03*
%TD*%
%TO.C,R19*%
X8450000Y-28800000D03*
X7000000Y-28800000D03*
%TD*%
D19*
%TO.C,JP4*%
X23105000Y-17870000D03*
D20*
X24555000Y-17870000D03*
%TD*%
D22*
%TO.C,C17*%
X37100000Y-12568000D03*
X37100000Y-13432000D03*
%TD*%
D21*
%TO.C,D1*%
X12200000Y-13300000D03*
X12200000Y-15600000D03*
%TD*%
D22*
%TO.C,R27*%
X43900000Y-39968000D03*
X43900000Y-40832000D03*
%TD*%
D62*
%TO.C,U2*%
X8922500Y-24550000D03*
X8922500Y-22260000D03*
X8922500Y-19970000D03*
D63*
X2232500Y-22260000D03*
%TD*%
D44*
%TO.C,R17*%
X29475000Y-31300000D03*
X30925000Y-31300000D03*
%TD*%
D64*
%TO.C,JP1*%
X46600000Y-32575000D03*
D65*
X46600000Y-31125000D03*
%TD*%
D66*
%TO.C,C4*%
X11200000Y-20760000D03*
X14060000Y-20760000D03*
%TD*%
D23*
%TO.C,C9*%
X24822000Y-22860000D03*
X23958000Y-22860000D03*
%TD*%
D38*
%TO.C,R13*%
X37120000Y-8200000D03*
X40080000Y-8200000D03*
%TD*%
D34*
%TO.C,J8*%
X50950000Y-37300000D03*
D32*
X50950000Y-35300000D03*
%TD*%
D23*
%TO.C,C18*%
X26136000Y-23300000D03*
X27000000Y-23300000D03*
%TD*%
D51*
%TO.C,L2*%
X24390000Y-34360000D03*
X24390000Y-35280000D03*
%TD*%
D23*
%TO.C,R24*%
X18032000Y-27200000D03*
X17168000Y-27200000D03*
%TD*%
D67*
%TO.C,R11*%
X30295335Y-1390000D03*
D68*
X33545335Y-2390000D03*
D67*
X30295335Y-3390000D03*
%TD*%
D69*
%TO.C,C31*%
X15691231Y-28098769D03*
X14948769Y-28841231D03*
%TD*%
D23*
%TO.C,C1*%
X39334500Y-27300000D03*
X38470500Y-27300000D03*
%TD*%
%TO.C,R10*%
X27008000Y-1390000D03*
X27872000Y-1390000D03*
%TD*%
%TO.C,C14*%
X19390000Y-29900000D03*
X18526000Y-29900000D03*
%TD*%
D48*
%TO.C,C2*%
X9710000Y-17500000D03*
X11500000Y-17500000D03*
%TD*%
D22*
%TO.C,R14*%
X48100000Y-38232000D03*
X48100000Y-37368000D03*
%TD*%
D33*
%TO.C,R21*%
X40800000Y-12575000D03*
X40800000Y-14025000D03*
%TD*%
D22*
%TO.C,R4*%
X46600000Y-29332000D03*
X46600000Y-28468000D03*
%TD*%
M02*
